G04 #@! TF.GenerationSoftware,KiCad,Pcbnew,(5.1.2-1)-1*
G04 #@! TF.CreationDate,2019-12-08T19:46:08-05:00*
G04 #@! TF.ProjectId,GR_AVR_Programmer,47525f41-5652-45f5-9072-6f6772616d6d,rev?*
G04 #@! TF.SameCoordinates,Original*
G04 #@! TF.FileFunction,Soldermask,Bot*
G04 #@! TF.FilePolarity,Negative*
%FSLAX46Y46*%
G04 Gerber Fmt 4.6, Leading zero omitted, Abs format (unit mm)*
G04 Created by KiCad (PCBNEW (5.1.2-1)-1) date 2019-12-08 19:46:08*
%MOMM*%
%LPD*%
G04 APERTURE LIST*
%ADD10C,0.152400*%
G04 APERTURE END LIST*
D10*
G36*
X184485172Y-89338028D02*
G01*
X184776902Y-89396057D01*
X185326507Y-89623711D01*
X185821139Y-89954213D01*
X186241787Y-90374861D01*
X186572289Y-90869493D01*
X186799943Y-91419098D01*
X186916000Y-92002557D01*
X186916000Y-92597443D01*
X186799943Y-93180902D01*
X186572289Y-93730507D01*
X186241787Y-94225139D01*
X185821139Y-94645787D01*
X185326507Y-94976289D01*
X184776902Y-95203943D01*
X184485173Y-95261971D01*
X184193444Y-95320000D01*
X183598556Y-95320000D01*
X183306827Y-95261971D01*
X183015098Y-95203943D01*
X182465493Y-94976289D01*
X181970861Y-94645787D01*
X181550213Y-94225139D01*
X181219711Y-93730507D01*
X180992057Y-93180902D01*
X180876000Y-92597443D01*
X180876000Y-92002557D01*
X180992057Y-91419098D01*
X181219711Y-90869493D01*
X181550213Y-90374861D01*
X181970861Y-89954213D01*
X182465493Y-89623711D01*
X183015098Y-89396057D01*
X183306828Y-89338028D01*
X183598556Y-89280000D01*
X184193444Y-89280000D01*
X184485172Y-89338028D01*
X184485172Y-89338028D01*
G37*
G36*
X92664172Y-89338028D02*
G01*
X92955902Y-89396057D01*
X93505507Y-89623711D01*
X94000139Y-89954213D01*
X94420787Y-90374861D01*
X94751289Y-90869493D01*
X94978943Y-91419098D01*
X95095000Y-92002557D01*
X95095000Y-92597443D01*
X94978943Y-93180902D01*
X94751289Y-93730507D01*
X94420787Y-94225139D01*
X94000139Y-94645787D01*
X93505507Y-94976289D01*
X92955902Y-95203943D01*
X92664173Y-95261971D01*
X92372444Y-95320000D01*
X91777556Y-95320000D01*
X91485827Y-95261971D01*
X91194098Y-95203943D01*
X90644493Y-94976289D01*
X90149861Y-94645787D01*
X89729213Y-94225139D01*
X89398711Y-93730507D01*
X89171057Y-93180902D01*
X89055000Y-92597443D01*
X89055000Y-92002557D01*
X89171057Y-91419098D01*
X89398711Y-90869493D01*
X89729213Y-90374861D01*
X90149861Y-89954213D01*
X90644493Y-89623711D01*
X91194098Y-89396057D01*
X91485828Y-89338028D01*
X91777556Y-89280000D01*
X92372444Y-89280000D01*
X92664172Y-89338028D01*
X92664172Y-89338028D01*
G37*
G36*
X120816633Y-90602300D02*
G01*
X120944810Y-90641182D01*
X120976855Y-90650903D01*
X121016319Y-90671997D01*
X121124518Y-90729830D01*
X121253948Y-90836052D01*
X121360170Y-90965482D01*
X121418003Y-91073682D01*
X121439097Y-91113145D01*
X121439097Y-91113146D01*
X121487700Y-91273367D01*
X121504112Y-91440000D01*
X121487700Y-91606633D01*
X121448818Y-91734810D01*
X121439097Y-91766855D01*
X121418003Y-91806318D01*
X121360170Y-91914518D01*
X121253948Y-92043948D01*
X121124518Y-92150170D01*
X121016319Y-92208003D01*
X120976855Y-92229097D01*
X120944810Y-92238818D01*
X120816633Y-92277700D01*
X120691753Y-92290000D01*
X120608247Y-92290000D01*
X120483367Y-92277700D01*
X120355190Y-92238818D01*
X120323145Y-92229097D01*
X120283682Y-92208003D01*
X120175482Y-92150170D01*
X120046052Y-92043948D01*
X119939830Y-91914518D01*
X119881997Y-91806318D01*
X119860903Y-91766855D01*
X119851182Y-91734810D01*
X119812300Y-91606633D01*
X119795888Y-91440000D01*
X119812300Y-91273367D01*
X119860903Y-91113146D01*
X119860903Y-91113145D01*
X119881997Y-91073682D01*
X119939830Y-90965482D01*
X120046052Y-90836052D01*
X120175482Y-90729830D01*
X120283682Y-90671997D01*
X120323145Y-90650903D01*
X120355190Y-90641182D01*
X120483367Y-90602300D01*
X120608247Y-90590000D01*
X120691753Y-90590000D01*
X120816633Y-90602300D01*
X120816633Y-90602300D01*
G37*
G36*
X118276633Y-90602300D02*
G01*
X118404810Y-90641182D01*
X118436855Y-90650903D01*
X118476319Y-90671997D01*
X118584518Y-90729830D01*
X118713948Y-90836052D01*
X118820170Y-90965482D01*
X118878003Y-91073682D01*
X118899097Y-91113145D01*
X118899097Y-91113146D01*
X118947700Y-91273367D01*
X118964112Y-91440000D01*
X118947700Y-91606633D01*
X118908818Y-91734810D01*
X118899097Y-91766855D01*
X118878003Y-91806318D01*
X118820170Y-91914518D01*
X118713948Y-92043948D01*
X118584518Y-92150170D01*
X118476319Y-92208003D01*
X118436855Y-92229097D01*
X118404810Y-92238818D01*
X118276633Y-92277700D01*
X118151753Y-92290000D01*
X118068247Y-92290000D01*
X117943367Y-92277700D01*
X117815190Y-92238818D01*
X117783145Y-92229097D01*
X117743682Y-92208003D01*
X117635482Y-92150170D01*
X117506052Y-92043948D01*
X117399830Y-91914518D01*
X117341997Y-91806318D01*
X117320903Y-91766855D01*
X117311182Y-91734810D01*
X117272300Y-91606633D01*
X117255888Y-91440000D01*
X117272300Y-91273367D01*
X117320903Y-91113146D01*
X117320903Y-91113145D01*
X117341997Y-91073682D01*
X117399830Y-90965482D01*
X117506052Y-90836052D01*
X117635482Y-90729830D01*
X117743682Y-90671997D01*
X117783145Y-90650903D01*
X117815190Y-90641182D01*
X117943367Y-90602300D01*
X118068247Y-90590000D01*
X118151753Y-90590000D01*
X118276633Y-90602300D01*
X118276633Y-90602300D01*
G37*
G36*
X115736633Y-90602300D02*
G01*
X115864810Y-90641182D01*
X115896855Y-90650903D01*
X115936319Y-90671997D01*
X116044518Y-90729830D01*
X116173948Y-90836052D01*
X116280170Y-90965482D01*
X116338003Y-91073682D01*
X116359097Y-91113145D01*
X116359097Y-91113146D01*
X116407700Y-91273367D01*
X116424112Y-91440000D01*
X116407700Y-91606633D01*
X116368818Y-91734810D01*
X116359097Y-91766855D01*
X116338003Y-91806318D01*
X116280170Y-91914518D01*
X116173948Y-92043948D01*
X116044518Y-92150170D01*
X115936319Y-92208003D01*
X115896855Y-92229097D01*
X115864810Y-92238818D01*
X115736633Y-92277700D01*
X115611753Y-92290000D01*
X115528247Y-92290000D01*
X115403367Y-92277700D01*
X115275190Y-92238818D01*
X115243145Y-92229097D01*
X115203682Y-92208003D01*
X115095482Y-92150170D01*
X114966052Y-92043948D01*
X114859830Y-91914518D01*
X114801997Y-91806318D01*
X114780903Y-91766855D01*
X114771182Y-91734810D01*
X114732300Y-91606633D01*
X114715888Y-91440000D01*
X114732300Y-91273367D01*
X114780903Y-91113146D01*
X114780903Y-91113145D01*
X114801997Y-91073682D01*
X114859830Y-90965482D01*
X114966052Y-90836052D01*
X115095482Y-90729830D01*
X115203682Y-90671997D01*
X115243145Y-90650903D01*
X115275190Y-90641182D01*
X115403367Y-90602300D01*
X115528247Y-90590000D01*
X115611753Y-90590000D01*
X115736633Y-90602300D01*
X115736633Y-90602300D01*
G37*
G36*
X113196633Y-90602300D02*
G01*
X113324810Y-90641182D01*
X113356855Y-90650903D01*
X113396319Y-90671997D01*
X113504518Y-90729830D01*
X113633948Y-90836052D01*
X113740170Y-90965482D01*
X113798003Y-91073681D01*
X113819097Y-91113145D01*
X113819097Y-91113146D01*
X113867700Y-91273367D01*
X113884112Y-91440000D01*
X113867700Y-91606633D01*
X113828818Y-91734810D01*
X113819097Y-91766855D01*
X113798003Y-91806318D01*
X113740170Y-91914518D01*
X113633948Y-92043948D01*
X113504518Y-92150170D01*
X113396319Y-92208003D01*
X113356855Y-92229097D01*
X113324810Y-92238818D01*
X113196633Y-92277700D01*
X113071753Y-92290000D01*
X112988247Y-92290000D01*
X112863367Y-92277700D01*
X112735190Y-92238818D01*
X112703145Y-92229097D01*
X112663682Y-92208003D01*
X112555482Y-92150170D01*
X112426052Y-92043948D01*
X112319830Y-91914518D01*
X112261997Y-91806318D01*
X112240903Y-91766855D01*
X112231182Y-91734810D01*
X112192300Y-91606633D01*
X112175888Y-91440000D01*
X112192300Y-91273367D01*
X112240903Y-91113146D01*
X112240903Y-91113145D01*
X112261997Y-91073682D01*
X112319830Y-90965482D01*
X112426052Y-90836052D01*
X112555482Y-90729830D01*
X112663682Y-90671997D01*
X112703145Y-90650903D01*
X112735190Y-90641182D01*
X112863367Y-90602300D01*
X112988247Y-90590000D01*
X113071753Y-90590000D01*
X113196633Y-90602300D01*
X113196633Y-90602300D01*
G37*
G36*
X111340000Y-92290000D02*
G01*
X109640000Y-92290000D01*
X109640000Y-90590000D01*
X111340000Y-90590000D01*
X111340000Y-92290000D01*
X111340000Y-92290000D01*
G37*
G36*
X168700960Y-84886040D02*
G01*
X166700960Y-84886040D01*
X166700960Y-82886040D01*
X168700960Y-82886040D01*
X168700960Y-84886040D01*
X168700960Y-84886040D01*
G37*
G36*
X170492649Y-82924469D02*
G01*
X170674638Y-82999851D01*
X170838423Y-83109289D01*
X170977711Y-83248577D01*
X171087149Y-83412362D01*
X171162531Y-83594351D01*
X171200960Y-83787549D01*
X171200960Y-83984531D01*
X171162531Y-84177729D01*
X171087149Y-84359718D01*
X170977711Y-84523503D01*
X170838423Y-84662791D01*
X170674638Y-84772229D01*
X170492649Y-84847611D01*
X170299451Y-84886040D01*
X170102469Y-84886040D01*
X169909271Y-84847611D01*
X169727282Y-84772229D01*
X169563497Y-84662791D01*
X169424209Y-84523503D01*
X169314771Y-84359718D01*
X169239389Y-84177729D01*
X169200960Y-83984531D01*
X169200960Y-83787549D01*
X169239389Y-83594351D01*
X169314771Y-83412362D01*
X169424209Y-83248577D01*
X169563497Y-83109289D01*
X169727282Y-82999851D01*
X169909271Y-82924469D01*
X170102469Y-82886040D01*
X170299451Y-82886040D01*
X170492649Y-82924469D01*
X170492649Y-82924469D01*
G37*
G36*
X172992649Y-82924469D02*
G01*
X173174638Y-82999851D01*
X173338423Y-83109289D01*
X173477711Y-83248577D01*
X173587149Y-83412362D01*
X173662531Y-83594351D01*
X173700960Y-83787549D01*
X173700960Y-83984531D01*
X173662531Y-84177729D01*
X173587149Y-84359718D01*
X173477711Y-84523503D01*
X173338423Y-84662791D01*
X173174638Y-84772229D01*
X172992649Y-84847611D01*
X172799451Y-84886040D01*
X172602469Y-84886040D01*
X172409271Y-84847611D01*
X172227282Y-84772229D01*
X172063497Y-84662791D01*
X171924209Y-84523503D01*
X171814771Y-84359718D01*
X171739389Y-84177729D01*
X171700960Y-83984531D01*
X171700960Y-83787549D01*
X171739389Y-83594351D01*
X171814771Y-83412362D01*
X171924209Y-83248577D01*
X172063497Y-83109289D01*
X172227282Y-82999851D01*
X172409271Y-82924469D01*
X172602469Y-82886040D01*
X172799451Y-82886040D01*
X172992649Y-82924469D01*
X172992649Y-82924469D01*
G37*
G36*
X165600960Y-77986040D02*
G01*
X163600960Y-77986040D01*
X163600960Y-74786040D01*
X165600960Y-74786040D01*
X165600960Y-77986040D01*
X165600960Y-77986040D01*
G37*
G36*
X176800960Y-77986040D02*
G01*
X174800960Y-77986040D01*
X174800960Y-74786040D01*
X176800960Y-74786040D01*
X176800960Y-77986040D01*
X176800960Y-77986040D01*
G37*
G36*
X113196633Y-75362300D02*
G01*
X113324810Y-75401182D01*
X113356855Y-75410903D01*
X113396319Y-75431997D01*
X113504518Y-75489830D01*
X113633948Y-75596052D01*
X113740170Y-75725482D01*
X113798003Y-75833682D01*
X113819097Y-75873145D01*
X113819097Y-75873146D01*
X113867700Y-76033367D01*
X113884112Y-76200000D01*
X113867700Y-76366633D01*
X113828818Y-76494810D01*
X113819097Y-76526855D01*
X113798003Y-76566318D01*
X113740170Y-76674518D01*
X113633948Y-76803948D01*
X113504518Y-76910170D01*
X113396319Y-76968003D01*
X113356855Y-76989097D01*
X113324810Y-76998818D01*
X113196633Y-77037700D01*
X113071753Y-77050000D01*
X112988247Y-77050000D01*
X112863367Y-77037700D01*
X112735190Y-76998818D01*
X112703145Y-76989097D01*
X112663681Y-76968003D01*
X112555482Y-76910170D01*
X112426052Y-76803948D01*
X112319830Y-76674518D01*
X112261997Y-76566318D01*
X112240903Y-76526855D01*
X112231182Y-76494810D01*
X112192300Y-76366633D01*
X112175888Y-76200000D01*
X112192300Y-76033367D01*
X112240903Y-75873146D01*
X112240903Y-75873145D01*
X112261997Y-75833682D01*
X112319830Y-75725482D01*
X112426052Y-75596052D01*
X112555482Y-75489830D01*
X112663681Y-75431997D01*
X112703145Y-75410903D01*
X112735190Y-75401182D01*
X112863367Y-75362300D01*
X112988247Y-75350000D01*
X113071753Y-75350000D01*
X113196633Y-75362300D01*
X113196633Y-75362300D01*
G37*
G36*
X111340000Y-77050000D02*
G01*
X109640000Y-77050000D01*
X109640000Y-75350000D01*
X111340000Y-75350000D01*
X111340000Y-77050000D01*
X111340000Y-77050000D01*
G37*
G36*
X115736633Y-75362300D02*
G01*
X115864810Y-75401182D01*
X115896855Y-75410903D01*
X115936319Y-75431997D01*
X116044518Y-75489830D01*
X116173948Y-75596052D01*
X116280170Y-75725482D01*
X116338003Y-75833682D01*
X116359097Y-75873145D01*
X116359097Y-75873146D01*
X116407700Y-76033367D01*
X116424112Y-76200000D01*
X116407700Y-76366633D01*
X116368818Y-76494810D01*
X116359097Y-76526855D01*
X116338003Y-76566318D01*
X116280170Y-76674518D01*
X116173948Y-76803948D01*
X116044518Y-76910170D01*
X115936319Y-76968003D01*
X115896855Y-76989097D01*
X115864810Y-76998818D01*
X115736633Y-77037700D01*
X115611753Y-77050000D01*
X115528247Y-77050000D01*
X115403367Y-77037700D01*
X115275190Y-76998818D01*
X115243145Y-76989097D01*
X115203681Y-76968003D01*
X115095482Y-76910170D01*
X114966052Y-76803948D01*
X114859830Y-76674518D01*
X114801997Y-76566318D01*
X114780903Y-76526855D01*
X114771182Y-76494810D01*
X114732300Y-76366633D01*
X114715888Y-76200000D01*
X114732300Y-76033367D01*
X114780903Y-75873146D01*
X114780903Y-75873145D01*
X114801997Y-75833682D01*
X114859830Y-75725482D01*
X114966052Y-75596052D01*
X115095482Y-75489830D01*
X115203681Y-75431997D01*
X115243145Y-75410903D01*
X115275190Y-75401182D01*
X115403367Y-75362300D01*
X115528247Y-75350000D01*
X115611753Y-75350000D01*
X115736633Y-75362300D01*
X115736633Y-75362300D01*
G37*
G36*
X118276633Y-75362300D02*
G01*
X118404810Y-75401182D01*
X118436855Y-75410903D01*
X118476319Y-75431997D01*
X118584518Y-75489830D01*
X118713948Y-75596052D01*
X118820170Y-75725482D01*
X118878003Y-75833682D01*
X118899097Y-75873145D01*
X118899097Y-75873146D01*
X118947700Y-76033367D01*
X118964112Y-76200000D01*
X118947700Y-76366633D01*
X118908818Y-76494810D01*
X118899097Y-76526855D01*
X118878003Y-76566318D01*
X118820170Y-76674518D01*
X118713948Y-76803948D01*
X118584518Y-76910170D01*
X118476319Y-76968003D01*
X118436855Y-76989097D01*
X118404810Y-76998818D01*
X118276633Y-77037700D01*
X118151753Y-77050000D01*
X118068247Y-77050000D01*
X117943367Y-77037700D01*
X117815190Y-76998818D01*
X117783145Y-76989097D01*
X117743681Y-76968003D01*
X117635482Y-76910170D01*
X117506052Y-76803948D01*
X117399830Y-76674518D01*
X117341997Y-76566318D01*
X117320903Y-76526855D01*
X117311182Y-76494810D01*
X117272300Y-76366633D01*
X117255888Y-76200000D01*
X117272300Y-76033367D01*
X117320903Y-75873146D01*
X117320903Y-75873145D01*
X117341997Y-75833682D01*
X117399830Y-75725482D01*
X117506052Y-75596052D01*
X117635482Y-75489830D01*
X117743681Y-75431997D01*
X117783145Y-75410903D01*
X117815190Y-75401182D01*
X117943367Y-75362300D01*
X118068247Y-75350000D01*
X118151753Y-75350000D01*
X118276633Y-75362300D01*
X118276633Y-75362300D01*
G37*
G36*
X120816633Y-75362300D02*
G01*
X120944810Y-75401182D01*
X120976855Y-75410903D01*
X121016319Y-75431997D01*
X121124518Y-75489830D01*
X121253948Y-75596052D01*
X121360170Y-75725482D01*
X121418003Y-75833682D01*
X121439097Y-75873145D01*
X121439097Y-75873146D01*
X121487700Y-76033367D01*
X121504112Y-76200000D01*
X121487700Y-76366633D01*
X121448818Y-76494810D01*
X121439097Y-76526855D01*
X121418003Y-76566318D01*
X121360170Y-76674518D01*
X121253948Y-76803948D01*
X121124518Y-76910170D01*
X121016319Y-76968003D01*
X120976855Y-76989097D01*
X120944810Y-76998818D01*
X120816633Y-77037700D01*
X120691753Y-77050000D01*
X120608247Y-77050000D01*
X120483367Y-77037700D01*
X120355190Y-76998818D01*
X120323145Y-76989097D01*
X120283681Y-76968003D01*
X120175482Y-76910170D01*
X120046052Y-76803948D01*
X119939830Y-76674518D01*
X119881997Y-76566318D01*
X119860903Y-76526855D01*
X119851182Y-76494810D01*
X119812300Y-76366633D01*
X119795888Y-76200000D01*
X119812300Y-76033367D01*
X119860903Y-75873146D01*
X119860903Y-75873145D01*
X119881997Y-75833682D01*
X119939830Y-75725482D01*
X120046052Y-75596052D01*
X120175482Y-75489830D01*
X120283681Y-75431997D01*
X120323145Y-75410903D01*
X120355190Y-75401182D01*
X120483367Y-75362300D01*
X120608247Y-75350000D01*
X120691753Y-75350000D01*
X120816633Y-75362300D01*
X120816633Y-75362300D01*
G37*
G36*
X172992649Y-68424469D02*
G01*
X173174638Y-68499851D01*
X173338423Y-68609289D01*
X173477711Y-68748577D01*
X173587149Y-68912362D01*
X173662531Y-69094351D01*
X173700960Y-69287549D01*
X173700960Y-69484531D01*
X173662531Y-69677729D01*
X173587149Y-69859718D01*
X173477711Y-70023503D01*
X173338423Y-70162791D01*
X173174638Y-70272229D01*
X172992649Y-70347611D01*
X172799451Y-70386040D01*
X172602469Y-70386040D01*
X172409271Y-70347611D01*
X172227282Y-70272229D01*
X172063497Y-70162791D01*
X171924209Y-70023503D01*
X171814771Y-69859718D01*
X171739389Y-69677729D01*
X171700960Y-69484531D01*
X171700960Y-69287549D01*
X171739389Y-69094351D01*
X171814771Y-68912362D01*
X171924209Y-68748577D01*
X172063497Y-68609289D01*
X172227282Y-68499851D01*
X172409271Y-68424469D01*
X172602469Y-68386040D01*
X172799451Y-68386040D01*
X172992649Y-68424469D01*
X172992649Y-68424469D01*
G37*
G36*
X167992649Y-68424469D02*
G01*
X168174638Y-68499851D01*
X168338423Y-68609289D01*
X168477711Y-68748577D01*
X168587149Y-68912362D01*
X168662531Y-69094351D01*
X168700960Y-69287549D01*
X168700960Y-69484531D01*
X168662531Y-69677729D01*
X168587149Y-69859718D01*
X168477711Y-70023503D01*
X168338423Y-70162791D01*
X168174638Y-70272229D01*
X167992649Y-70347611D01*
X167799451Y-70386040D01*
X167602469Y-70386040D01*
X167409271Y-70347611D01*
X167227282Y-70272229D01*
X167063497Y-70162791D01*
X166924209Y-70023503D01*
X166814771Y-69859718D01*
X166739389Y-69677729D01*
X166700960Y-69484531D01*
X166700960Y-69287549D01*
X166739389Y-69094351D01*
X166814771Y-68912362D01*
X166924209Y-68748577D01*
X167063497Y-68609289D01*
X167227282Y-68499851D01*
X167409271Y-68424469D01*
X167602469Y-68386040D01*
X167799451Y-68386040D01*
X167992649Y-68424469D01*
X167992649Y-68424469D01*
G37*
G36*
X109386633Y-65202300D02*
G01*
X109514810Y-65241182D01*
X109546855Y-65250903D01*
X109586318Y-65271997D01*
X109694518Y-65329830D01*
X109823948Y-65436052D01*
X109930170Y-65565482D01*
X109988003Y-65673682D01*
X110009097Y-65713145D01*
X110009097Y-65713146D01*
X110057700Y-65873367D01*
X110074112Y-66040000D01*
X110057700Y-66206633D01*
X110018818Y-66334810D01*
X110009097Y-66366855D01*
X109988003Y-66406318D01*
X109930170Y-66514518D01*
X109823948Y-66643948D01*
X109694518Y-66750170D01*
X109586319Y-66808003D01*
X109546855Y-66829097D01*
X109514810Y-66838818D01*
X109386633Y-66877700D01*
X109261753Y-66890000D01*
X109178247Y-66890000D01*
X109053367Y-66877700D01*
X108925190Y-66838818D01*
X108893145Y-66829097D01*
X108853681Y-66808003D01*
X108745482Y-66750170D01*
X108616052Y-66643948D01*
X108509830Y-66514518D01*
X108451997Y-66406318D01*
X108430903Y-66366855D01*
X108421182Y-66334810D01*
X108382300Y-66206633D01*
X108365888Y-66040000D01*
X108382300Y-65873367D01*
X108430903Y-65713146D01*
X108430903Y-65713145D01*
X108451997Y-65673682D01*
X108509830Y-65565482D01*
X108616052Y-65436052D01*
X108745482Y-65329830D01*
X108853682Y-65271997D01*
X108893145Y-65250903D01*
X108925190Y-65241182D01*
X109053367Y-65202300D01*
X109178247Y-65190000D01*
X109261753Y-65190000D01*
X109386633Y-65202300D01*
X109386633Y-65202300D01*
G37*
G36*
X114466633Y-65202300D02*
G01*
X114594810Y-65241182D01*
X114626855Y-65250903D01*
X114666318Y-65271997D01*
X114774518Y-65329830D01*
X114903948Y-65436052D01*
X115010170Y-65565482D01*
X115068003Y-65673682D01*
X115089097Y-65713145D01*
X115089097Y-65713146D01*
X115137700Y-65873367D01*
X115154112Y-66040000D01*
X115137700Y-66206633D01*
X115098818Y-66334810D01*
X115089097Y-66366855D01*
X115068003Y-66406318D01*
X115010170Y-66514518D01*
X114903948Y-66643948D01*
X114774518Y-66750170D01*
X114666319Y-66808003D01*
X114626855Y-66829097D01*
X114594810Y-66838818D01*
X114466633Y-66877700D01*
X114341753Y-66890000D01*
X114258247Y-66890000D01*
X114133367Y-66877700D01*
X114005190Y-66838818D01*
X113973145Y-66829097D01*
X113933681Y-66808003D01*
X113825482Y-66750170D01*
X113696052Y-66643948D01*
X113589830Y-66514518D01*
X113531997Y-66406318D01*
X113510903Y-66366855D01*
X113501182Y-66334810D01*
X113462300Y-66206633D01*
X113445888Y-66040000D01*
X113462300Y-65873367D01*
X113510903Y-65713146D01*
X113510903Y-65713145D01*
X113531997Y-65673682D01*
X113589830Y-65565482D01*
X113696052Y-65436052D01*
X113825482Y-65329830D01*
X113933682Y-65271997D01*
X113973145Y-65250903D01*
X114005190Y-65241182D01*
X114133367Y-65202300D01*
X114258247Y-65190000D01*
X114341753Y-65190000D01*
X114466633Y-65202300D01*
X114466633Y-65202300D01*
G37*
G36*
X129706633Y-65202300D02*
G01*
X129834810Y-65241182D01*
X129866855Y-65250903D01*
X129906318Y-65271997D01*
X130014518Y-65329830D01*
X130143948Y-65436052D01*
X130250170Y-65565482D01*
X130308003Y-65673682D01*
X130329097Y-65713145D01*
X130329097Y-65713146D01*
X130377700Y-65873367D01*
X130394112Y-66040000D01*
X130377700Y-66206633D01*
X130338818Y-66334810D01*
X130329097Y-66366855D01*
X130308003Y-66406318D01*
X130250170Y-66514518D01*
X130143948Y-66643948D01*
X130014518Y-66750170D01*
X129906319Y-66808003D01*
X129866855Y-66829097D01*
X129834810Y-66838818D01*
X129706633Y-66877700D01*
X129581753Y-66890000D01*
X129498247Y-66890000D01*
X129373367Y-66877700D01*
X129245190Y-66838818D01*
X129213145Y-66829097D01*
X129173681Y-66808003D01*
X129065482Y-66750170D01*
X128936052Y-66643948D01*
X128829830Y-66514518D01*
X128771997Y-66406318D01*
X128750903Y-66366855D01*
X128741182Y-66334810D01*
X128702300Y-66206633D01*
X128685888Y-66040000D01*
X128702300Y-65873367D01*
X128750903Y-65713146D01*
X128750903Y-65713145D01*
X128771997Y-65673682D01*
X128829830Y-65565482D01*
X128936052Y-65436052D01*
X129065482Y-65329830D01*
X129173682Y-65271997D01*
X129213145Y-65250903D01*
X129245190Y-65241182D01*
X129373367Y-65202300D01*
X129498247Y-65190000D01*
X129581753Y-65190000D01*
X129706633Y-65202300D01*
X129706633Y-65202300D01*
G37*
G36*
X127166633Y-65202300D02*
G01*
X127294810Y-65241182D01*
X127326855Y-65250903D01*
X127366318Y-65271997D01*
X127474518Y-65329830D01*
X127603948Y-65436052D01*
X127710170Y-65565482D01*
X127768003Y-65673682D01*
X127789097Y-65713145D01*
X127789097Y-65713146D01*
X127837700Y-65873367D01*
X127854112Y-66040000D01*
X127837700Y-66206633D01*
X127798818Y-66334810D01*
X127789097Y-66366855D01*
X127768003Y-66406318D01*
X127710170Y-66514518D01*
X127603948Y-66643948D01*
X127474518Y-66750170D01*
X127366319Y-66808003D01*
X127326855Y-66829097D01*
X127294810Y-66838818D01*
X127166633Y-66877700D01*
X127041753Y-66890000D01*
X126958247Y-66890000D01*
X126833367Y-66877700D01*
X126705190Y-66838818D01*
X126673145Y-66829097D01*
X126633681Y-66808003D01*
X126525482Y-66750170D01*
X126396052Y-66643948D01*
X126289830Y-66514518D01*
X126231997Y-66406318D01*
X126210903Y-66366855D01*
X126201182Y-66334810D01*
X126162300Y-66206633D01*
X126145888Y-66040000D01*
X126162300Y-65873367D01*
X126210903Y-65713146D01*
X126210903Y-65713145D01*
X126231997Y-65673682D01*
X126289830Y-65565482D01*
X126396052Y-65436052D01*
X126525482Y-65329830D01*
X126633682Y-65271997D01*
X126673145Y-65250903D01*
X126705190Y-65241182D01*
X126833367Y-65202300D01*
X126958247Y-65190000D01*
X127041753Y-65190000D01*
X127166633Y-65202300D01*
X127166633Y-65202300D01*
G37*
G36*
X124626633Y-65202300D02*
G01*
X124754810Y-65241182D01*
X124786855Y-65250903D01*
X124826318Y-65271997D01*
X124934518Y-65329830D01*
X125063948Y-65436052D01*
X125170170Y-65565482D01*
X125228003Y-65673682D01*
X125249097Y-65713145D01*
X125249097Y-65713146D01*
X125297700Y-65873367D01*
X125314112Y-66040000D01*
X125297700Y-66206633D01*
X125258818Y-66334810D01*
X125249097Y-66366855D01*
X125228003Y-66406318D01*
X125170170Y-66514518D01*
X125063948Y-66643948D01*
X124934518Y-66750170D01*
X124826319Y-66808003D01*
X124786855Y-66829097D01*
X124754810Y-66838818D01*
X124626633Y-66877700D01*
X124501753Y-66890000D01*
X124418247Y-66890000D01*
X124293367Y-66877700D01*
X124165190Y-66838818D01*
X124133145Y-66829097D01*
X124093681Y-66808003D01*
X123985482Y-66750170D01*
X123856052Y-66643948D01*
X123749830Y-66514518D01*
X123691997Y-66406318D01*
X123670903Y-66366855D01*
X123661182Y-66334810D01*
X123622300Y-66206633D01*
X123605888Y-66040000D01*
X123622300Y-65873367D01*
X123670903Y-65713146D01*
X123670903Y-65713145D01*
X123691997Y-65673682D01*
X123749830Y-65565482D01*
X123856052Y-65436052D01*
X123985482Y-65329830D01*
X124093682Y-65271997D01*
X124133145Y-65250903D01*
X124165190Y-65241182D01*
X124293367Y-65202300D01*
X124418247Y-65190000D01*
X124501753Y-65190000D01*
X124626633Y-65202300D01*
X124626633Y-65202300D01*
G37*
G36*
X122086633Y-65202300D02*
G01*
X122214810Y-65241182D01*
X122246855Y-65250903D01*
X122286318Y-65271997D01*
X122394518Y-65329830D01*
X122523948Y-65436052D01*
X122630170Y-65565482D01*
X122688003Y-65673682D01*
X122709097Y-65713145D01*
X122709097Y-65713146D01*
X122757700Y-65873367D01*
X122774112Y-66040000D01*
X122757700Y-66206633D01*
X122718818Y-66334810D01*
X122709097Y-66366855D01*
X122688003Y-66406318D01*
X122630170Y-66514518D01*
X122523948Y-66643948D01*
X122394518Y-66750170D01*
X122286319Y-66808003D01*
X122246855Y-66829097D01*
X122214810Y-66838818D01*
X122086633Y-66877700D01*
X121961753Y-66890000D01*
X121878247Y-66890000D01*
X121753367Y-66877700D01*
X121625190Y-66838818D01*
X121593145Y-66829097D01*
X121553681Y-66808003D01*
X121445482Y-66750170D01*
X121316052Y-66643948D01*
X121209830Y-66514518D01*
X121151997Y-66406318D01*
X121130903Y-66366855D01*
X121121182Y-66334810D01*
X121082300Y-66206633D01*
X121065888Y-66040000D01*
X121082300Y-65873367D01*
X121130903Y-65713146D01*
X121130903Y-65713145D01*
X121151997Y-65673682D01*
X121209830Y-65565482D01*
X121316052Y-65436052D01*
X121445482Y-65329830D01*
X121553682Y-65271997D01*
X121593145Y-65250903D01*
X121625190Y-65241182D01*
X121753367Y-65202300D01*
X121878247Y-65190000D01*
X121961753Y-65190000D01*
X122086633Y-65202300D01*
X122086633Y-65202300D01*
G37*
G36*
X119546633Y-65202300D02*
G01*
X119674810Y-65241182D01*
X119706855Y-65250903D01*
X119746318Y-65271997D01*
X119854518Y-65329830D01*
X119983948Y-65436052D01*
X120090170Y-65565482D01*
X120148003Y-65673682D01*
X120169097Y-65713145D01*
X120169097Y-65713146D01*
X120217700Y-65873367D01*
X120234112Y-66040000D01*
X120217700Y-66206633D01*
X120178818Y-66334810D01*
X120169097Y-66366855D01*
X120148003Y-66406318D01*
X120090170Y-66514518D01*
X119983948Y-66643948D01*
X119854518Y-66750170D01*
X119746319Y-66808003D01*
X119706855Y-66829097D01*
X119674810Y-66838818D01*
X119546633Y-66877700D01*
X119421753Y-66890000D01*
X119338247Y-66890000D01*
X119213367Y-66877700D01*
X119085190Y-66838818D01*
X119053145Y-66829097D01*
X119013681Y-66808003D01*
X118905482Y-66750170D01*
X118776052Y-66643948D01*
X118669830Y-66514518D01*
X118611997Y-66406318D01*
X118590903Y-66366855D01*
X118581182Y-66334810D01*
X118542300Y-66206633D01*
X118525888Y-66040000D01*
X118542300Y-65873367D01*
X118590903Y-65713146D01*
X118590903Y-65713145D01*
X118611997Y-65673682D01*
X118669830Y-65565482D01*
X118776052Y-65436052D01*
X118905482Y-65329830D01*
X119013682Y-65271997D01*
X119053145Y-65250903D01*
X119085190Y-65241182D01*
X119213367Y-65202300D01*
X119338247Y-65190000D01*
X119421753Y-65190000D01*
X119546633Y-65202300D01*
X119546633Y-65202300D01*
G37*
G36*
X117006633Y-65202300D02*
G01*
X117134810Y-65241182D01*
X117166855Y-65250903D01*
X117206318Y-65271997D01*
X117314518Y-65329830D01*
X117443948Y-65436052D01*
X117550170Y-65565482D01*
X117608003Y-65673682D01*
X117629097Y-65713145D01*
X117629097Y-65713146D01*
X117677700Y-65873367D01*
X117694112Y-66040000D01*
X117677700Y-66206633D01*
X117638818Y-66334810D01*
X117629097Y-66366855D01*
X117608003Y-66406318D01*
X117550170Y-66514518D01*
X117443948Y-66643948D01*
X117314518Y-66750170D01*
X117206319Y-66808003D01*
X117166855Y-66829097D01*
X117134810Y-66838818D01*
X117006633Y-66877700D01*
X116881753Y-66890000D01*
X116798247Y-66890000D01*
X116673367Y-66877700D01*
X116545190Y-66838818D01*
X116513145Y-66829097D01*
X116473681Y-66808003D01*
X116365482Y-66750170D01*
X116236052Y-66643948D01*
X116129830Y-66514518D01*
X116071997Y-66406318D01*
X116050903Y-66366855D01*
X116041182Y-66334810D01*
X116002300Y-66206633D01*
X115985888Y-66040000D01*
X116002300Y-65873367D01*
X116050903Y-65713146D01*
X116050903Y-65713145D01*
X116071997Y-65673682D01*
X116129830Y-65565482D01*
X116236052Y-65436052D01*
X116365482Y-65329830D01*
X116473682Y-65271997D01*
X116513145Y-65250903D01*
X116545190Y-65241182D01*
X116673367Y-65202300D01*
X116798247Y-65190000D01*
X116881753Y-65190000D01*
X117006633Y-65202300D01*
X117006633Y-65202300D01*
G37*
G36*
X102450000Y-66890000D02*
G01*
X100750000Y-66890000D01*
X100750000Y-65190000D01*
X102450000Y-65190000D01*
X102450000Y-66890000D01*
X102450000Y-66890000D01*
G37*
G36*
X104306633Y-65202300D02*
G01*
X104434810Y-65241182D01*
X104466855Y-65250903D01*
X104506318Y-65271997D01*
X104614518Y-65329830D01*
X104743948Y-65436052D01*
X104850170Y-65565482D01*
X104908003Y-65673682D01*
X104929097Y-65713145D01*
X104929097Y-65713146D01*
X104977700Y-65873367D01*
X104994112Y-66040000D01*
X104977700Y-66206633D01*
X104938818Y-66334810D01*
X104929097Y-66366855D01*
X104908003Y-66406318D01*
X104850170Y-66514518D01*
X104743948Y-66643948D01*
X104614518Y-66750170D01*
X104506319Y-66808003D01*
X104466855Y-66829097D01*
X104434810Y-66838818D01*
X104306633Y-66877700D01*
X104181753Y-66890000D01*
X104098247Y-66890000D01*
X103973367Y-66877700D01*
X103845190Y-66838818D01*
X103813145Y-66829097D01*
X103773681Y-66808003D01*
X103665482Y-66750170D01*
X103536052Y-66643948D01*
X103429830Y-66514518D01*
X103371997Y-66406318D01*
X103350903Y-66366855D01*
X103341182Y-66334810D01*
X103302300Y-66206633D01*
X103285888Y-66040000D01*
X103302300Y-65873367D01*
X103350903Y-65713146D01*
X103350903Y-65713145D01*
X103371997Y-65673682D01*
X103429830Y-65565482D01*
X103536052Y-65436052D01*
X103665482Y-65329830D01*
X103773682Y-65271997D01*
X103813145Y-65250903D01*
X103845190Y-65241182D01*
X103973367Y-65202300D01*
X104098247Y-65190000D01*
X104181753Y-65190000D01*
X104306633Y-65202300D01*
X104306633Y-65202300D01*
G37*
G36*
X106846633Y-65202300D02*
G01*
X106974810Y-65241182D01*
X107006855Y-65250903D01*
X107046318Y-65271997D01*
X107154518Y-65329830D01*
X107283948Y-65436052D01*
X107390170Y-65565482D01*
X107448003Y-65673682D01*
X107469097Y-65713145D01*
X107469097Y-65713146D01*
X107517700Y-65873367D01*
X107534112Y-66040000D01*
X107517700Y-66206633D01*
X107478818Y-66334810D01*
X107469097Y-66366855D01*
X107448003Y-66406318D01*
X107390170Y-66514518D01*
X107283948Y-66643948D01*
X107154518Y-66750170D01*
X107046319Y-66808003D01*
X107006855Y-66829097D01*
X106974810Y-66838818D01*
X106846633Y-66877700D01*
X106721753Y-66890000D01*
X106638247Y-66890000D01*
X106513367Y-66877700D01*
X106385190Y-66838818D01*
X106353145Y-66829097D01*
X106313681Y-66808003D01*
X106205482Y-66750170D01*
X106076052Y-66643948D01*
X105969830Y-66514518D01*
X105911997Y-66406318D01*
X105890903Y-66366855D01*
X105881182Y-66334810D01*
X105842300Y-66206633D01*
X105825888Y-66040000D01*
X105842300Y-65873367D01*
X105890903Y-65713146D01*
X105890903Y-65713145D01*
X105911997Y-65673682D01*
X105969830Y-65565482D01*
X106076052Y-65436052D01*
X106205482Y-65329830D01*
X106313682Y-65271997D01*
X106353145Y-65250903D01*
X106385190Y-65241182D01*
X106513367Y-65202300D01*
X106638247Y-65190000D01*
X106721753Y-65190000D01*
X106846633Y-65202300D01*
X106846633Y-65202300D01*
G37*
G36*
X111926633Y-65202300D02*
G01*
X112054810Y-65241182D01*
X112086855Y-65250903D01*
X112126318Y-65271997D01*
X112234518Y-65329830D01*
X112363948Y-65436052D01*
X112470170Y-65565482D01*
X112528003Y-65673682D01*
X112549097Y-65713145D01*
X112549097Y-65713146D01*
X112597700Y-65873367D01*
X112614112Y-66040000D01*
X112597700Y-66206633D01*
X112558818Y-66334810D01*
X112549097Y-66366855D01*
X112528003Y-66406318D01*
X112470170Y-66514518D01*
X112363948Y-66643948D01*
X112234518Y-66750170D01*
X112126319Y-66808003D01*
X112086855Y-66829097D01*
X112054810Y-66838818D01*
X111926633Y-66877700D01*
X111801753Y-66890000D01*
X111718247Y-66890000D01*
X111593367Y-66877700D01*
X111465190Y-66838818D01*
X111433145Y-66829097D01*
X111393681Y-66808003D01*
X111285482Y-66750170D01*
X111156052Y-66643948D01*
X111049830Y-66514518D01*
X110991997Y-66406318D01*
X110970903Y-66366855D01*
X110961182Y-66334810D01*
X110922300Y-66206633D01*
X110905888Y-66040000D01*
X110922300Y-65873367D01*
X110970903Y-65713146D01*
X110970903Y-65713145D01*
X110991997Y-65673682D01*
X111049830Y-65565482D01*
X111156052Y-65436052D01*
X111285482Y-65329830D01*
X111393682Y-65271997D01*
X111433145Y-65250903D01*
X111465190Y-65241182D01*
X111593367Y-65202300D01*
X111718247Y-65190000D01*
X111801753Y-65190000D01*
X111926633Y-65202300D01*
X111926633Y-65202300D01*
G37*
G36*
X145797640Y-53285760D02*
G01*
X144097640Y-53285760D01*
X144097640Y-51585760D01*
X145797640Y-51585760D01*
X145797640Y-53285760D01*
X145797640Y-53285760D01*
G37*
G36*
X147654273Y-51598060D02*
G01*
X147782450Y-51636942D01*
X147814495Y-51646663D01*
X147853959Y-51667757D01*
X147962158Y-51725590D01*
X148091588Y-51831812D01*
X148197810Y-51961242D01*
X148255643Y-52069442D01*
X148276737Y-52108905D01*
X148276737Y-52108906D01*
X148325340Y-52269127D01*
X148341752Y-52435760D01*
X148325340Y-52602393D01*
X148286458Y-52730570D01*
X148276737Y-52762615D01*
X148255643Y-52802079D01*
X148197810Y-52910278D01*
X148091588Y-53039708D01*
X147962158Y-53145930D01*
X147853958Y-53203763D01*
X147814495Y-53224857D01*
X147782450Y-53234578D01*
X147654273Y-53273460D01*
X147529393Y-53285760D01*
X147445887Y-53285760D01*
X147321007Y-53273460D01*
X147192830Y-53234578D01*
X147160785Y-53224857D01*
X147121322Y-53203763D01*
X147013122Y-53145930D01*
X146883692Y-53039708D01*
X146777470Y-52910278D01*
X146719637Y-52802078D01*
X146698543Y-52762615D01*
X146688822Y-52730570D01*
X146649940Y-52602393D01*
X146633528Y-52435760D01*
X146649940Y-52269127D01*
X146698543Y-52108906D01*
X146698543Y-52108905D01*
X146719637Y-52069441D01*
X146777470Y-51961242D01*
X146883692Y-51831812D01*
X147013122Y-51725590D01*
X147121321Y-51667757D01*
X147160785Y-51646663D01*
X147192830Y-51636942D01*
X147321007Y-51598060D01*
X147445887Y-51585760D01*
X147529393Y-51585760D01*
X147654273Y-51598060D01*
X147654273Y-51598060D01*
G37*
G36*
X150194273Y-51598060D02*
G01*
X150322450Y-51636942D01*
X150354495Y-51646663D01*
X150393959Y-51667757D01*
X150502158Y-51725590D01*
X150631588Y-51831812D01*
X150737810Y-51961242D01*
X150795643Y-52069442D01*
X150816737Y-52108905D01*
X150816737Y-52108906D01*
X150865340Y-52269127D01*
X150881752Y-52435760D01*
X150865340Y-52602393D01*
X150826458Y-52730570D01*
X150816737Y-52762615D01*
X150795643Y-52802079D01*
X150737810Y-52910278D01*
X150631588Y-53039708D01*
X150502158Y-53145930D01*
X150393958Y-53203763D01*
X150354495Y-53224857D01*
X150322450Y-53234578D01*
X150194273Y-53273460D01*
X150069393Y-53285760D01*
X149985887Y-53285760D01*
X149861007Y-53273460D01*
X149732830Y-53234578D01*
X149700785Y-53224857D01*
X149661322Y-53203763D01*
X149553122Y-53145930D01*
X149423692Y-53039708D01*
X149317470Y-52910278D01*
X149259637Y-52802078D01*
X149238543Y-52762615D01*
X149228822Y-52730570D01*
X149189940Y-52602393D01*
X149173528Y-52435760D01*
X149189940Y-52269127D01*
X149238543Y-52108906D01*
X149238543Y-52108905D01*
X149259637Y-52069441D01*
X149317470Y-51961242D01*
X149423692Y-51831812D01*
X149553122Y-51725590D01*
X149661321Y-51667757D01*
X149700785Y-51646663D01*
X149732830Y-51636942D01*
X149861007Y-51598060D01*
X149985887Y-51585760D01*
X150069393Y-51585760D01*
X150194273Y-51598060D01*
X150194273Y-51598060D01*
G37*
G36*
X152734273Y-51598060D02*
G01*
X152862450Y-51636942D01*
X152894495Y-51646663D01*
X152933959Y-51667757D01*
X153042158Y-51725590D01*
X153171588Y-51831812D01*
X153277810Y-51961242D01*
X153335643Y-52069442D01*
X153356737Y-52108905D01*
X153356737Y-52108906D01*
X153405340Y-52269127D01*
X153421752Y-52435760D01*
X153405340Y-52602393D01*
X153366458Y-52730570D01*
X153356737Y-52762615D01*
X153335643Y-52802079D01*
X153277810Y-52910278D01*
X153171588Y-53039708D01*
X153042158Y-53145930D01*
X152933958Y-53203763D01*
X152894495Y-53224857D01*
X152862450Y-53234578D01*
X152734273Y-53273460D01*
X152609393Y-53285760D01*
X152525887Y-53285760D01*
X152401007Y-53273460D01*
X152272830Y-53234578D01*
X152240785Y-53224857D01*
X152201322Y-53203763D01*
X152093122Y-53145930D01*
X151963692Y-53039708D01*
X151857470Y-52910278D01*
X151799637Y-52802078D01*
X151778543Y-52762615D01*
X151768822Y-52730570D01*
X151729940Y-52602393D01*
X151713528Y-52435760D01*
X151729940Y-52269127D01*
X151778543Y-52108906D01*
X151778543Y-52108905D01*
X151799637Y-52069441D01*
X151857470Y-51961242D01*
X151963692Y-51831812D01*
X152093122Y-51725590D01*
X152201321Y-51667757D01*
X152240785Y-51646663D01*
X152272830Y-51636942D01*
X152401007Y-51598060D01*
X152525887Y-51585760D01*
X152609393Y-51585760D01*
X152734273Y-51598060D01*
X152734273Y-51598060D01*
G37*
G36*
X184485173Y-45933029D02*
G01*
X184776902Y-45991057D01*
X185326507Y-46218711D01*
X185821139Y-46549213D01*
X186241787Y-46969861D01*
X186572289Y-47464493D01*
X186799943Y-48014098D01*
X186916000Y-48597557D01*
X186916000Y-49192443D01*
X186799943Y-49775902D01*
X186572289Y-50325507D01*
X186241787Y-50820139D01*
X185821139Y-51240787D01*
X185326507Y-51571289D01*
X184776902Y-51798943D01*
X184611658Y-51831812D01*
X184193444Y-51915000D01*
X183598556Y-51915000D01*
X183180342Y-51831812D01*
X183015098Y-51798943D01*
X182465493Y-51571289D01*
X181970861Y-51240787D01*
X181550213Y-50820139D01*
X181219711Y-50325507D01*
X180992057Y-49775902D01*
X180876000Y-49192443D01*
X180876000Y-48597557D01*
X180992057Y-48014098D01*
X181219711Y-47464493D01*
X181550213Y-46969861D01*
X181970861Y-46549213D01*
X182465493Y-46218711D01*
X183015098Y-45991057D01*
X183306828Y-45933028D01*
X183598556Y-45875000D01*
X184193444Y-45875000D01*
X184485173Y-45933029D01*
X184485173Y-45933029D01*
G37*
G36*
X92664173Y-45933029D02*
G01*
X92955902Y-45991057D01*
X93505507Y-46218711D01*
X94000139Y-46549213D01*
X94420787Y-46969861D01*
X94751289Y-47464493D01*
X94978943Y-48014098D01*
X95095000Y-48597557D01*
X95095000Y-49192443D01*
X94978943Y-49775902D01*
X94751289Y-50325507D01*
X94420787Y-50820139D01*
X94000139Y-51240787D01*
X93505507Y-51571289D01*
X92955902Y-51798943D01*
X92790658Y-51831812D01*
X92372444Y-51915000D01*
X91777556Y-51915000D01*
X91359342Y-51831812D01*
X91194098Y-51798943D01*
X90644493Y-51571289D01*
X90149861Y-51240787D01*
X89729213Y-50820139D01*
X89398711Y-50325507D01*
X89171057Y-49775902D01*
X89055000Y-49192443D01*
X89055000Y-48597557D01*
X89171057Y-48014098D01*
X89398711Y-47464493D01*
X89729213Y-46969861D01*
X90149861Y-46549213D01*
X90644493Y-46218711D01*
X91194098Y-45991057D01*
X91485828Y-45933028D01*
X91777556Y-45875000D01*
X92372444Y-45875000D01*
X92664173Y-45933029D01*
X92664173Y-45933029D01*
G37*
G36*
X106846633Y-49962300D02*
G01*
X106974810Y-50001182D01*
X107006855Y-50010903D01*
X107046318Y-50031997D01*
X107154518Y-50089830D01*
X107283948Y-50196052D01*
X107390170Y-50325482D01*
X107448003Y-50433682D01*
X107469097Y-50473145D01*
X107469097Y-50473146D01*
X107517700Y-50633367D01*
X107534112Y-50800000D01*
X107517700Y-50966633D01*
X107478818Y-51094810D01*
X107469097Y-51126855D01*
X107448003Y-51166319D01*
X107390170Y-51274518D01*
X107283948Y-51403948D01*
X107154518Y-51510170D01*
X107046318Y-51568003D01*
X107006855Y-51589097D01*
X106977307Y-51598060D01*
X106846633Y-51637700D01*
X106721753Y-51650000D01*
X106638247Y-51650000D01*
X106513367Y-51637700D01*
X106382693Y-51598060D01*
X106353145Y-51589097D01*
X106313682Y-51568003D01*
X106205482Y-51510170D01*
X106076052Y-51403948D01*
X105969830Y-51274518D01*
X105911997Y-51166318D01*
X105890903Y-51126855D01*
X105881182Y-51094810D01*
X105842300Y-50966633D01*
X105825888Y-50800000D01*
X105842300Y-50633367D01*
X105890903Y-50473146D01*
X105890903Y-50473145D01*
X105911997Y-50433682D01*
X105969830Y-50325482D01*
X106076052Y-50196052D01*
X106205482Y-50089830D01*
X106313682Y-50031997D01*
X106353145Y-50010903D01*
X106385190Y-50001182D01*
X106513367Y-49962300D01*
X106638247Y-49950000D01*
X106721753Y-49950000D01*
X106846633Y-49962300D01*
X106846633Y-49962300D01*
G37*
G36*
X104306633Y-49962300D02*
G01*
X104434810Y-50001182D01*
X104466855Y-50010903D01*
X104506318Y-50031997D01*
X104614518Y-50089830D01*
X104743948Y-50196052D01*
X104850170Y-50325482D01*
X104908003Y-50433682D01*
X104929097Y-50473145D01*
X104929097Y-50473146D01*
X104977700Y-50633367D01*
X104994112Y-50800000D01*
X104977700Y-50966633D01*
X104938818Y-51094810D01*
X104929097Y-51126855D01*
X104908003Y-51166318D01*
X104850170Y-51274518D01*
X104743948Y-51403948D01*
X104614518Y-51510170D01*
X104506318Y-51568003D01*
X104466855Y-51589097D01*
X104437307Y-51598060D01*
X104306633Y-51637700D01*
X104181753Y-51650000D01*
X104098247Y-51650000D01*
X103973367Y-51637700D01*
X103842693Y-51598060D01*
X103813145Y-51589097D01*
X103773682Y-51568003D01*
X103665482Y-51510170D01*
X103536052Y-51403948D01*
X103429830Y-51274518D01*
X103371997Y-51166318D01*
X103350903Y-51126855D01*
X103341182Y-51094810D01*
X103302300Y-50966633D01*
X103285888Y-50800000D01*
X103302300Y-50633367D01*
X103350903Y-50473146D01*
X103350903Y-50473145D01*
X103371997Y-50433682D01*
X103429830Y-50325482D01*
X103536052Y-50196052D01*
X103665482Y-50089830D01*
X103773682Y-50031997D01*
X103813145Y-50010903D01*
X103845190Y-50001182D01*
X103973367Y-49962300D01*
X104098247Y-49950000D01*
X104181753Y-49950000D01*
X104306633Y-49962300D01*
X104306633Y-49962300D01*
G37*
G36*
X102450000Y-51650000D02*
G01*
X100750000Y-51650000D01*
X100750000Y-49950000D01*
X102450000Y-49950000D01*
X102450000Y-51650000D01*
X102450000Y-51650000D01*
G37*
G36*
X109386633Y-49962300D02*
G01*
X109514810Y-50001182D01*
X109546855Y-50010903D01*
X109586318Y-50031997D01*
X109694518Y-50089830D01*
X109823948Y-50196052D01*
X109930170Y-50325482D01*
X109988003Y-50433682D01*
X110009097Y-50473145D01*
X110009097Y-50473146D01*
X110057700Y-50633367D01*
X110074112Y-50800000D01*
X110057700Y-50966633D01*
X110018818Y-51094810D01*
X110009097Y-51126855D01*
X109988003Y-51166319D01*
X109930170Y-51274518D01*
X109823948Y-51403948D01*
X109694518Y-51510170D01*
X109586318Y-51568003D01*
X109546855Y-51589097D01*
X109517307Y-51598060D01*
X109386633Y-51637700D01*
X109261753Y-51650000D01*
X109178247Y-51650000D01*
X109053367Y-51637700D01*
X108922693Y-51598060D01*
X108893145Y-51589097D01*
X108853682Y-51568003D01*
X108745482Y-51510170D01*
X108616052Y-51403948D01*
X108509830Y-51274518D01*
X108451997Y-51166318D01*
X108430903Y-51126855D01*
X108421182Y-51094810D01*
X108382300Y-50966633D01*
X108365888Y-50800000D01*
X108382300Y-50633367D01*
X108430903Y-50473146D01*
X108430903Y-50473145D01*
X108451997Y-50433681D01*
X108509830Y-50325482D01*
X108616052Y-50196052D01*
X108745482Y-50089830D01*
X108853682Y-50031997D01*
X108893145Y-50010903D01*
X108925190Y-50001182D01*
X109053367Y-49962300D01*
X109178247Y-49950000D01*
X109261753Y-49950000D01*
X109386633Y-49962300D01*
X109386633Y-49962300D01*
G37*
G36*
X111926633Y-49962300D02*
G01*
X112054810Y-50001182D01*
X112086855Y-50010903D01*
X112126318Y-50031997D01*
X112234518Y-50089830D01*
X112363948Y-50196052D01*
X112470170Y-50325482D01*
X112528003Y-50433682D01*
X112549097Y-50473145D01*
X112549097Y-50473146D01*
X112597700Y-50633367D01*
X112614112Y-50800000D01*
X112597700Y-50966633D01*
X112558818Y-51094810D01*
X112549097Y-51126855D01*
X112528003Y-51166319D01*
X112470170Y-51274518D01*
X112363948Y-51403948D01*
X112234518Y-51510170D01*
X112126318Y-51568003D01*
X112086855Y-51589097D01*
X112057307Y-51598060D01*
X111926633Y-51637700D01*
X111801753Y-51650000D01*
X111718247Y-51650000D01*
X111593367Y-51637700D01*
X111462693Y-51598060D01*
X111433145Y-51589097D01*
X111393682Y-51568003D01*
X111285482Y-51510170D01*
X111156052Y-51403948D01*
X111049830Y-51274518D01*
X110991997Y-51166318D01*
X110970903Y-51126855D01*
X110961182Y-51094810D01*
X110922300Y-50966633D01*
X110905888Y-50800000D01*
X110922300Y-50633367D01*
X110970903Y-50473146D01*
X110970903Y-50473145D01*
X110991997Y-50433681D01*
X111049830Y-50325482D01*
X111156052Y-50196052D01*
X111285482Y-50089830D01*
X111393682Y-50031997D01*
X111433145Y-50010903D01*
X111465190Y-50001182D01*
X111593367Y-49962300D01*
X111718247Y-49950000D01*
X111801753Y-49950000D01*
X111926633Y-49962300D01*
X111926633Y-49962300D01*
G37*
G36*
X114466633Y-49962300D02*
G01*
X114594810Y-50001182D01*
X114626855Y-50010903D01*
X114666318Y-50031997D01*
X114774518Y-50089830D01*
X114903948Y-50196052D01*
X115010170Y-50325482D01*
X115068003Y-50433682D01*
X115089097Y-50473145D01*
X115089097Y-50473146D01*
X115137700Y-50633367D01*
X115154112Y-50800000D01*
X115137700Y-50966633D01*
X115098818Y-51094810D01*
X115089097Y-51126855D01*
X115068003Y-51166319D01*
X115010170Y-51274518D01*
X114903948Y-51403948D01*
X114774518Y-51510170D01*
X114666318Y-51568003D01*
X114626855Y-51589097D01*
X114597307Y-51598060D01*
X114466633Y-51637700D01*
X114341753Y-51650000D01*
X114258247Y-51650000D01*
X114133367Y-51637700D01*
X114002693Y-51598060D01*
X113973145Y-51589097D01*
X113933682Y-51568003D01*
X113825482Y-51510170D01*
X113696052Y-51403948D01*
X113589830Y-51274518D01*
X113531997Y-51166318D01*
X113510903Y-51126855D01*
X113501182Y-51094810D01*
X113462300Y-50966633D01*
X113445888Y-50800000D01*
X113462300Y-50633367D01*
X113510903Y-50473146D01*
X113510903Y-50473145D01*
X113531997Y-50433681D01*
X113589830Y-50325482D01*
X113696052Y-50196052D01*
X113825482Y-50089830D01*
X113933682Y-50031997D01*
X113973145Y-50010903D01*
X114005190Y-50001182D01*
X114133367Y-49962300D01*
X114258247Y-49950000D01*
X114341753Y-49950000D01*
X114466633Y-49962300D01*
X114466633Y-49962300D01*
G37*
G36*
X117006633Y-49962300D02*
G01*
X117134810Y-50001182D01*
X117166855Y-50010903D01*
X117206318Y-50031997D01*
X117314518Y-50089830D01*
X117443948Y-50196052D01*
X117550170Y-50325482D01*
X117608003Y-50433682D01*
X117629097Y-50473145D01*
X117629097Y-50473146D01*
X117677700Y-50633367D01*
X117694112Y-50800000D01*
X117677700Y-50966633D01*
X117638818Y-51094810D01*
X117629097Y-51126855D01*
X117608003Y-51166319D01*
X117550170Y-51274518D01*
X117443948Y-51403948D01*
X117314518Y-51510170D01*
X117206318Y-51568003D01*
X117166855Y-51589097D01*
X117137307Y-51598060D01*
X117006633Y-51637700D01*
X116881753Y-51650000D01*
X116798247Y-51650000D01*
X116673367Y-51637700D01*
X116542693Y-51598060D01*
X116513145Y-51589097D01*
X116473682Y-51568003D01*
X116365482Y-51510170D01*
X116236052Y-51403948D01*
X116129830Y-51274518D01*
X116071997Y-51166318D01*
X116050903Y-51126855D01*
X116041182Y-51094810D01*
X116002300Y-50966633D01*
X115985888Y-50800000D01*
X116002300Y-50633367D01*
X116050903Y-50473146D01*
X116050903Y-50473145D01*
X116071997Y-50433681D01*
X116129830Y-50325482D01*
X116236052Y-50196052D01*
X116365482Y-50089830D01*
X116473682Y-50031997D01*
X116513145Y-50010903D01*
X116545190Y-50001182D01*
X116673367Y-49962300D01*
X116798247Y-49950000D01*
X116881753Y-49950000D01*
X117006633Y-49962300D01*
X117006633Y-49962300D01*
G37*
G36*
X119546633Y-49962300D02*
G01*
X119674810Y-50001182D01*
X119706855Y-50010903D01*
X119746318Y-50031997D01*
X119854518Y-50089830D01*
X119983948Y-50196052D01*
X120090170Y-50325482D01*
X120148003Y-50433682D01*
X120169097Y-50473145D01*
X120169097Y-50473146D01*
X120217700Y-50633367D01*
X120234112Y-50800000D01*
X120217700Y-50966633D01*
X120178818Y-51094810D01*
X120169097Y-51126855D01*
X120148003Y-51166319D01*
X120090170Y-51274518D01*
X119983948Y-51403948D01*
X119854518Y-51510170D01*
X119746318Y-51568003D01*
X119706855Y-51589097D01*
X119677307Y-51598060D01*
X119546633Y-51637700D01*
X119421753Y-51650000D01*
X119338247Y-51650000D01*
X119213367Y-51637700D01*
X119082693Y-51598060D01*
X119053145Y-51589097D01*
X119013682Y-51568003D01*
X118905482Y-51510170D01*
X118776052Y-51403948D01*
X118669830Y-51274518D01*
X118611997Y-51166318D01*
X118590903Y-51126855D01*
X118581182Y-51094810D01*
X118542300Y-50966633D01*
X118525888Y-50800000D01*
X118542300Y-50633367D01*
X118590903Y-50473146D01*
X118590903Y-50473145D01*
X118611997Y-50433681D01*
X118669830Y-50325482D01*
X118776052Y-50196052D01*
X118905482Y-50089830D01*
X119013682Y-50031997D01*
X119053145Y-50010903D01*
X119085190Y-50001182D01*
X119213367Y-49962300D01*
X119338247Y-49950000D01*
X119421753Y-49950000D01*
X119546633Y-49962300D01*
X119546633Y-49962300D01*
G37*
G36*
X124626633Y-49962300D02*
G01*
X124754810Y-50001182D01*
X124786855Y-50010903D01*
X124826318Y-50031997D01*
X124934518Y-50089830D01*
X125063948Y-50196052D01*
X125170170Y-50325482D01*
X125228003Y-50433682D01*
X125249097Y-50473145D01*
X125249097Y-50473146D01*
X125297700Y-50633367D01*
X125314112Y-50800000D01*
X125297700Y-50966633D01*
X125258818Y-51094810D01*
X125249097Y-51126855D01*
X125228003Y-51166319D01*
X125170170Y-51274518D01*
X125063948Y-51403948D01*
X124934518Y-51510170D01*
X124826318Y-51568003D01*
X124786855Y-51589097D01*
X124757307Y-51598060D01*
X124626633Y-51637700D01*
X124501753Y-51650000D01*
X124418247Y-51650000D01*
X124293367Y-51637700D01*
X124162693Y-51598060D01*
X124133145Y-51589097D01*
X124093682Y-51568003D01*
X123985482Y-51510170D01*
X123856052Y-51403948D01*
X123749830Y-51274518D01*
X123691997Y-51166318D01*
X123670903Y-51126855D01*
X123661182Y-51094810D01*
X123622300Y-50966633D01*
X123605888Y-50800000D01*
X123622300Y-50633367D01*
X123670903Y-50473146D01*
X123670903Y-50473145D01*
X123691997Y-50433681D01*
X123749830Y-50325482D01*
X123856052Y-50196052D01*
X123985482Y-50089830D01*
X124093682Y-50031997D01*
X124133145Y-50010903D01*
X124165190Y-50001182D01*
X124293367Y-49962300D01*
X124418247Y-49950000D01*
X124501753Y-49950000D01*
X124626633Y-49962300D01*
X124626633Y-49962300D01*
G37*
G36*
X127166633Y-49962300D02*
G01*
X127294810Y-50001182D01*
X127326855Y-50010903D01*
X127366318Y-50031997D01*
X127474518Y-50089830D01*
X127603948Y-50196052D01*
X127710170Y-50325482D01*
X127768003Y-50433682D01*
X127789097Y-50473145D01*
X127789097Y-50473146D01*
X127837700Y-50633367D01*
X127854112Y-50800000D01*
X127837700Y-50966633D01*
X127798818Y-51094810D01*
X127789097Y-51126855D01*
X127768003Y-51166319D01*
X127710170Y-51274518D01*
X127603948Y-51403948D01*
X127474518Y-51510170D01*
X127366318Y-51568003D01*
X127326855Y-51589097D01*
X127297307Y-51598060D01*
X127166633Y-51637700D01*
X127041753Y-51650000D01*
X126958247Y-51650000D01*
X126833367Y-51637700D01*
X126702693Y-51598060D01*
X126673145Y-51589097D01*
X126633682Y-51568003D01*
X126525482Y-51510170D01*
X126396052Y-51403948D01*
X126289830Y-51274518D01*
X126231997Y-51166318D01*
X126210903Y-51126855D01*
X126201182Y-51094810D01*
X126162300Y-50966633D01*
X126145888Y-50800000D01*
X126162300Y-50633367D01*
X126210903Y-50473146D01*
X126210903Y-50473145D01*
X126231997Y-50433681D01*
X126289830Y-50325482D01*
X126396052Y-50196052D01*
X126525482Y-50089830D01*
X126633682Y-50031997D01*
X126673145Y-50010903D01*
X126705190Y-50001182D01*
X126833367Y-49962300D01*
X126958247Y-49950000D01*
X127041753Y-49950000D01*
X127166633Y-49962300D01*
X127166633Y-49962300D01*
G37*
G36*
X129706633Y-49962300D02*
G01*
X129834810Y-50001182D01*
X129866855Y-50010903D01*
X129906318Y-50031997D01*
X130014518Y-50089830D01*
X130143948Y-50196052D01*
X130250170Y-50325482D01*
X130308003Y-50433682D01*
X130329097Y-50473145D01*
X130329097Y-50473146D01*
X130377700Y-50633367D01*
X130394112Y-50800000D01*
X130377700Y-50966633D01*
X130338818Y-51094810D01*
X130329097Y-51126855D01*
X130308003Y-51166319D01*
X130250170Y-51274518D01*
X130143948Y-51403948D01*
X130014518Y-51510170D01*
X129906318Y-51568003D01*
X129866855Y-51589097D01*
X129837307Y-51598060D01*
X129706633Y-51637700D01*
X129581753Y-51650000D01*
X129498247Y-51650000D01*
X129373367Y-51637700D01*
X129242693Y-51598060D01*
X129213145Y-51589097D01*
X129173682Y-51568003D01*
X129065482Y-51510170D01*
X128936052Y-51403948D01*
X128829830Y-51274518D01*
X128771997Y-51166318D01*
X128750903Y-51126855D01*
X128741182Y-51094810D01*
X128702300Y-50966633D01*
X128685888Y-50800000D01*
X128702300Y-50633367D01*
X128750903Y-50473146D01*
X128750903Y-50473145D01*
X128771997Y-50433681D01*
X128829830Y-50325482D01*
X128936052Y-50196052D01*
X129065482Y-50089830D01*
X129173682Y-50031997D01*
X129213145Y-50010903D01*
X129245190Y-50001182D01*
X129373367Y-49962300D01*
X129498247Y-49950000D01*
X129581753Y-49950000D01*
X129706633Y-49962300D01*
X129706633Y-49962300D01*
G37*
G36*
X122086633Y-49962300D02*
G01*
X122214810Y-50001182D01*
X122246855Y-50010903D01*
X122286318Y-50031997D01*
X122394518Y-50089830D01*
X122523948Y-50196052D01*
X122630170Y-50325482D01*
X122688003Y-50433682D01*
X122709097Y-50473145D01*
X122709097Y-50473146D01*
X122757700Y-50633367D01*
X122774112Y-50800000D01*
X122757700Y-50966633D01*
X122718818Y-51094810D01*
X122709097Y-51126855D01*
X122688003Y-51166319D01*
X122630170Y-51274518D01*
X122523948Y-51403948D01*
X122394518Y-51510170D01*
X122286318Y-51568003D01*
X122246855Y-51589097D01*
X122217307Y-51598060D01*
X122086633Y-51637700D01*
X121961753Y-51650000D01*
X121878247Y-51650000D01*
X121753367Y-51637700D01*
X121622693Y-51598060D01*
X121593145Y-51589097D01*
X121553682Y-51568003D01*
X121445482Y-51510170D01*
X121316052Y-51403948D01*
X121209830Y-51274518D01*
X121151997Y-51166318D01*
X121130903Y-51126855D01*
X121121182Y-51094810D01*
X121082300Y-50966633D01*
X121065888Y-50800000D01*
X121082300Y-50633367D01*
X121130903Y-50473146D01*
X121130903Y-50473145D01*
X121151997Y-50433681D01*
X121209830Y-50325482D01*
X121316052Y-50196052D01*
X121445482Y-50089830D01*
X121553682Y-50031997D01*
X121593145Y-50010903D01*
X121625190Y-50001182D01*
X121753367Y-49962300D01*
X121878247Y-49950000D01*
X121961753Y-49950000D01*
X122086633Y-49962300D01*
X122086633Y-49962300D01*
G37*
M02*
