G04 #@! TF.GenerationSoftware,KiCad,Pcbnew,(5.1.2-1)-1*
G04 #@! TF.CreationDate,2019-12-08T19:46:08-05:00*
G04 #@! TF.ProjectId,GR_AVR_Programmer,47525f41-5652-45f5-9072-6f6772616d6d,rev?*
G04 #@! TF.SameCoordinates,Original*
G04 #@! TF.FileFunction,Copper,L2,Bot*
G04 #@! TF.FilePolarity,Positive*
%FSLAX46Y46*%
G04 Gerber Fmt 4.6, Leading zero omitted, Abs format (unit mm)*
G04 Created by KiCad (PCBNEW (5.1.2-1)-1) date 2019-12-08 19:46:08*
%MOMM*%
%LPD*%
G04 APERTURE LIST*
%ADD10R,1.700000X1.700000*%
%ADD11O,1.700000X1.700000*%
%ADD12C,2.000000*%
%ADD13R,2.000000X3.200000*%
%ADD14R,2.000000X2.000000*%
%ADD15C,0.800000*%
%ADD16C,0.254000*%
%ADD17C,0.406400*%
%ADD18C,0.203200*%
G04 APERTURE END LIST*
D10*
X101600000Y-66040000D03*
D11*
X104140000Y-66040000D03*
X106680000Y-66040000D03*
X109220000Y-66040000D03*
X111760000Y-66040000D03*
X114300000Y-66040000D03*
X116840000Y-66040000D03*
X119380000Y-66040000D03*
X121920000Y-66040000D03*
X124460000Y-66040000D03*
X127000000Y-66040000D03*
X129540000Y-66040000D03*
X129540000Y-50800000D03*
X127000000Y-50800000D03*
X124460000Y-50800000D03*
X121920000Y-50800000D03*
X119380000Y-50800000D03*
X116840000Y-50800000D03*
X114300000Y-50800000D03*
X111760000Y-50800000D03*
X109220000Y-50800000D03*
X106680000Y-50800000D03*
X104140000Y-50800000D03*
D10*
X101600000Y-50800000D03*
X110490000Y-91440000D03*
D11*
X113030000Y-91440000D03*
X115570000Y-91440000D03*
X118110000Y-91440000D03*
X120650000Y-91440000D03*
X120650000Y-76200000D03*
X118110000Y-76200000D03*
X115570000Y-76200000D03*
X113030000Y-76200000D03*
D10*
X110490000Y-76200000D03*
X144947640Y-52435760D03*
D11*
X147487640Y-52435760D03*
X150027640Y-52435760D03*
X152567640Y-52435760D03*
D12*
X172700960Y-69386040D03*
X167700960Y-69386040D03*
D13*
X175800960Y-76386040D03*
X164600960Y-76386040D03*
D12*
X172700960Y-83886040D03*
X170200960Y-83886040D03*
D14*
X167700960Y-83886040D03*
D15*
X98221800Y-82052160D03*
X99161600Y-82113120D03*
X98623120Y-82829400D03*
X99898200Y-82697320D03*
X98191320Y-78948280D03*
X100548440Y-72440800D03*
X100152200Y-74437240D03*
X99446080Y-72440800D03*
X99110800Y-74457560D03*
X99593400Y-75371960D03*
X99984560Y-71526400D03*
X93223080Y-71414640D03*
X91739720Y-72898000D03*
X93248480Y-74096880D03*
X91582240Y-67035680D03*
X90357960Y-65674240D03*
X90327480Y-62905640D03*
X91506040Y-61468000D03*
X91607640Y-64343280D03*
X100959920Y-82621120D03*
X100421440Y-81076800D03*
X99984560Y-81818480D03*
X101584760Y-79949040D03*
X104861360Y-77566520D03*
X104912160Y-78506320D03*
X104932480Y-79481680D03*
X110738920Y-56261000D03*
X109067600Y-57713880D03*
X108082080Y-57713880D03*
X109748320Y-56240680D03*
X114950240Y-61010800D03*
X116250720Y-59552840D03*
X108468160Y-77327760D03*
X107233720Y-78897480D03*
X116829840Y-79938880D03*
X115249960Y-79954120D03*
X118231920Y-81031080D03*
X115478560Y-87442040D03*
X118653560Y-86629240D03*
X112603280Y-84272120D03*
X113761520Y-84236560D03*
X115011200Y-88361520D03*
X107279440Y-88468200D03*
X108371640Y-89712800D03*
X123794520Y-78978760D03*
X122692160Y-80177640D03*
X113959640Y-60949840D03*
X116713000Y-58643520D03*
X116921280Y-60563760D03*
X132176520Y-58821320D03*
X138998960Y-58821320D03*
X146898360Y-56626760D03*
X118211600Y-59979560D03*
X133275121Y-59579561D03*
X139908280Y-59623960D03*
X145770600Y-57561480D03*
X107460630Y-82284150D03*
X106400600Y-79740760D03*
X106400600Y-71775320D03*
X101808280Y-68981320D03*
X140284200Y-52644040D03*
X139979400Y-56530240D03*
X133314440Y-56530240D03*
X118567200Y-56581040D03*
X110418880Y-62590680D03*
X118836440Y-78999080D03*
X123825000Y-76372720D03*
X114289840Y-69748400D03*
X114289840Y-71272920D03*
X131185920Y-72664320D03*
X142920720Y-72664320D03*
X155869640Y-73121520D03*
X159679640Y-80553560D03*
X160695640Y-79938880D03*
X156316680Y-72009000D03*
X144002760Y-71841360D03*
X131775200Y-71678800D03*
X116997480Y-70418960D03*
X115483640Y-68874640D03*
X141107160Y-60482480D03*
X119380000Y-62844680D03*
X119385080Y-60904120D03*
X130520440Y-60482480D03*
X132049520Y-69855080D03*
X139847320Y-69728080D03*
X139847320Y-77053440D03*
X132760720Y-83037680D03*
X132760720Y-90017600D03*
X142849600Y-61854640D03*
X131892040Y-63677800D03*
X141960600Y-61250120D03*
X130667760Y-62646560D03*
X143779240Y-62555120D03*
X130423920Y-63901320D03*
X138633200Y-66106040D03*
X138475720Y-76921360D03*
X132882640Y-81676240D03*
X133101080Y-80360520D03*
X137363200Y-76098400D03*
X137795000Y-53629560D03*
X133964680Y-74462640D03*
X134329855Y-75393580D03*
X129565400Y-75214480D03*
X130235960Y-73558400D03*
X135991600Y-73654920D03*
X160588960Y-71993760D03*
X141274800Y-54381400D03*
X136428480Y-75097640D03*
X127650240Y-84160360D03*
X120634760Y-88305640D03*
D16*
X111760000Y-66040000D02*
X113512600Y-64287400D01*
X113512600Y-64287400D02*
X114711480Y-64287400D01*
X114711480Y-64287400D02*
X116921280Y-62077600D01*
X116921280Y-62077600D02*
X116921280Y-60563760D01*
X132176520Y-58821320D02*
X138998960Y-58821320D01*
X148376640Y-56626760D02*
X152567640Y-52435760D01*
X146898360Y-56626760D02*
X148376640Y-56626760D01*
X115149999Y-65190001D02*
X115160159Y-65190001D01*
X114300000Y-66040000D02*
X115149999Y-65190001D01*
X115160159Y-65190001D02*
X118211600Y-62138560D01*
X118211600Y-62138560D02*
X118211600Y-59979560D01*
X133840806Y-59579561D02*
X133844565Y-59583320D01*
X133275121Y-59579561D02*
X133840806Y-59579561D01*
X139867640Y-59583320D02*
X139908280Y-59623960D01*
X133844565Y-59583320D02*
X139867640Y-59583320D01*
X150027640Y-53451760D02*
X150027640Y-52435760D01*
X148076920Y-55402480D02*
X150027640Y-53451760D01*
X146588480Y-55402480D02*
X148076920Y-55402480D01*
X146034760Y-55956200D02*
X146588480Y-55402480D01*
X146034760Y-57297320D02*
X146034760Y-55956200D01*
X145770600Y-57561480D02*
X146034760Y-57297320D01*
D17*
X107460630Y-82284150D02*
X107460630Y-80846510D01*
X106400600Y-79786480D02*
X106400600Y-79740760D01*
X107460630Y-80846510D02*
X106400600Y-79786480D01*
X106000601Y-71375321D02*
X104156561Y-71375321D01*
X106400600Y-71775320D02*
X106000601Y-71375321D01*
X101808280Y-69027040D02*
X101808280Y-68981320D01*
X104156561Y-71375321D02*
X101808280Y-69027040D01*
X147487640Y-53637841D02*
X146657721Y-54467760D01*
X147487640Y-52435760D02*
X147487640Y-53637841D01*
X146657721Y-54467760D02*
X144033240Y-54467760D01*
X144033240Y-54467760D02*
X142209520Y-52644040D01*
X142209520Y-52644040D02*
X140284200Y-52644040D01*
X139979400Y-56530240D02*
X133314440Y-56530240D01*
X110535720Y-62590680D02*
X110418880Y-62590680D01*
X116545360Y-56581040D02*
X110535720Y-62590680D01*
X118567200Y-56581040D02*
X116545360Y-56581040D01*
X118836440Y-78433395D02*
X119474715Y-77795120D01*
X118836440Y-78999080D02*
X118836440Y-78433395D01*
X119474715Y-77795120D02*
X122478800Y-77795120D01*
X123825000Y-76448920D02*
X123825000Y-76372720D01*
X122478800Y-77795120D02*
X123825000Y-76448920D01*
D16*
X114289840Y-69748400D02*
X114289840Y-71120000D01*
X114289840Y-71120000D02*
X114289840Y-71272920D01*
X131185920Y-72664320D02*
X142920720Y-72664320D01*
X155869640Y-73121520D02*
X159679640Y-76931520D01*
X159679640Y-76931520D02*
X159679640Y-80553560D01*
X160695640Y-79938880D02*
X160695640Y-76387960D01*
X160695640Y-76387960D02*
X156316680Y-72009000D01*
X144002760Y-71841360D02*
X131937760Y-71841360D01*
X131937760Y-71841360D02*
X131775200Y-71678800D01*
X116597481Y-70018961D02*
X116597481Y-69988481D01*
X116997480Y-70418960D02*
X116597481Y-70018961D01*
X116597481Y-69988481D02*
X115483640Y-68874640D01*
X141107160Y-60482480D02*
X130520440Y-60482480D01*
X119380000Y-62278995D02*
X119385080Y-62273915D01*
X119380000Y-62844680D02*
X119380000Y-62278995D01*
X119385080Y-62273915D02*
X119385080Y-60904120D01*
X132049520Y-69855080D02*
X139720320Y-69855080D01*
X139720320Y-69855080D02*
X139847320Y-69728080D01*
X139847320Y-77053440D02*
X139847320Y-77525880D01*
X139847320Y-77525880D02*
X139847320Y-77998320D01*
X139847320Y-77998320D02*
X134807960Y-83037680D01*
X134807960Y-83037680D02*
X132760720Y-83037680D01*
X114296799Y-93908880D02*
X113030000Y-92642081D01*
X113030000Y-92642081D02*
X113030000Y-91440000D01*
X128869440Y-93908880D02*
X114296799Y-93908880D01*
X132760720Y-90017600D02*
X128869440Y-93908880D01*
X141026440Y-63677800D02*
X131892040Y-63677800D01*
X142849600Y-61854640D02*
X141026440Y-63677800D01*
X130667760Y-62641480D02*
X130667760Y-62646560D01*
X132019040Y-61290200D02*
X130667760Y-62641480D01*
X141920520Y-61290200D02*
X132019040Y-61290200D01*
X141960600Y-61250120D02*
X141920520Y-61290200D01*
X131058920Y-64536320D02*
X130423920Y-63901320D01*
X143322040Y-62555120D02*
X141340840Y-64536320D01*
X141340840Y-64536320D02*
X131058920Y-64536320D01*
X143779240Y-62555120D02*
X143322040Y-62555120D01*
X130742081Y-66040000D02*
X130752241Y-66050160D01*
X129540000Y-66040000D02*
X130742081Y-66040000D01*
X138577320Y-66050160D02*
X138633200Y-66106040D01*
X130752241Y-66050160D02*
X138577320Y-66050160D01*
X138475720Y-77487045D02*
X134286525Y-81676240D01*
X138475720Y-76921360D02*
X138475720Y-77487045D01*
X134286525Y-81676240D02*
X132882640Y-81676240D01*
X133101080Y-80360520D02*
X133501079Y-79960521D01*
X133501079Y-79960521D02*
X137363200Y-76098400D01*
X132369560Y-53629560D02*
X129540000Y-50800000D01*
X137795000Y-53629560D02*
X132369560Y-53629560D01*
X118110000Y-74997919D02*
X118645279Y-74462640D01*
X118110000Y-76200000D02*
X118110000Y-74997919D01*
X118645279Y-74462640D02*
X133964680Y-74462640D01*
X134329855Y-75393580D02*
X129744500Y-75393580D01*
X129744500Y-75393580D02*
X129565400Y-75214480D01*
X130235960Y-73558400D02*
X135895080Y-73558400D01*
X135895080Y-73558400D02*
X135991600Y-73654920D01*
X141274800Y-54442360D02*
X141274800Y-54381400D01*
X145846800Y-59014360D02*
X141274800Y-54442360D01*
X155244800Y-59014360D02*
X145846800Y-59014360D01*
X160588960Y-64358520D02*
X155244800Y-59014360D01*
X160588960Y-71993760D02*
X160588960Y-64358520D01*
X136428480Y-75097640D02*
X127650240Y-83875880D01*
X127650240Y-83875880D02*
X127650240Y-84160360D01*
X115570000Y-90237919D02*
X117502279Y-88305640D01*
X115570000Y-91440000D02*
X115570000Y-90237919D01*
X117502279Y-88305640D02*
X120634760Y-88305640D01*
D18*
G36*
X180484822Y-46095518D02*
G01*
X180004215Y-46814797D01*
X179673167Y-47614018D01*
X179504400Y-48462465D01*
X179504400Y-49327535D01*
X179673167Y-50175982D01*
X180004215Y-50975203D01*
X180484822Y-51694482D01*
X181096518Y-52306178D01*
X181815797Y-52786785D01*
X182615018Y-53117833D01*
X183463465Y-53286600D01*
X184328535Y-53286600D01*
X185176982Y-53117833D01*
X185976203Y-52786785D01*
X186695482Y-52306178D01*
X187307178Y-51694482D01*
X187337700Y-51648803D01*
X187337701Y-89546199D01*
X187307178Y-89500518D01*
X186695482Y-88888822D01*
X185976203Y-88408215D01*
X185176982Y-88077167D01*
X184328535Y-87908400D01*
X183463465Y-87908400D01*
X182615018Y-88077167D01*
X181815797Y-88408215D01*
X181096518Y-88888822D01*
X180484822Y-89500518D01*
X180004215Y-90219797D01*
X179673167Y-91019018D01*
X179504400Y-91867465D01*
X179504400Y-92732535D01*
X179673167Y-93580982D01*
X180004215Y-94380203D01*
X180484822Y-95099482D01*
X181096518Y-95711178D01*
X181142197Y-95741700D01*
X94828803Y-95741700D01*
X94874482Y-95711178D01*
X95486178Y-95099482D01*
X95966785Y-94380203D01*
X96297833Y-93580982D01*
X96466600Y-92732535D01*
X96466600Y-91867465D01*
X96297833Y-91019018D01*
X96120129Y-90590000D01*
X109027451Y-90590000D01*
X109027451Y-92290000D01*
X109039221Y-92409502D01*
X109074079Y-92524412D01*
X109130684Y-92630314D01*
X109206862Y-92723138D01*
X109299686Y-92799316D01*
X109405588Y-92855921D01*
X109520498Y-92890779D01*
X109640000Y-92902549D01*
X111340000Y-92902549D01*
X111459502Y-92890779D01*
X111574412Y-92855921D01*
X111680314Y-92799316D01*
X111773138Y-92723138D01*
X111849316Y-92630314D01*
X111905921Y-92524412D01*
X111939880Y-92412466D01*
X111992913Y-92477087D01*
X112215166Y-92659485D01*
X112295795Y-92702582D01*
X112304058Y-92786479D01*
X112346178Y-92925329D01*
X112354092Y-92940135D01*
X112414576Y-93053293D01*
X112461168Y-93110065D01*
X112506625Y-93165455D01*
X112534732Y-93188522D01*
X113750353Y-94404143D01*
X113773424Y-94432255D01*
X113885586Y-94524304D01*
X114013550Y-94592702D01*
X114152400Y-94634822D01*
X114260613Y-94645480D01*
X114260622Y-94645480D01*
X114296798Y-94649043D01*
X114332974Y-94645480D01*
X128833257Y-94645480D01*
X128869440Y-94649044D01*
X128905623Y-94645480D01*
X128905626Y-94645480D01*
X129013839Y-94634822D01*
X129152689Y-94592702D01*
X129280653Y-94524304D01*
X129392815Y-94432255D01*
X129415886Y-94404143D01*
X132792830Y-91027200D01*
X132860157Y-91027200D01*
X133055209Y-90988402D01*
X133238945Y-90912296D01*
X133404302Y-90801808D01*
X133544928Y-90661182D01*
X133655416Y-90495825D01*
X133731522Y-90312089D01*
X133770320Y-90117037D01*
X133770320Y-89918163D01*
X133731522Y-89723111D01*
X133655416Y-89539375D01*
X133544928Y-89374018D01*
X133404302Y-89233392D01*
X133238945Y-89122904D01*
X133055209Y-89046798D01*
X132860157Y-89008000D01*
X132661283Y-89008000D01*
X132466231Y-89046798D01*
X132282495Y-89122904D01*
X132117138Y-89233392D01*
X131976512Y-89374018D01*
X131866024Y-89539375D01*
X131789918Y-89723111D01*
X131751120Y-89918163D01*
X131751120Y-89985490D01*
X128564331Y-93172280D01*
X114601908Y-93172280D01*
X113979003Y-92549375D01*
X114067087Y-92477087D01*
X114249485Y-92254834D01*
X114300000Y-92160327D01*
X114350515Y-92254834D01*
X114532913Y-92477087D01*
X114755166Y-92659485D01*
X115008733Y-92795019D01*
X115283868Y-92878481D01*
X115498297Y-92899600D01*
X115641703Y-92899600D01*
X115856132Y-92878481D01*
X116131267Y-92795019D01*
X116384834Y-92659485D01*
X116607087Y-92477087D01*
X116789485Y-92254834D01*
X116840000Y-92160327D01*
X116890515Y-92254834D01*
X117072913Y-92477087D01*
X117295166Y-92659485D01*
X117548733Y-92795019D01*
X117823868Y-92878481D01*
X118038297Y-92899600D01*
X118181703Y-92899600D01*
X118396132Y-92878481D01*
X118671267Y-92795019D01*
X118924834Y-92659485D01*
X119147087Y-92477087D01*
X119223884Y-92383509D01*
X119244569Y-92420408D01*
X119462842Y-92675756D01*
X119726737Y-92883614D01*
X120026112Y-93035995D01*
X120282056Y-93113631D01*
X120548400Y-92934250D01*
X120548400Y-91541600D01*
X120751600Y-91541600D01*
X120751600Y-92934250D01*
X121017944Y-93113631D01*
X121273888Y-93035995D01*
X121573263Y-92883614D01*
X121837158Y-92675756D01*
X122055431Y-92420408D01*
X122219694Y-92127384D01*
X122323635Y-91807944D01*
X122144689Y-91541600D01*
X120751600Y-91541600D01*
X120548400Y-91541600D01*
X120528400Y-91541600D01*
X120528400Y-91338400D01*
X120548400Y-91338400D01*
X120548400Y-89945750D01*
X120751600Y-89945750D01*
X120751600Y-91338400D01*
X122144689Y-91338400D01*
X122323635Y-91072056D01*
X122219694Y-90752616D01*
X122055431Y-90459592D01*
X121837158Y-90204244D01*
X121573263Y-89996386D01*
X121273888Y-89844005D01*
X121017944Y-89766369D01*
X120751600Y-89945750D01*
X120548400Y-89945750D01*
X120282056Y-89766369D01*
X120026112Y-89844005D01*
X119726737Y-89996386D01*
X119462842Y-90204244D01*
X119244569Y-90459592D01*
X119223884Y-90496491D01*
X119147087Y-90402913D01*
X118924834Y-90220515D01*
X118671267Y-90084981D01*
X118396132Y-90001519D01*
X118181703Y-89980400D01*
X118038297Y-89980400D01*
X117823868Y-90001519D01*
X117548733Y-90084981D01*
X117295166Y-90220515D01*
X117072913Y-90402913D01*
X116890515Y-90625166D01*
X116840000Y-90719673D01*
X116789485Y-90625166D01*
X116607087Y-90402913D01*
X116519003Y-90330625D01*
X117807389Y-89042240D01*
X119943570Y-89042240D01*
X119991178Y-89089848D01*
X120156535Y-89200336D01*
X120340271Y-89276442D01*
X120535323Y-89315240D01*
X120734197Y-89315240D01*
X120929249Y-89276442D01*
X121112985Y-89200336D01*
X121278342Y-89089848D01*
X121418968Y-88949222D01*
X121529456Y-88783865D01*
X121605562Y-88600129D01*
X121644360Y-88405077D01*
X121644360Y-88206203D01*
X121605562Y-88011151D01*
X121529456Y-87827415D01*
X121418968Y-87662058D01*
X121278342Y-87521432D01*
X121112985Y-87410944D01*
X120929249Y-87334838D01*
X120734197Y-87296040D01*
X120535323Y-87296040D01*
X120340271Y-87334838D01*
X120156535Y-87410944D01*
X119991178Y-87521432D01*
X119943570Y-87569040D01*
X117538454Y-87569040D01*
X117502278Y-87565477D01*
X117466102Y-87569040D01*
X117466093Y-87569040D01*
X117357880Y-87579698D01*
X117219030Y-87621818D01*
X117091066Y-87690216D01*
X116978904Y-87782265D01*
X116955838Y-87810371D01*
X115074732Y-89691478D01*
X115046626Y-89714544D01*
X115023560Y-89742650D01*
X115023558Y-89742652D01*
X114954576Y-89826707D01*
X114929725Y-89873201D01*
X114886179Y-89954670D01*
X114846650Y-90084981D01*
X114844059Y-90093521D01*
X114835795Y-90177418D01*
X114755166Y-90220515D01*
X114532913Y-90402913D01*
X114350515Y-90625166D01*
X114300000Y-90719673D01*
X114249485Y-90625166D01*
X114067087Y-90402913D01*
X113844834Y-90220515D01*
X113591267Y-90084981D01*
X113316132Y-90001519D01*
X113101703Y-89980400D01*
X112958297Y-89980400D01*
X112743868Y-90001519D01*
X112468733Y-90084981D01*
X112215166Y-90220515D01*
X111992913Y-90402913D01*
X111939880Y-90467534D01*
X111905921Y-90355588D01*
X111849316Y-90249686D01*
X111773138Y-90156862D01*
X111680314Y-90080684D01*
X111574412Y-90024079D01*
X111459502Y-89989221D01*
X111340000Y-89977451D01*
X109640000Y-89977451D01*
X109520498Y-89989221D01*
X109405588Y-90024079D01*
X109299686Y-90080684D01*
X109206862Y-90156862D01*
X109130684Y-90249686D01*
X109074079Y-90355588D01*
X109039221Y-90470498D01*
X109027451Y-90590000D01*
X96120129Y-90590000D01*
X95966785Y-90219797D01*
X95486178Y-89500518D01*
X94874482Y-88888822D01*
X94155203Y-88408215D01*
X93355982Y-88077167D01*
X92507535Y-87908400D01*
X91642465Y-87908400D01*
X90794018Y-88077167D01*
X89994797Y-88408215D01*
X89275518Y-88888822D01*
X88663822Y-89500518D01*
X88633300Y-89546197D01*
X88633300Y-79641323D01*
X105391000Y-79641323D01*
X105391000Y-79840197D01*
X105429798Y-80035249D01*
X105505904Y-80218985D01*
X105616392Y-80384342D01*
X105757018Y-80524968D01*
X105922375Y-80635456D01*
X106106111Y-80711562D01*
X106193615Y-80728968D01*
X106647831Y-81183184D01*
X106647830Y-81683358D01*
X106565934Y-81805925D01*
X106489828Y-81989661D01*
X106451030Y-82184713D01*
X106451030Y-82383587D01*
X106489828Y-82578639D01*
X106565934Y-82762375D01*
X106676422Y-82927732D01*
X106817048Y-83068358D01*
X106982405Y-83178846D01*
X107166141Y-83254952D01*
X107361193Y-83293750D01*
X107560067Y-83293750D01*
X107755119Y-83254952D01*
X107938855Y-83178846D01*
X108104212Y-83068358D01*
X108244838Y-82927732D01*
X108355326Y-82762375D01*
X108431432Y-82578639D01*
X108470230Y-82383587D01*
X108470230Y-82184713D01*
X108431432Y-81989661D01*
X108355326Y-81805925D01*
X108273430Y-81683359D01*
X108273430Y-80886430D01*
X108277362Y-80846510D01*
X108273430Y-80806587D01*
X108261669Y-80687173D01*
X108215192Y-80533960D01*
X108139718Y-80392758D01*
X108038147Y-80268993D01*
X108007136Y-80243543D01*
X107410200Y-79646608D01*
X107410200Y-79641323D01*
X107371402Y-79446271D01*
X107295296Y-79262535D01*
X107184808Y-79097178D01*
X107044182Y-78956552D01*
X106878825Y-78846064D01*
X106695089Y-78769958D01*
X106500037Y-78731160D01*
X106301163Y-78731160D01*
X106106111Y-78769958D01*
X105922375Y-78846064D01*
X105757018Y-78956552D01*
X105616392Y-79097178D01*
X105505904Y-79262535D01*
X105429798Y-79446271D01*
X105391000Y-79641323D01*
X88633300Y-79641323D01*
X88633300Y-75350000D01*
X109027451Y-75350000D01*
X109027451Y-77050000D01*
X109039221Y-77169502D01*
X109074079Y-77284412D01*
X109130684Y-77390314D01*
X109206862Y-77483138D01*
X109299686Y-77559316D01*
X109405588Y-77615921D01*
X109520498Y-77650779D01*
X109640000Y-77662549D01*
X111340000Y-77662549D01*
X111459502Y-77650779D01*
X111574412Y-77615921D01*
X111680314Y-77559316D01*
X111773138Y-77483138D01*
X111849316Y-77390314D01*
X111905921Y-77284412D01*
X111939880Y-77172466D01*
X111992913Y-77237087D01*
X112215166Y-77419485D01*
X112468733Y-77555019D01*
X112743868Y-77638481D01*
X112958297Y-77659600D01*
X113101703Y-77659600D01*
X113316132Y-77638481D01*
X113591267Y-77555019D01*
X113844834Y-77419485D01*
X114067087Y-77237087D01*
X114249485Y-77014834D01*
X114300000Y-76920327D01*
X114350515Y-77014834D01*
X114532913Y-77237087D01*
X114755166Y-77419485D01*
X115008733Y-77555019D01*
X115283868Y-77638481D01*
X115498297Y-77659600D01*
X115641703Y-77659600D01*
X115856132Y-77638481D01*
X116131267Y-77555019D01*
X116384834Y-77419485D01*
X116607087Y-77237087D01*
X116789485Y-77014834D01*
X116840000Y-76920327D01*
X116890515Y-77014834D01*
X117072913Y-77237087D01*
X117295166Y-77419485D01*
X117548733Y-77555019D01*
X117823868Y-77638481D01*
X118038297Y-77659600D01*
X118181703Y-77659600D01*
X118396132Y-77638481D01*
X118519220Y-77601142D01*
X118289935Y-77830428D01*
X118258924Y-77855878D01*
X118233474Y-77886889D01*
X118157352Y-77979644D01*
X118152095Y-77989480D01*
X118081878Y-78120845D01*
X118035401Y-78274058D01*
X118025692Y-78372637D01*
X118023084Y-78399121D01*
X117941744Y-78520855D01*
X117865638Y-78704591D01*
X117826840Y-78899643D01*
X117826840Y-79098517D01*
X117865638Y-79293569D01*
X117941744Y-79477305D01*
X118052232Y-79642662D01*
X118192858Y-79783288D01*
X118358215Y-79893776D01*
X118541951Y-79969882D01*
X118737003Y-80008680D01*
X118935877Y-80008680D01*
X119130929Y-79969882D01*
X119314665Y-79893776D01*
X119480022Y-79783288D01*
X119620648Y-79642662D01*
X119731136Y-79477305D01*
X119807242Y-79293569D01*
X119846040Y-79098517D01*
X119846040Y-78899643D01*
X119807242Y-78704591D01*
X119780142Y-78639166D01*
X119811388Y-78607920D01*
X122438880Y-78607920D01*
X122478800Y-78611852D01*
X122518720Y-78607920D01*
X122518723Y-78607920D01*
X122638137Y-78596159D01*
X122791350Y-78549682D01*
X122932552Y-78474208D01*
X123056317Y-78372637D01*
X123081771Y-78341621D01*
X124070033Y-77353359D01*
X124119489Y-77343522D01*
X124303225Y-77267416D01*
X124468582Y-77156928D01*
X124609208Y-77016302D01*
X124719696Y-76850945D01*
X124795802Y-76667209D01*
X124834600Y-76472157D01*
X124834600Y-76273283D01*
X124795802Y-76078231D01*
X124719696Y-75894495D01*
X124609208Y-75729138D01*
X124468582Y-75588512D01*
X124303225Y-75478024D01*
X124119489Y-75401918D01*
X123924437Y-75363120D01*
X123725563Y-75363120D01*
X123530511Y-75401918D01*
X123346775Y-75478024D01*
X123181418Y-75588512D01*
X123040792Y-75729138D01*
X122930304Y-75894495D01*
X122854198Y-76078231D01*
X122815400Y-76273283D01*
X122815400Y-76309047D01*
X122142128Y-76982320D01*
X121886864Y-76982320D01*
X122005019Y-76761267D01*
X122088481Y-76486132D01*
X122116662Y-76200000D01*
X122088481Y-75913868D01*
X122005019Y-75638733D01*
X121869485Y-75385166D01*
X121716900Y-75199240D01*
X128555800Y-75199240D01*
X128555800Y-75313917D01*
X128594598Y-75508969D01*
X128670704Y-75692705D01*
X128781192Y-75858062D01*
X128921818Y-75998688D01*
X129087175Y-76109176D01*
X129270911Y-76185282D01*
X129465963Y-76224080D01*
X129664837Y-76224080D01*
X129859889Y-76185282D01*
X129992917Y-76130180D01*
X133638665Y-76130180D01*
X133686273Y-76177788D01*
X133851630Y-76288276D01*
X134035366Y-76364382D01*
X134105982Y-76378428D01*
X127251792Y-83232619D01*
X127172015Y-83265664D01*
X127006658Y-83376152D01*
X126866032Y-83516778D01*
X126755544Y-83682135D01*
X126679438Y-83865871D01*
X126640640Y-84060923D01*
X126640640Y-84259797D01*
X126679438Y-84454849D01*
X126755544Y-84638585D01*
X126866032Y-84803942D01*
X127006658Y-84944568D01*
X127172015Y-85055056D01*
X127355751Y-85131162D01*
X127550803Y-85169960D01*
X127749677Y-85169960D01*
X127944729Y-85131162D01*
X128128465Y-85055056D01*
X128293822Y-84944568D01*
X128434448Y-84803942D01*
X128544936Y-84638585D01*
X128621042Y-84454849D01*
X128659840Y-84259797D01*
X128659840Y-84060923D01*
X128634467Y-83933362D01*
X132094200Y-80473630D01*
X132130278Y-80655009D01*
X132206384Y-80838745D01*
X132241084Y-80890678D01*
X132239058Y-80892032D01*
X132098432Y-81032658D01*
X131987944Y-81198015D01*
X131911838Y-81381751D01*
X131873040Y-81576803D01*
X131873040Y-81775677D01*
X131911838Y-81970729D01*
X131987944Y-82154465D01*
X132079348Y-82291262D01*
X131976512Y-82394098D01*
X131866024Y-82559455D01*
X131789918Y-82743191D01*
X131751120Y-82938243D01*
X131751120Y-83137117D01*
X131789918Y-83332169D01*
X131866024Y-83515905D01*
X131976512Y-83681262D01*
X132117138Y-83821888D01*
X132282495Y-83932376D01*
X132466231Y-84008482D01*
X132661283Y-84047280D01*
X132860157Y-84047280D01*
X133055209Y-84008482D01*
X133238945Y-83932376D01*
X133404302Y-83821888D01*
X133451910Y-83774280D01*
X134771777Y-83774280D01*
X134807960Y-83777844D01*
X134844143Y-83774280D01*
X134844146Y-83774280D01*
X134952359Y-83763622D01*
X135091209Y-83721502D01*
X135219173Y-83653104D01*
X135331335Y-83561055D01*
X135354406Y-83532943D01*
X136001309Y-82886040D01*
X166088411Y-82886040D01*
X166088411Y-84886040D01*
X166100181Y-85005542D01*
X166135039Y-85120452D01*
X166191644Y-85226354D01*
X166267822Y-85319178D01*
X166360646Y-85395356D01*
X166466548Y-85451961D01*
X166581458Y-85486819D01*
X166700960Y-85498589D01*
X168700960Y-85498589D01*
X168820462Y-85486819D01*
X168935372Y-85451961D01*
X169041274Y-85395356D01*
X169134098Y-85319178D01*
X169146529Y-85304031D01*
X169184081Y-85458507D01*
X169510393Y-85626676D01*
X169863244Y-85727953D01*
X170229072Y-85758447D01*
X170593821Y-85716985D01*
X170943472Y-85605161D01*
X171217839Y-85458507D01*
X171298389Y-85127153D01*
X170200960Y-84029724D01*
X170186818Y-84043867D01*
X170043134Y-83900183D01*
X170057276Y-83886040D01*
X170344644Y-83886040D01*
X171442073Y-84983469D01*
X171506427Y-84967825D01*
X171674900Y-85136298D01*
X171938529Y-85312449D01*
X172231457Y-85433784D01*
X172542428Y-85495640D01*
X172859492Y-85495640D01*
X173170463Y-85433784D01*
X173463391Y-85312449D01*
X173727020Y-85136298D01*
X173951218Y-84912100D01*
X174127369Y-84648471D01*
X174248704Y-84355543D01*
X174310560Y-84044572D01*
X174310560Y-83727508D01*
X174248704Y-83416537D01*
X174127369Y-83123609D01*
X173951218Y-82859980D01*
X173727020Y-82635782D01*
X173463391Y-82459631D01*
X173170463Y-82338296D01*
X172859492Y-82276440D01*
X172542428Y-82276440D01*
X172231457Y-82338296D01*
X171938529Y-82459631D01*
X171674900Y-82635782D01*
X171506427Y-82804255D01*
X171442073Y-82788611D01*
X170344644Y-83886040D01*
X170057276Y-83886040D01*
X170043134Y-83871898D01*
X170186818Y-83728214D01*
X170200960Y-83742356D01*
X171298389Y-82644927D01*
X171217839Y-82313573D01*
X170891527Y-82145404D01*
X170538676Y-82044127D01*
X170172848Y-82013633D01*
X169808099Y-82055095D01*
X169458448Y-82166919D01*
X169184081Y-82313573D01*
X169146529Y-82468049D01*
X169134098Y-82452902D01*
X169041274Y-82376724D01*
X168935372Y-82320119D01*
X168820462Y-82285261D01*
X168700960Y-82273491D01*
X166700960Y-82273491D01*
X166581458Y-82285261D01*
X166466548Y-82320119D01*
X166360646Y-82376724D01*
X166267822Y-82452902D01*
X166191644Y-82545726D01*
X166135039Y-82651628D01*
X166100181Y-82766538D01*
X166088411Y-82886040D01*
X136001309Y-82886040D01*
X140342589Y-78544761D01*
X140370695Y-78521695D01*
X140462744Y-78409533D01*
X140531142Y-78281569D01*
X140573262Y-78142719D01*
X140583920Y-78034505D01*
X140583920Y-78034497D01*
X140587483Y-77998321D01*
X140583920Y-77962145D01*
X140583920Y-77744630D01*
X140631528Y-77697022D01*
X140742016Y-77531665D01*
X140818122Y-77347929D01*
X140856920Y-77152877D01*
X140856920Y-76954003D01*
X140818122Y-76758951D01*
X140742016Y-76575215D01*
X140631528Y-76409858D01*
X140490902Y-76269232D01*
X140325545Y-76158744D01*
X140141809Y-76082638D01*
X139946757Y-76043840D01*
X139747883Y-76043840D01*
X139552831Y-76082638D01*
X139369095Y-76158744D01*
X139232298Y-76250148D01*
X139119302Y-76137152D01*
X138953945Y-76026664D01*
X138770209Y-75950558D01*
X138575157Y-75911760D01*
X138376283Y-75911760D01*
X138356247Y-75915745D01*
X138334002Y-75803911D01*
X138257896Y-75620175D01*
X138147408Y-75454818D01*
X138006782Y-75314192D01*
X137841425Y-75203704D01*
X137657689Y-75127598D01*
X137462637Y-75088800D01*
X137438080Y-75088800D01*
X137438080Y-74998203D01*
X137399282Y-74803151D01*
X137323176Y-74619415D01*
X137212688Y-74454058D01*
X137072062Y-74313432D01*
X136906705Y-74202944D01*
X136854192Y-74181192D01*
X136886296Y-74133145D01*
X136962402Y-73949409D01*
X137001200Y-73754357D01*
X137001200Y-73555483D01*
X136970456Y-73400920D01*
X142229530Y-73400920D01*
X142277138Y-73448528D01*
X142442495Y-73559016D01*
X142626231Y-73635122D01*
X142821283Y-73673920D01*
X143020157Y-73673920D01*
X143215209Y-73635122D01*
X143398945Y-73559016D01*
X143564302Y-73448528D01*
X143704928Y-73307902D01*
X143815416Y-73142545D01*
X143865313Y-73022083D01*
X154860040Y-73022083D01*
X154860040Y-73220957D01*
X154898838Y-73416009D01*
X154974944Y-73599745D01*
X155085432Y-73765102D01*
X155226058Y-73905728D01*
X155391415Y-74016216D01*
X155575151Y-74092322D01*
X155770203Y-74131120D01*
X155837531Y-74131120D01*
X158943040Y-77236630D01*
X158943041Y-79862369D01*
X158895432Y-79909978D01*
X158784944Y-80075335D01*
X158708838Y-80259071D01*
X158670040Y-80454123D01*
X158670040Y-80652997D01*
X158708838Y-80848049D01*
X158784944Y-81031785D01*
X158895432Y-81197142D01*
X159036058Y-81337768D01*
X159201415Y-81448256D01*
X159385151Y-81524362D01*
X159580203Y-81563160D01*
X159779077Y-81563160D01*
X159974129Y-81524362D01*
X160157865Y-81448256D01*
X160323222Y-81337768D01*
X160463848Y-81197142D01*
X160574336Y-81031785D01*
X160608842Y-80948480D01*
X160795077Y-80948480D01*
X160990129Y-80909682D01*
X161173865Y-80833576D01*
X161339222Y-80723088D01*
X161479848Y-80582462D01*
X161590336Y-80417105D01*
X161666442Y-80233369D01*
X161705240Y-80038317D01*
X161705240Y-79839443D01*
X161666442Y-79644391D01*
X161590336Y-79460655D01*
X161479848Y-79295298D01*
X161432240Y-79247690D01*
X161432240Y-76424146D01*
X161435804Y-76387960D01*
X161421582Y-76243561D01*
X161412428Y-76213384D01*
X161379462Y-76104711D01*
X161311064Y-75976747D01*
X161219015Y-75864585D01*
X161190909Y-75841519D01*
X160135430Y-74786040D01*
X162988411Y-74786040D01*
X162988411Y-77986040D01*
X163000181Y-78105542D01*
X163035039Y-78220452D01*
X163091644Y-78326354D01*
X163167822Y-78419178D01*
X163260646Y-78495356D01*
X163366548Y-78551961D01*
X163481458Y-78586819D01*
X163600960Y-78598589D01*
X165600960Y-78598589D01*
X165720462Y-78586819D01*
X165835372Y-78551961D01*
X165941274Y-78495356D01*
X166034098Y-78419178D01*
X166110276Y-78326354D01*
X166166881Y-78220452D01*
X166201739Y-78105542D01*
X166213509Y-77986040D01*
X166213509Y-74786040D01*
X174188411Y-74786040D01*
X174188411Y-77986040D01*
X174200181Y-78105542D01*
X174235039Y-78220452D01*
X174291644Y-78326354D01*
X174367822Y-78419178D01*
X174460646Y-78495356D01*
X174566548Y-78551961D01*
X174681458Y-78586819D01*
X174800960Y-78598589D01*
X176800960Y-78598589D01*
X176920462Y-78586819D01*
X177035372Y-78551961D01*
X177141274Y-78495356D01*
X177234098Y-78419178D01*
X177310276Y-78326354D01*
X177366881Y-78220452D01*
X177401739Y-78105542D01*
X177413509Y-77986040D01*
X177413509Y-74786040D01*
X177401739Y-74666538D01*
X177366881Y-74551628D01*
X177310276Y-74445726D01*
X177234098Y-74352902D01*
X177141274Y-74276724D01*
X177035372Y-74220119D01*
X176920462Y-74185261D01*
X176800960Y-74173491D01*
X174800960Y-74173491D01*
X174681458Y-74185261D01*
X174566548Y-74220119D01*
X174460646Y-74276724D01*
X174367822Y-74352902D01*
X174291644Y-74445726D01*
X174235039Y-74551628D01*
X174200181Y-74666538D01*
X174188411Y-74786040D01*
X166213509Y-74786040D01*
X166201739Y-74666538D01*
X166166881Y-74551628D01*
X166110276Y-74445726D01*
X166034098Y-74352902D01*
X165941274Y-74276724D01*
X165835372Y-74220119D01*
X165720462Y-74185261D01*
X165600960Y-74173491D01*
X163600960Y-74173491D01*
X163481458Y-74185261D01*
X163366548Y-74220119D01*
X163260646Y-74276724D01*
X163167822Y-74352902D01*
X163091644Y-74445726D01*
X163035039Y-74551628D01*
X163000181Y-74666538D01*
X162988411Y-74786040D01*
X160135430Y-74786040D01*
X157326280Y-71976891D01*
X157326280Y-71909563D01*
X157287482Y-71714511D01*
X157211376Y-71530775D01*
X157100888Y-71365418D01*
X156960262Y-71224792D01*
X156794905Y-71114304D01*
X156611169Y-71038198D01*
X156416117Y-70999400D01*
X156217243Y-70999400D01*
X156022191Y-71038198D01*
X155838455Y-71114304D01*
X155673098Y-71224792D01*
X155532472Y-71365418D01*
X155421984Y-71530775D01*
X155345878Y-71714511D01*
X155307080Y-71909563D01*
X155307080Y-72108437D01*
X155337760Y-72262675D01*
X155226058Y-72337312D01*
X155085432Y-72477938D01*
X154974944Y-72643295D01*
X154898838Y-72827031D01*
X154860040Y-73022083D01*
X143865313Y-73022083D01*
X143891522Y-72958809D01*
X143912974Y-72850960D01*
X144102197Y-72850960D01*
X144297249Y-72812162D01*
X144480985Y-72736056D01*
X144646342Y-72625568D01*
X144786968Y-72484942D01*
X144897456Y-72319585D01*
X144973562Y-72135849D01*
X145012360Y-71940797D01*
X145012360Y-71741923D01*
X144973562Y-71546871D01*
X144897456Y-71363135D01*
X144786968Y-71197778D01*
X144646342Y-71057152D01*
X144480985Y-70946664D01*
X144297249Y-70870558D01*
X144102197Y-70831760D01*
X143903323Y-70831760D01*
X143708271Y-70870558D01*
X143524535Y-70946664D01*
X143359178Y-71057152D01*
X143311570Y-71104760D01*
X132605874Y-71104760D01*
X132559408Y-71035218D01*
X132418782Y-70894592D01*
X132322387Y-70830183D01*
X132344009Y-70825882D01*
X132527745Y-70749776D01*
X132693102Y-70639288D01*
X132740710Y-70591680D01*
X139322557Y-70591680D01*
X139369095Y-70622776D01*
X139552831Y-70698882D01*
X139747883Y-70737680D01*
X139946757Y-70737680D01*
X140141809Y-70698882D01*
X140325545Y-70622776D01*
X140490902Y-70512288D01*
X140631528Y-70371662D01*
X140742016Y-70206305D01*
X140818122Y-70022569D01*
X140856920Y-69827517D01*
X140856920Y-69628643D01*
X140818122Y-69433591D01*
X140742016Y-69249855D01*
X140631528Y-69084498D01*
X140490902Y-68943872D01*
X140325545Y-68833384D01*
X140141809Y-68757278D01*
X139946757Y-68718480D01*
X139747883Y-68718480D01*
X139552831Y-68757278D01*
X139369095Y-68833384D01*
X139203738Y-68943872D01*
X139063112Y-69084498D01*
X139040406Y-69118480D01*
X132740710Y-69118480D01*
X132693102Y-69070872D01*
X132527745Y-68960384D01*
X132344009Y-68884278D01*
X132148957Y-68845480D01*
X131950083Y-68845480D01*
X131755031Y-68884278D01*
X131571295Y-68960384D01*
X131405938Y-69070872D01*
X131265312Y-69211498D01*
X131154824Y-69376855D01*
X131078718Y-69560591D01*
X131039920Y-69755643D01*
X131039920Y-69954517D01*
X131078718Y-70149569D01*
X131154824Y-70333305D01*
X131265312Y-70498662D01*
X131405938Y-70639288D01*
X131502333Y-70703697D01*
X131480711Y-70707998D01*
X131296975Y-70784104D01*
X131131618Y-70894592D01*
X130990992Y-71035218D01*
X130880504Y-71200575D01*
X130804398Y-71384311D01*
X130765600Y-71579363D01*
X130765600Y-71745639D01*
X130707695Y-71769624D01*
X130542338Y-71880112D01*
X130401712Y-72020738D01*
X130291224Y-72186095D01*
X130215118Y-72369831D01*
X130179519Y-72548800D01*
X130136523Y-72548800D01*
X129941471Y-72587598D01*
X129757735Y-72663704D01*
X129592378Y-72774192D01*
X129451752Y-72914818D01*
X129341264Y-73080175D01*
X129265158Y-73263911D01*
X129226360Y-73458963D01*
X129226360Y-73657837D01*
X129239926Y-73726040D01*
X118681465Y-73726040D01*
X118645279Y-73722476D01*
X118609093Y-73726040D01*
X118500880Y-73736698D01*
X118362030Y-73778818D01*
X118234066Y-73847216D01*
X118121904Y-73939265D01*
X118098838Y-73967372D01*
X117614732Y-74451478D01*
X117586626Y-74474544D01*
X117563560Y-74502650D01*
X117563558Y-74502652D01*
X117494576Y-74586707D01*
X117457015Y-74656980D01*
X117426179Y-74714670D01*
X117386650Y-74844981D01*
X117384059Y-74853521D01*
X117375795Y-74937418D01*
X117295166Y-74980515D01*
X117072913Y-75162913D01*
X116890515Y-75385166D01*
X116840000Y-75479673D01*
X116789485Y-75385166D01*
X116607087Y-75162913D01*
X116384834Y-74980515D01*
X116131267Y-74844981D01*
X115856132Y-74761519D01*
X115641703Y-74740400D01*
X115498297Y-74740400D01*
X115283868Y-74761519D01*
X115008733Y-74844981D01*
X114755166Y-74980515D01*
X114532913Y-75162913D01*
X114350515Y-75385166D01*
X114300000Y-75479673D01*
X114249485Y-75385166D01*
X114067087Y-75162913D01*
X113844834Y-74980515D01*
X113591267Y-74844981D01*
X113316132Y-74761519D01*
X113101703Y-74740400D01*
X112958297Y-74740400D01*
X112743868Y-74761519D01*
X112468733Y-74844981D01*
X112215166Y-74980515D01*
X111992913Y-75162913D01*
X111939880Y-75227534D01*
X111905921Y-75115588D01*
X111849316Y-75009686D01*
X111773138Y-74916862D01*
X111680314Y-74840684D01*
X111574412Y-74784079D01*
X111459502Y-74749221D01*
X111340000Y-74737451D01*
X109640000Y-74737451D01*
X109520498Y-74749221D01*
X109405588Y-74784079D01*
X109299686Y-74840684D01*
X109206862Y-74916862D01*
X109130684Y-75009686D01*
X109074079Y-75115588D01*
X109039221Y-75230498D01*
X109027451Y-75350000D01*
X88633300Y-75350000D01*
X88633300Y-68881883D01*
X100798680Y-68881883D01*
X100798680Y-69080757D01*
X100837478Y-69275809D01*
X100913584Y-69459545D01*
X101024072Y-69624902D01*
X101164698Y-69765528D01*
X101330055Y-69876016D01*
X101513791Y-69952122D01*
X101601295Y-69969528D01*
X103553594Y-71921827D01*
X103579044Y-71952838D01*
X103702809Y-72054409D01*
X103844011Y-72129883D01*
X103997224Y-72176360D01*
X104116638Y-72188121D01*
X104116640Y-72188121D01*
X104156561Y-72192053D01*
X104196481Y-72188121D01*
X105478804Y-72188121D01*
X105505904Y-72253545D01*
X105616392Y-72418902D01*
X105757018Y-72559528D01*
X105922375Y-72670016D01*
X106106111Y-72746122D01*
X106301163Y-72784920D01*
X106500037Y-72784920D01*
X106695089Y-72746122D01*
X106878825Y-72670016D01*
X107044182Y-72559528D01*
X107184808Y-72418902D01*
X107295296Y-72253545D01*
X107371402Y-72069809D01*
X107410200Y-71874757D01*
X107410200Y-71675883D01*
X107371402Y-71480831D01*
X107295296Y-71297095D01*
X107184808Y-71131738D01*
X107044182Y-70991112D01*
X106878825Y-70880624D01*
X106695089Y-70804518D01*
X106551496Y-70775956D01*
X106454353Y-70696233D01*
X106313151Y-70620759D01*
X106159938Y-70574282D01*
X106040524Y-70562521D01*
X106040521Y-70562521D01*
X106000601Y-70558589D01*
X105960681Y-70562521D01*
X104493234Y-70562521D01*
X103579676Y-69648963D01*
X113280240Y-69648963D01*
X113280240Y-69847837D01*
X113319038Y-70042889D01*
X113395144Y-70226625D01*
X113505632Y-70391982D01*
X113553241Y-70439591D01*
X113553241Y-70581729D01*
X113505632Y-70629338D01*
X113395144Y-70794695D01*
X113319038Y-70978431D01*
X113280240Y-71173483D01*
X113280240Y-71372357D01*
X113319038Y-71567409D01*
X113395144Y-71751145D01*
X113505632Y-71916502D01*
X113646258Y-72057128D01*
X113811615Y-72167616D01*
X113995351Y-72243722D01*
X114190403Y-72282520D01*
X114389277Y-72282520D01*
X114584329Y-72243722D01*
X114768065Y-72167616D01*
X114933422Y-72057128D01*
X115074048Y-71916502D01*
X115184536Y-71751145D01*
X115260642Y-71567409D01*
X115299440Y-71372357D01*
X115299440Y-71173483D01*
X115260642Y-70978431D01*
X115184536Y-70794695D01*
X115074048Y-70629338D01*
X115026440Y-70581730D01*
X115026440Y-70439590D01*
X115074048Y-70391982D01*
X115184536Y-70226625D01*
X115260642Y-70042889D01*
X115295701Y-69866636D01*
X115384203Y-69884240D01*
X115451531Y-69884240D01*
X115964367Y-70397076D01*
X115982057Y-70430173D01*
X115987880Y-70437268D01*
X115987880Y-70518397D01*
X116026678Y-70713449D01*
X116102784Y-70897185D01*
X116213272Y-71062542D01*
X116353898Y-71203168D01*
X116519255Y-71313656D01*
X116702991Y-71389762D01*
X116898043Y-71428560D01*
X117096917Y-71428560D01*
X117291969Y-71389762D01*
X117475705Y-71313656D01*
X117641062Y-71203168D01*
X117781688Y-71062542D01*
X117892176Y-70897185D01*
X117968282Y-70713449D01*
X118007080Y-70518397D01*
X118007080Y-70319523D01*
X117968282Y-70124471D01*
X117892176Y-69940735D01*
X117781688Y-69775378D01*
X117641062Y-69634752D01*
X117475705Y-69524264D01*
X117291969Y-69448158D01*
X117096917Y-69409360D01*
X117060070Y-69409360D01*
X116493240Y-68842531D01*
X116493240Y-68775203D01*
X116454442Y-68580151D01*
X116378336Y-68396415D01*
X116267848Y-68231058D01*
X116127222Y-68090432D01*
X115961865Y-67979944D01*
X115778129Y-67903838D01*
X115583077Y-67865040D01*
X115384203Y-67865040D01*
X115189151Y-67903838D01*
X115005415Y-67979944D01*
X114840058Y-68090432D01*
X114699432Y-68231058D01*
X114588944Y-68396415D01*
X114512838Y-68580151D01*
X114477779Y-68756404D01*
X114389277Y-68738800D01*
X114190403Y-68738800D01*
X113995351Y-68777598D01*
X113811615Y-68853704D01*
X113646258Y-68964192D01*
X113505632Y-69104818D01*
X113395144Y-69270175D01*
X113319038Y-69453911D01*
X113280240Y-69648963D01*
X103579676Y-69648963D01*
X102817880Y-68887168D01*
X102817880Y-68881883D01*
X102779082Y-68686831D01*
X102702976Y-68503095D01*
X102592488Y-68337738D01*
X102451862Y-68197112D01*
X102286505Y-68086624D01*
X102102769Y-68010518D01*
X101907717Y-67971720D01*
X101708843Y-67971720D01*
X101513791Y-68010518D01*
X101330055Y-68086624D01*
X101164698Y-68197112D01*
X101024072Y-68337738D01*
X100913584Y-68503095D01*
X100837478Y-68686831D01*
X100798680Y-68881883D01*
X88633300Y-68881883D01*
X88633300Y-65190000D01*
X100137451Y-65190000D01*
X100137451Y-66890000D01*
X100149221Y-67009502D01*
X100184079Y-67124412D01*
X100240684Y-67230314D01*
X100316862Y-67323138D01*
X100409686Y-67399316D01*
X100515588Y-67455921D01*
X100630498Y-67490779D01*
X100750000Y-67502549D01*
X102450000Y-67502549D01*
X102569502Y-67490779D01*
X102684412Y-67455921D01*
X102790314Y-67399316D01*
X102883138Y-67323138D01*
X102959316Y-67230314D01*
X103015921Y-67124412D01*
X103049880Y-67012466D01*
X103102913Y-67077087D01*
X103325166Y-67259485D01*
X103578733Y-67395019D01*
X103853868Y-67478481D01*
X104068297Y-67499600D01*
X104211703Y-67499600D01*
X104426132Y-67478481D01*
X104701267Y-67395019D01*
X104954834Y-67259485D01*
X105177087Y-67077087D01*
X105253884Y-66983509D01*
X105274569Y-67020408D01*
X105492842Y-67275756D01*
X105756737Y-67483614D01*
X106056112Y-67635995D01*
X106312056Y-67713631D01*
X106578400Y-67534250D01*
X106578400Y-66141600D01*
X106781600Y-66141600D01*
X106781600Y-67534250D01*
X107047944Y-67713631D01*
X107303888Y-67635995D01*
X107603263Y-67483614D01*
X107867158Y-67275756D01*
X107950000Y-67178843D01*
X108032842Y-67275756D01*
X108296737Y-67483614D01*
X108596112Y-67635995D01*
X108852056Y-67713631D01*
X109118400Y-67534250D01*
X109118400Y-66141600D01*
X106781600Y-66141600D01*
X106578400Y-66141600D01*
X106558400Y-66141600D01*
X106558400Y-65938400D01*
X106578400Y-65938400D01*
X106578400Y-64545750D01*
X106781600Y-64545750D01*
X106781600Y-65938400D01*
X109118400Y-65938400D01*
X109118400Y-64545750D01*
X109321600Y-64545750D01*
X109321600Y-65938400D01*
X109341600Y-65938400D01*
X109341600Y-66141600D01*
X109321600Y-66141600D01*
X109321600Y-67534250D01*
X109587944Y-67713631D01*
X109843888Y-67635995D01*
X110143263Y-67483614D01*
X110407158Y-67275756D01*
X110625431Y-67020408D01*
X110646116Y-66983509D01*
X110722913Y-67077087D01*
X110945166Y-67259485D01*
X111198733Y-67395019D01*
X111473868Y-67478481D01*
X111688297Y-67499600D01*
X111831703Y-67499600D01*
X112046132Y-67478481D01*
X112321267Y-67395019D01*
X112574834Y-67259485D01*
X112797087Y-67077087D01*
X112979485Y-66854834D01*
X113030000Y-66760327D01*
X113080515Y-66854834D01*
X113262913Y-67077087D01*
X113485166Y-67259485D01*
X113738733Y-67395019D01*
X114013868Y-67478481D01*
X114228297Y-67499600D01*
X114371703Y-67499600D01*
X114586132Y-67478481D01*
X114861267Y-67395019D01*
X115114834Y-67259485D01*
X115337087Y-67077087D01*
X115519485Y-66854834D01*
X115570000Y-66760327D01*
X115620515Y-66854834D01*
X115802913Y-67077087D01*
X116025166Y-67259485D01*
X116278733Y-67395019D01*
X116553868Y-67478481D01*
X116768297Y-67499600D01*
X116911703Y-67499600D01*
X117126132Y-67478481D01*
X117401267Y-67395019D01*
X117654834Y-67259485D01*
X117877087Y-67077087D01*
X118059485Y-66854834D01*
X118110000Y-66760327D01*
X118160515Y-66854834D01*
X118342913Y-67077087D01*
X118565166Y-67259485D01*
X118818733Y-67395019D01*
X119093868Y-67478481D01*
X119308297Y-67499600D01*
X119451703Y-67499600D01*
X119666132Y-67478481D01*
X119941267Y-67395019D01*
X120194834Y-67259485D01*
X120417087Y-67077087D01*
X120599485Y-66854834D01*
X120650000Y-66760327D01*
X120700515Y-66854834D01*
X120882913Y-67077087D01*
X121105166Y-67259485D01*
X121358733Y-67395019D01*
X121633868Y-67478481D01*
X121848297Y-67499600D01*
X121991703Y-67499600D01*
X122206132Y-67478481D01*
X122481267Y-67395019D01*
X122734834Y-67259485D01*
X122957087Y-67077087D01*
X123139485Y-66854834D01*
X123190000Y-66760327D01*
X123240515Y-66854834D01*
X123422913Y-67077087D01*
X123645166Y-67259485D01*
X123898733Y-67395019D01*
X124173868Y-67478481D01*
X124388297Y-67499600D01*
X124531703Y-67499600D01*
X124746132Y-67478481D01*
X125021267Y-67395019D01*
X125274834Y-67259485D01*
X125497087Y-67077087D01*
X125679485Y-66854834D01*
X125730000Y-66760327D01*
X125780515Y-66854834D01*
X125962913Y-67077087D01*
X126185166Y-67259485D01*
X126438733Y-67395019D01*
X126713868Y-67478481D01*
X126928297Y-67499600D01*
X127071703Y-67499600D01*
X127286132Y-67478481D01*
X127561267Y-67395019D01*
X127814834Y-67259485D01*
X128037087Y-67077087D01*
X128219485Y-66854834D01*
X128270000Y-66760327D01*
X128320515Y-66854834D01*
X128502913Y-67077087D01*
X128725166Y-67259485D01*
X128978733Y-67395019D01*
X129253868Y-67478481D01*
X129468297Y-67499600D01*
X129611703Y-67499600D01*
X129826132Y-67478481D01*
X130101267Y-67395019D01*
X130354834Y-67259485D01*
X130577087Y-67077087D01*
X130759485Y-66854834D01*
X130795871Y-66786760D01*
X137886130Y-66786760D01*
X137989618Y-66890248D01*
X138154975Y-67000736D01*
X138338711Y-67076842D01*
X138533763Y-67115640D01*
X138732637Y-67115640D01*
X138927689Y-67076842D01*
X139111425Y-67000736D01*
X139276782Y-66890248D01*
X139417408Y-66749622D01*
X139527896Y-66584265D01*
X139604002Y-66400529D01*
X139642800Y-66205477D01*
X139642800Y-66006603D01*
X139604002Y-65811551D01*
X139527896Y-65627815D01*
X139417408Y-65462458D01*
X139276782Y-65321832D01*
X139203580Y-65272920D01*
X141304657Y-65272920D01*
X141340840Y-65276484D01*
X141377023Y-65272920D01*
X141377026Y-65272920D01*
X141485239Y-65262262D01*
X141624089Y-65220142D01*
X141752053Y-65151744D01*
X141864215Y-65059695D01*
X141887285Y-65031584D01*
X143419836Y-63499033D01*
X143484751Y-63525922D01*
X143679803Y-63564720D01*
X143878677Y-63564720D01*
X144073729Y-63525922D01*
X144257465Y-63449816D01*
X144422822Y-63339328D01*
X144563448Y-63198702D01*
X144673936Y-63033345D01*
X144750042Y-62849609D01*
X144788840Y-62654557D01*
X144788840Y-62455683D01*
X144750042Y-62260631D01*
X144673936Y-62076895D01*
X144563448Y-61911538D01*
X144422822Y-61770912D01*
X144257465Y-61660424D01*
X144073729Y-61584318D01*
X143878677Y-61545520D01*
X143814342Y-61545520D01*
X143744296Y-61376415D01*
X143633808Y-61211058D01*
X143493182Y-61070432D01*
X143327825Y-60959944D01*
X143144089Y-60883838D01*
X142949037Y-60845040D01*
X142885594Y-60845040D01*
X142855296Y-60771895D01*
X142744808Y-60606538D01*
X142604182Y-60465912D01*
X142438825Y-60355424D01*
X142255089Y-60279318D01*
X142089579Y-60246396D01*
X142077962Y-60187991D01*
X142001856Y-60004255D01*
X141891368Y-59838898D01*
X141750742Y-59698272D01*
X141585385Y-59587784D01*
X141401649Y-59511678D01*
X141206597Y-59472880D01*
X141007723Y-59472880D01*
X140911418Y-59492036D01*
X140879082Y-59329471D01*
X140802976Y-59145735D01*
X140692488Y-58980378D01*
X140551862Y-58839752D01*
X140386505Y-58729264D01*
X140202769Y-58653158D01*
X140007717Y-58614360D01*
X139987172Y-58614360D01*
X139969762Y-58526831D01*
X139893656Y-58343095D01*
X139783168Y-58177738D01*
X139642542Y-58037112D01*
X139477185Y-57926624D01*
X139293449Y-57850518D01*
X139098397Y-57811720D01*
X138899523Y-57811720D01*
X138704471Y-57850518D01*
X138520735Y-57926624D01*
X138355378Y-58037112D01*
X138307770Y-58084720D01*
X132867710Y-58084720D01*
X132820102Y-58037112D01*
X132654745Y-57926624D01*
X132471009Y-57850518D01*
X132275957Y-57811720D01*
X132077083Y-57811720D01*
X131882031Y-57850518D01*
X131698295Y-57926624D01*
X131532938Y-58037112D01*
X131392312Y-58177738D01*
X131281824Y-58343095D01*
X131205718Y-58526831D01*
X131166920Y-58721883D01*
X131166920Y-58920757D01*
X131205718Y-59115809D01*
X131281824Y-59299545D01*
X131392312Y-59464902D01*
X131532938Y-59605528D01*
X131698295Y-59716016D01*
X131770393Y-59745880D01*
X131211630Y-59745880D01*
X131164022Y-59698272D01*
X130998665Y-59587784D01*
X130814929Y-59511678D01*
X130619877Y-59472880D01*
X130421003Y-59472880D01*
X130225951Y-59511678D01*
X130042215Y-59587784D01*
X129876858Y-59698272D01*
X129736232Y-59838898D01*
X129625744Y-60004255D01*
X129549638Y-60187991D01*
X129510840Y-60383043D01*
X129510840Y-60581917D01*
X129549638Y-60776969D01*
X129625744Y-60960705D01*
X129736232Y-61126062D01*
X129876858Y-61266688D01*
X130042215Y-61377176D01*
X130225951Y-61453282D01*
X130421003Y-61492080D01*
X130619877Y-61492080D01*
X130814080Y-61453451D01*
X130630571Y-61636960D01*
X130568323Y-61636960D01*
X130373271Y-61675758D01*
X130189535Y-61751864D01*
X130024178Y-61862352D01*
X129883552Y-62002978D01*
X129773064Y-62168335D01*
X129696958Y-62352071D01*
X129658160Y-62547123D01*
X129658160Y-62745997D01*
X129696958Y-62941049D01*
X129772947Y-63124503D01*
X129639712Y-63257738D01*
X129529224Y-63423095D01*
X129453118Y-63606831D01*
X129414320Y-63801883D01*
X129414320Y-64000757D01*
X129453118Y-64195809D01*
X129529224Y-64379545D01*
X129639712Y-64544902D01*
X129682148Y-64587338D01*
X129611703Y-64580400D01*
X129468297Y-64580400D01*
X129253868Y-64601519D01*
X128978733Y-64684981D01*
X128725166Y-64820515D01*
X128502913Y-65002913D01*
X128320515Y-65225166D01*
X128270000Y-65319673D01*
X128219485Y-65225166D01*
X128037087Y-65002913D01*
X127814834Y-64820515D01*
X127561267Y-64684981D01*
X127286132Y-64601519D01*
X127071703Y-64580400D01*
X126928297Y-64580400D01*
X126713868Y-64601519D01*
X126438733Y-64684981D01*
X126185166Y-64820515D01*
X125962913Y-65002913D01*
X125780515Y-65225166D01*
X125730000Y-65319673D01*
X125679485Y-65225166D01*
X125497087Y-65002913D01*
X125274834Y-64820515D01*
X125021267Y-64684981D01*
X124746132Y-64601519D01*
X124531703Y-64580400D01*
X124388297Y-64580400D01*
X124173868Y-64601519D01*
X123898733Y-64684981D01*
X123645166Y-64820515D01*
X123422913Y-65002913D01*
X123240515Y-65225166D01*
X123190000Y-65319673D01*
X123139485Y-65225166D01*
X122957087Y-65002913D01*
X122734834Y-64820515D01*
X122481267Y-64684981D01*
X122206132Y-64601519D01*
X121991703Y-64580400D01*
X121848297Y-64580400D01*
X121633868Y-64601519D01*
X121358733Y-64684981D01*
X121105166Y-64820515D01*
X120882913Y-65002913D01*
X120700515Y-65225166D01*
X120650000Y-65319673D01*
X120599485Y-65225166D01*
X120417087Y-65002913D01*
X120194834Y-64820515D01*
X119941267Y-64684981D01*
X119666132Y-64601519D01*
X119451703Y-64580400D01*
X119308297Y-64580400D01*
X119093868Y-64601519D01*
X118818733Y-64684981D01*
X118565166Y-64820515D01*
X118342913Y-65002913D01*
X118160515Y-65225166D01*
X118110000Y-65319673D01*
X118059485Y-65225166D01*
X117877087Y-65002913D01*
X117654834Y-64820515D01*
X117401267Y-64684981D01*
X117126132Y-64601519D01*
X116911703Y-64580400D01*
X116811469Y-64580400D01*
X118383234Y-63008636D01*
X118409198Y-63139169D01*
X118485304Y-63322905D01*
X118595792Y-63488262D01*
X118736418Y-63628888D01*
X118901775Y-63739376D01*
X119085511Y-63815482D01*
X119280563Y-63854280D01*
X119479437Y-63854280D01*
X119674489Y-63815482D01*
X119858225Y-63739376D01*
X120023582Y-63628888D01*
X120164208Y-63488262D01*
X120274696Y-63322905D01*
X120350802Y-63139169D01*
X120389600Y-62944117D01*
X120389600Y-62745243D01*
X120350802Y-62550191D01*
X120274696Y-62366455D01*
X120164208Y-62201098D01*
X120121680Y-62158570D01*
X120121680Y-61595310D01*
X120169288Y-61547702D01*
X120279776Y-61382345D01*
X120355882Y-61198609D01*
X120394680Y-61003557D01*
X120394680Y-60804683D01*
X120355882Y-60609631D01*
X120279776Y-60425895D01*
X120169288Y-60260538D01*
X120028662Y-60119912D01*
X119863305Y-60009424D01*
X119679569Y-59933318D01*
X119484517Y-59894520D01*
X119285643Y-59894520D01*
X119221200Y-59907338D01*
X119221200Y-59880123D01*
X119182402Y-59685071D01*
X119106296Y-59501335D01*
X118995808Y-59335978D01*
X118855182Y-59195352D01*
X118689825Y-59084864D01*
X118506089Y-59008758D01*
X118311037Y-58969960D01*
X118112163Y-58969960D01*
X117917111Y-59008758D01*
X117733375Y-59084864D01*
X117568018Y-59195352D01*
X117427392Y-59335978D01*
X117316904Y-59501335D01*
X117269699Y-59615297D01*
X117215769Y-59592958D01*
X117020717Y-59554160D01*
X116821843Y-59554160D01*
X116626791Y-59592958D01*
X116443055Y-59669064D01*
X116277698Y-59779552D01*
X116137072Y-59920178D01*
X116026584Y-60085535D01*
X115950478Y-60269271D01*
X115911680Y-60464323D01*
X115911680Y-60663197D01*
X115950478Y-60858249D01*
X116026584Y-61041985D01*
X116137072Y-61207342D01*
X116184681Y-61254951D01*
X116184680Y-61772490D01*
X114406371Y-63550800D01*
X113548786Y-63550800D01*
X113512600Y-63547236D01*
X113476414Y-63550800D01*
X113368201Y-63561458D01*
X113229351Y-63603578D01*
X113101387Y-63671976D01*
X112989225Y-63764025D01*
X112966159Y-63792131D01*
X112131021Y-64627270D01*
X112046132Y-64601519D01*
X111831703Y-64580400D01*
X111688297Y-64580400D01*
X111473868Y-64601519D01*
X111198733Y-64684981D01*
X110945166Y-64820515D01*
X110722913Y-65002913D01*
X110646116Y-65096491D01*
X110625431Y-65059592D01*
X110407158Y-64804244D01*
X110143263Y-64596386D01*
X109843888Y-64444005D01*
X109587944Y-64366369D01*
X109321600Y-64545750D01*
X109118400Y-64545750D01*
X108852056Y-64366369D01*
X108596112Y-64444005D01*
X108296737Y-64596386D01*
X108032842Y-64804244D01*
X107950000Y-64901157D01*
X107867158Y-64804244D01*
X107603263Y-64596386D01*
X107303888Y-64444005D01*
X107047944Y-64366369D01*
X106781600Y-64545750D01*
X106578400Y-64545750D01*
X106312056Y-64366369D01*
X106056112Y-64444005D01*
X105756737Y-64596386D01*
X105492842Y-64804244D01*
X105274569Y-65059592D01*
X105253884Y-65096491D01*
X105177087Y-65002913D01*
X104954834Y-64820515D01*
X104701267Y-64684981D01*
X104426132Y-64601519D01*
X104211703Y-64580400D01*
X104068297Y-64580400D01*
X103853868Y-64601519D01*
X103578733Y-64684981D01*
X103325166Y-64820515D01*
X103102913Y-65002913D01*
X103049880Y-65067534D01*
X103015921Y-64955588D01*
X102959316Y-64849686D01*
X102883138Y-64756862D01*
X102790314Y-64680684D01*
X102684412Y-64624079D01*
X102569502Y-64589221D01*
X102450000Y-64577451D01*
X100750000Y-64577451D01*
X100630498Y-64589221D01*
X100515588Y-64624079D01*
X100409686Y-64680684D01*
X100316862Y-64756862D01*
X100240684Y-64849686D01*
X100184079Y-64955588D01*
X100149221Y-65070498D01*
X100137451Y-65190000D01*
X88633300Y-65190000D01*
X88633300Y-62491243D01*
X109409280Y-62491243D01*
X109409280Y-62690117D01*
X109448078Y-62885169D01*
X109524184Y-63068905D01*
X109634672Y-63234262D01*
X109775298Y-63374888D01*
X109940655Y-63485376D01*
X110124391Y-63561482D01*
X110319443Y-63600280D01*
X110518317Y-63600280D01*
X110713369Y-63561482D01*
X110897105Y-63485376D01*
X111062462Y-63374888D01*
X111203088Y-63234262D01*
X111313576Y-63068905D01*
X111388960Y-62886912D01*
X116882032Y-57393840D01*
X117966409Y-57393840D01*
X118088975Y-57475736D01*
X118272711Y-57551842D01*
X118467763Y-57590640D01*
X118666637Y-57590640D01*
X118861689Y-57551842D01*
X119045425Y-57475736D01*
X119210782Y-57365248D01*
X119351408Y-57224622D01*
X119461896Y-57059265D01*
X119538002Y-56875529D01*
X119576800Y-56680477D01*
X119576800Y-56481603D01*
X119566696Y-56430803D01*
X132304840Y-56430803D01*
X132304840Y-56629677D01*
X132343638Y-56824729D01*
X132419744Y-57008465D01*
X132530232Y-57173822D01*
X132670858Y-57314448D01*
X132836215Y-57424936D01*
X133019951Y-57501042D01*
X133215003Y-57539840D01*
X133413877Y-57539840D01*
X133608929Y-57501042D01*
X133792665Y-57424936D01*
X133915231Y-57343040D01*
X139378609Y-57343040D01*
X139501175Y-57424936D01*
X139684911Y-57501042D01*
X139879963Y-57539840D01*
X140078837Y-57539840D01*
X140273889Y-57501042D01*
X140457625Y-57424936D01*
X140622982Y-57314448D01*
X140763608Y-57173822D01*
X140874096Y-57008465D01*
X140950202Y-56824729D01*
X140989000Y-56629677D01*
X140989000Y-56430803D01*
X140950202Y-56235751D01*
X140874096Y-56052015D01*
X140763608Y-55886658D01*
X140622982Y-55746032D01*
X140457625Y-55635544D01*
X140273889Y-55559438D01*
X140078837Y-55520640D01*
X139879963Y-55520640D01*
X139684911Y-55559438D01*
X139501175Y-55635544D01*
X139378609Y-55717440D01*
X133915231Y-55717440D01*
X133792665Y-55635544D01*
X133608929Y-55559438D01*
X133413877Y-55520640D01*
X133215003Y-55520640D01*
X133019951Y-55559438D01*
X132836215Y-55635544D01*
X132670858Y-55746032D01*
X132530232Y-55886658D01*
X132419744Y-56052015D01*
X132343638Y-56235751D01*
X132304840Y-56430803D01*
X119566696Y-56430803D01*
X119538002Y-56286551D01*
X119461896Y-56102815D01*
X119351408Y-55937458D01*
X119210782Y-55796832D01*
X119045425Y-55686344D01*
X118861689Y-55610238D01*
X118666637Y-55571440D01*
X118467763Y-55571440D01*
X118272711Y-55610238D01*
X118088975Y-55686344D01*
X117966409Y-55768240D01*
X116585280Y-55768240D01*
X116545359Y-55764308D01*
X116505439Y-55768240D01*
X116505437Y-55768240D01*
X116386023Y-55780001D01*
X116232810Y-55826478D01*
X116140792Y-55875663D01*
X116091607Y-55901952D01*
X116069599Y-55920014D01*
X115967843Y-56003523D01*
X115942388Y-56034540D01*
X110395848Y-61581080D01*
X110319443Y-61581080D01*
X110124391Y-61619878D01*
X109940655Y-61695984D01*
X109775298Y-61806472D01*
X109634672Y-61947098D01*
X109524184Y-62112455D01*
X109448078Y-62296191D01*
X109409280Y-62491243D01*
X88633300Y-62491243D01*
X88633300Y-51648803D01*
X88663822Y-51694482D01*
X89275518Y-52306178D01*
X89994797Y-52786785D01*
X90794018Y-53117833D01*
X91642465Y-53286600D01*
X92507535Y-53286600D01*
X93355982Y-53117833D01*
X94155203Y-52786785D01*
X94874482Y-52306178D01*
X95486178Y-51694482D01*
X95966785Y-50975203D01*
X96297833Y-50175982D01*
X96342783Y-49950000D01*
X100137451Y-49950000D01*
X100137451Y-51650000D01*
X100149221Y-51769502D01*
X100184079Y-51884412D01*
X100240684Y-51990314D01*
X100316862Y-52083138D01*
X100409686Y-52159316D01*
X100515588Y-52215921D01*
X100630498Y-52250779D01*
X100750000Y-52262549D01*
X102450000Y-52262549D01*
X102569502Y-52250779D01*
X102684412Y-52215921D01*
X102790314Y-52159316D01*
X102883138Y-52083138D01*
X102937119Y-52017362D01*
X102952842Y-52035756D01*
X103216737Y-52243614D01*
X103516112Y-52395995D01*
X103772056Y-52473631D01*
X104038400Y-52294250D01*
X104038400Y-50901600D01*
X104018400Y-50901600D01*
X104018400Y-50698400D01*
X104038400Y-50698400D01*
X104038400Y-49305750D01*
X104241600Y-49305750D01*
X104241600Y-50698400D01*
X104261600Y-50698400D01*
X104261600Y-50901600D01*
X104241600Y-50901600D01*
X104241600Y-52294250D01*
X104507944Y-52473631D01*
X104763888Y-52395995D01*
X105063263Y-52243614D01*
X105327158Y-52035756D01*
X105545431Y-51780408D01*
X105566116Y-51743509D01*
X105642913Y-51837087D01*
X105865166Y-52019485D01*
X106118733Y-52155019D01*
X106393868Y-52238481D01*
X106608297Y-52259600D01*
X106751703Y-52259600D01*
X106966132Y-52238481D01*
X107241267Y-52155019D01*
X107494834Y-52019485D01*
X107717087Y-51837087D01*
X107899485Y-51614834D01*
X107950000Y-51520327D01*
X108000515Y-51614834D01*
X108182913Y-51837087D01*
X108405166Y-52019485D01*
X108658733Y-52155019D01*
X108933868Y-52238481D01*
X109148297Y-52259600D01*
X109291703Y-52259600D01*
X109506132Y-52238481D01*
X109781267Y-52155019D01*
X110034834Y-52019485D01*
X110257087Y-51837087D01*
X110439485Y-51614834D01*
X110490000Y-51520327D01*
X110540515Y-51614834D01*
X110722913Y-51837087D01*
X110945166Y-52019485D01*
X111198733Y-52155019D01*
X111473868Y-52238481D01*
X111688297Y-52259600D01*
X111831703Y-52259600D01*
X112046132Y-52238481D01*
X112321267Y-52155019D01*
X112574834Y-52019485D01*
X112797087Y-51837087D01*
X112979485Y-51614834D01*
X113030000Y-51520327D01*
X113080515Y-51614834D01*
X113262913Y-51837087D01*
X113485166Y-52019485D01*
X113738733Y-52155019D01*
X114013868Y-52238481D01*
X114228297Y-52259600D01*
X114371703Y-52259600D01*
X114586132Y-52238481D01*
X114861267Y-52155019D01*
X115114834Y-52019485D01*
X115337087Y-51837087D01*
X115519485Y-51614834D01*
X115570000Y-51520327D01*
X115620515Y-51614834D01*
X115802913Y-51837087D01*
X116025166Y-52019485D01*
X116278733Y-52155019D01*
X116553868Y-52238481D01*
X116768297Y-52259600D01*
X116911703Y-52259600D01*
X117126132Y-52238481D01*
X117401267Y-52155019D01*
X117654834Y-52019485D01*
X117877087Y-51837087D01*
X118059485Y-51614834D01*
X118110000Y-51520327D01*
X118160515Y-51614834D01*
X118342913Y-51837087D01*
X118565166Y-52019485D01*
X118818733Y-52155019D01*
X119093868Y-52238481D01*
X119308297Y-52259600D01*
X119451703Y-52259600D01*
X119666132Y-52238481D01*
X119941267Y-52155019D01*
X120194834Y-52019485D01*
X120417087Y-51837087D01*
X120599485Y-51614834D01*
X120650000Y-51520327D01*
X120700515Y-51614834D01*
X120882913Y-51837087D01*
X121105166Y-52019485D01*
X121358733Y-52155019D01*
X121633868Y-52238481D01*
X121848297Y-52259600D01*
X121991703Y-52259600D01*
X122206132Y-52238481D01*
X122481267Y-52155019D01*
X122734834Y-52019485D01*
X122957087Y-51837087D01*
X123139485Y-51614834D01*
X123190000Y-51520327D01*
X123240515Y-51614834D01*
X123422913Y-51837087D01*
X123645166Y-52019485D01*
X123898733Y-52155019D01*
X124173868Y-52238481D01*
X124388297Y-52259600D01*
X124531703Y-52259600D01*
X124746132Y-52238481D01*
X125021267Y-52155019D01*
X125274834Y-52019485D01*
X125497087Y-51837087D01*
X125679485Y-51614834D01*
X125730000Y-51520327D01*
X125780515Y-51614834D01*
X125962913Y-51837087D01*
X126185166Y-52019485D01*
X126438733Y-52155019D01*
X126713868Y-52238481D01*
X126928297Y-52259600D01*
X127071703Y-52259600D01*
X127286132Y-52238481D01*
X127561267Y-52155019D01*
X127814834Y-52019485D01*
X128037087Y-51837087D01*
X128219485Y-51614834D01*
X128270000Y-51520327D01*
X128320515Y-51614834D01*
X128502913Y-51837087D01*
X128725166Y-52019485D01*
X128978733Y-52155019D01*
X129253868Y-52238481D01*
X129468297Y-52259600D01*
X129611703Y-52259600D01*
X129826132Y-52238481D01*
X129911021Y-52212730D01*
X131823119Y-54124829D01*
X131846185Y-54152935D01*
X131874291Y-54176001D01*
X131874292Y-54176002D01*
X131884462Y-54184348D01*
X131958347Y-54244984D01*
X132086311Y-54313382D01*
X132225161Y-54355502D01*
X132333374Y-54366160D01*
X132333383Y-54366160D01*
X132369559Y-54369723D01*
X132405735Y-54366160D01*
X137103810Y-54366160D01*
X137151418Y-54413768D01*
X137316775Y-54524256D01*
X137500511Y-54600362D01*
X137695563Y-54639160D01*
X137894437Y-54639160D01*
X138089489Y-54600362D01*
X138273225Y-54524256D01*
X138438582Y-54413768D01*
X138579208Y-54273142D01*
X138689696Y-54107785D01*
X138765802Y-53924049D01*
X138804600Y-53728997D01*
X138804600Y-53530123D01*
X138765802Y-53335071D01*
X138689696Y-53151335D01*
X138579208Y-52985978D01*
X138438582Y-52845352D01*
X138273225Y-52734864D01*
X138089489Y-52658758D01*
X137894437Y-52619960D01*
X137695563Y-52619960D01*
X137500511Y-52658758D01*
X137316775Y-52734864D01*
X137151418Y-52845352D01*
X137103810Y-52892960D01*
X132674670Y-52892960D01*
X132326313Y-52544603D01*
X139274600Y-52544603D01*
X139274600Y-52743477D01*
X139313398Y-52938529D01*
X139389504Y-53122265D01*
X139499992Y-53287622D01*
X139640618Y-53428248D01*
X139805975Y-53538736D01*
X139989711Y-53614842D01*
X140184763Y-53653640D01*
X140383637Y-53653640D01*
X140578689Y-53614842D01*
X140647394Y-53586383D01*
X140631218Y-53597192D01*
X140490592Y-53737818D01*
X140380104Y-53903175D01*
X140303998Y-54086911D01*
X140265200Y-54281963D01*
X140265200Y-54480837D01*
X140303998Y-54675889D01*
X140380104Y-54859625D01*
X140490592Y-55024982D01*
X140631218Y-55165608D01*
X140796575Y-55276096D01*
X140980311Y-55352202D01*
X141175363Y-55391000D01*
X141181731Y-55391000D01*
X145300354Y-59509623D01*
X145323425Y-59537735D01*
X145435587Y-59629784D01*
X145563551Y-59698182D01*
X145702401Y-59740302D01*
X145810614Y-59750960D01*
X145810623Y-59750960D01*
X145846799Y-59754523D01*
X145882975Y-59750960D01*
X154939691Y-59750960D01*
X159852361Y-64663631D01*
X159852360Y-71302570D01*
X159804752Y-71350178D01*
X159694264Y-71515535D01*
X159618158Y-71699271D01*
X159579360Y-71894323D01*
X159579360Y-72093197D01*
X159618158Y-72288249D01*
X159694264Y-72471985D01*
X159804752Y-72637342D01*
X159945378Y-72777968D01*
X160110735Y-72888456D01*
X160294471Y-72964562D01*
X160489523Y-73003360D01*
X160688397Y-73003360D01*
X160883449Y-72964562D01*
X161067185Y-72888456D01*
X161232542Y-72777968D01*
X161373168Y-72637342D01*
X161483656Y-72471985D01*
X161559762Y-72288249D01*
X161598560Y-72093197D01*
X161598560Y-71894323D01*
X161559762Y-71699271D01*
X161483656Y-71515535D01*
X161373168Y-71350178D01*
X161325560Y-71302570D01*
X161325560Y-70627153D01*
X166603531Y-70627153D01*
X166684081Y-70958507D01*
X167010393Y-71126676D01*
X167363244Y-71227953D01*
X167729072Y-71258447D01*
X168093821Y-71216985D01*
X168443472Y-71105161D01*
X168717839Y-70958507D01*
X168798389Y-70627153D01*
X167700960Y-69529724D01*
X166603531Y-70627153D01*
X161325560Y-70627153D01*
X161325560Y-69414152D01*
X165828553Y-69414152D01*
X165870015Y-69778901D01*
X165981839Y-70128552D01*
X166128493Y-70402919D01*
X166459847Y-70483469D01*
X167557276Y-69386040D01*
X167844644Y-69386040D01*
X168942073Y-70483469D01*
X169273427Y-70402919D01*
X169441596Y-70076607D01*
X169542873Y-69723756D01*
X169573367Y-69357928D01*
X169558542Y-69227508D01*
X171091360Y-69227508D01*
X171091360Y-69544572D01*
X171153216Y-69855543D01*
X171274551Y-70148471D01*
X171450702Y-70412100D01*
X171674900Y-70636298D01*
X171938529Y-70812449D01*
X172231457Y-70933784D01*
X172542428Y-70995640D01*
X172859492Y-70995640D01*
X173170463Y-70933784D01*
X173463391Y-70812449D01*
X173727020Y-70636298D01*
X173951218Y-70412100D01*
X174127369Y-70148471D01*
X174248704Y-69855543D01*
X174310560Y-69544572D01*
X174310560Y-69227508D01*
X174248704Y-68916537D01*
X174127369Y-68623609D01*
X173951218Y-68359980D01*
X173727020Y-68135782D01*
X173463391Y-67959631D01*
X173170463Y-67838296D01*
X172859492Y-67776440D01*
X172542428Y-67776440D01*
X172231457Y-67838296D01*
X171938529Y-67959631D01*
X171674900Y-68135782D01*
X171450702Y-68359980D01*
X171274551Y-68623609D01*
X171153216Y-68916537D01*
X171091360Y-69227508D01*
X169558542Y-69227508D01*
X169531905Y-68993179D01*
X169420081Y-68643528D01*
X169273427Y-68369161D01*
X168942073Y-68288611D01*
X167844644Y-69386040D01*
X167557276Y-69386040D01*
X166459847Y-68288611D01*
X166128493Y-68369161D01*
X165960324Y-68695473D01*
X165859047Y-69048324D01*
X165828553Y-69414152D01*
X161325560Y-69414152D01*
X161325560Y-68144927D01*
X166603531Y-68144927D01*
X167700960Y-69242356D01*
X168798389Y-68144927D01*
X168717839Y-67813573D01*
X168391527Y-67645404D01*
X168038676Y-67544127D01*
X167672848Y-67513633D01*
X167308099Y-67555095D01*
X166958448Y-67666919D01*
X166684081Y-67813573D01*
X166603531Y-68144927D01*
X161325560Y-68144927D01*
X161325560Y-64394706D01*
X161329124Y-64358520D01*
X161314902Y-64214121D01*
X161287900Y-64125107D01*
X161272782Y-64075271D01*
X161204384Y-63947307D01*
X161182709Y-63920896D01*
X161135402Y-63863252D01*
X161135401Y-63863251D01*
X161112335Y-63835145D01*
X161084229Y-63812079D01*
X155791246Y-58519097D01*
X155768175Y-58490985D01*
X155656013Y-58398936D01*
X155528049Y-58330538D01*
X155389199Y-58288418D01*
X155280986Y-58277760D01*
X155280983Y-58277760D01*
X155244800Y-58274196D01*
X155208617Y-58277760D01*
X146482110Y-58277760D01*
X146554808Y-58205062D01*
X146665296Y-58039705D01*
X146741402Y-57855969D01*
X146780200Y-57660917D01*
X146780200Y-57632636D01*
X146798923Y-57636360D01*
X146997797Y-57636360D01*
X147192849Y-57597562D01*
X147376585Y-57521456D01*
X147541942Y-57410968D01*
X147589550Y-57363360D01*
X148340457Y-57363360D01*
X148376640Y-57366924D01*
X148412823Y-57363360D01*
X148412826Y-57363360D01*
X148521039Y-57352702D01*
X148659889Y-57310582D01*
X148787853Y-57242184D01*
X148900015Y-57150135D01*
X148923086Y-57122023D01*
X152196620Y-53848490D01*
X152281508Y-53874241D01*
X152495937Y-53895360D01*
X152639343Y-53895360D01*
X152853772Y-53874241D01*
X153128907Y-53790779D01*
X153382474Y-53655245D01*
X153604727Y-53472847D01*
X153787125Y-53250594D01*
X153922659Y-52997027D01*
X154006121Y-52721892D01*
X154034302Y-52435760D01*
X154006121Y-52149628D01*
X153922659Y-51874493D01*
X153787125Y-51620926D01*
X153604727Y-51398673D01*
X153382474Y-51216275D01*
X153128907Y-51080741D01*
X152853772Y-50997279D01*
X152639343Y-50976160D01*
X152495937Y-50976160D01*
X152281508Y-50997279D01*
X152006373Y-51080741D01*
X151752806Y-51216275D01*
X151530553Y-51398673D01*
X151348155Y-51620926D01*
X151297640Y-51715433D01*
X151247125Y-51620926D01*
X151064727Y-51398673D01*
X150842474Y-51216275D01*
X150588907Y-51080741D01*
X150313772Y-50997279D01*
X150099343Y-50976160D01*
X149955937Y-50976160D01*
X149741508Y-50997279D01*
X149466373Y-51080741D01*
X149212806Y-51216275D01*
X148990553Y-51398673D01*
X148808155Y-51620926D01*
X148757640Y-51715433D01*
X148707125Y-51620926D01*
X148524727Y-51398673D01*
X148302474Y-51216275D01*
X148048907Y-51080741D01*
X147773772Y-50997279D01*
X147559343Y-50976160D01*
X147415937Y-50976160D01*
X147201508Y-50997279D01*
X146926373Y-51080741D01*
X146672806Y-51216275D01*
X146604918Y-51271989D01*
X146599363Y-51253675D01*
X146519172Y-51103648D01*
X146411252Y-50972148D01*
X146279752Y-50864228D01*
X146129725Y-50784037D01*
X145966935Y-50734655D01*
X145797640Y-50717981D01*
X145265140Y-50722160D01*
X145049240Y-50938060D01*
X145049240Y-52334160D01*
X145069240Y-52334160D01*
X145069240Y-52537360D01*
X145049240Y-52537360D01*
X145049240Y-52557360D01*
X144846040Y-52557360D01*
X144846040Y-52537360D01*
X143449940Y-52537360D01*
X143351126Y-52636174D01*
X142812491Y-52097539D01*
X142787037Y-52066523D01*
X142663272Y-51964952D01*
X142522070Y-51889478D01*
X142368857Y-51843001D01*
X142249443Y-51831240D01*
X142249440Y-51831240D01*
X142209520Y-51827308D01*
X142169600Y-51831240D01*
X140884991Y-51831240D01*
X140762425Y-51749344D01*
X140578689Y-51673238D01*
X140383637Y-51634440D01*
X140184763Y-51634440D01*
X139989711Y-51673238D01*
X139805975Y-51749344D01*
X139640618Y-51859832D01*
X139499992Y-52000458D01*
X139389504Y-52165815D01*
X139313398Y-52349551D01*
X139274600Y-52544603D01*
X132326313Y-52544603D01*
X131367470Y-51585760D01*
X143229861Y-51585760D01*
X143234040Y-52118260D01*
X143449940Y-52334160D01*
X144846040Y-52334160D01*
X144846040Y-50938060D01*
X144630140Y-50722160D01*
X144097640Y-50717981D01*
X143928345Y-50734655D01*
X143765555Y-50784037D01*
X143615528Y-50864228D01*
X143484028Y-50972148D01*
X143376108Y-51103648D01*
X143295917Y-51253675D01*
X143246535Y-51416465D01*
X143229861Y-51585760D01*
X131367470Y-51585760D01*
X130952730Y-51171021D01*
X130978481Y-51086132D01*
X131006662Y-50800000D01*
X130978481Y-50513868D01*
X130895019Y-50238733D01*
X130759485Y-49985166D01*
X130577087Y-49762913D01*
X130354834Y-49580515D01*
X130101267Y-49444981D01*
X129826132Y-49361519D01*
X129611703Y-49340400D01*
X129468297Y-49340400D01*
X129253868Y-49361519D01*
X128978733Y-49444981D01*
X128725166Y-49580515D01*
X128502913Y-49762913D01*
X128320515Y-49985166D01*
X128270000Y-50079673D01*
X128219485Y-49985166D01*
X128037087Y-49762913D01*
X127814834Y-49580515D01*
X127561267Y-49444981D01*
X127286132Y-49361519D01*
X127071703Y-49340400D01*
X126928297Y-49340400D01*
X126713868Y-49361519D01*
X126438733Y-49444981D01*
X126185166Y-49580515D01*
X125962913Y-49762913D01*
X125780515Y-49985166D01*
X125730000Y-50079673D01*
X125679485Y-49985166D01*
X125497087Y-49762913D01*
X125274834Y-49580515D01*
X125021267Y-49444981D01*
X124746132Y-49361519D01*
X124531703Y-49340400D01*
X124388297Y-49340400D01*
X124173868Y-49361519D01*
X123898733Y-49444981D01*
X123645166Y-49580515D01*
X123422913Y-49762913D01*
X123240515Y-49985166D01*
X123190000Y-50079673D01*
X123139485Y-49985166D01*
X122957087Y-49762913D01*
X122734834Y-49580515D01*
X122481267Y-49444981D01*
X122206132Y-49361519D01*
X121991703Y-49340400D01*
X121848297Y-49340400D01*
X121633868Y-49361519D01*
X121358733Y-49444981D01*
X121105166Y-49580515D01*
X120882913Y-49762913D01*
X120700515Y-49985166D01*
X120650000Y-50079673D01*
X120599485Y-49985166D01*
X120417087Y-49762913D01*
X120194834Y-49580515D01*
X119941267Y-49444981D01*
X119666132Y-49361519D01*
X119451703Y-49340400D01*
X119308297Y-49340400D01*
X119093868Y-49361519D01*
X118818733Y-49444981D01*
X118565166Y-49580515D01*
X118342913Y-49762913D01*
X118160515Y-49985166D01*
X118110000Y-50079673D01*
X118059485Y-49985166D01*
X117877087Y-49762913D01*
X117654834Y-49580515D01*
X117401267Y-49444981D01*
X117126132Y-49361519D01*
X116911703Y-49340400D01*
X116768297Y-49340400D01*
X116553868Y-49361519D01*
X116278733Y-49444981D01*
X116025166Y-49580515D01*
X115802913Y-49762913D01*
X115620515Y-49985166D01*
X115570000Y-50079673D01*
X115519485Y-49985166D01*
X115337087Y-49762913D01*
X115114834Y-49580515D01*
X114861267Y-49444981D01*
X114586132Y-49361519D01*
X114371703Y-49340400D01*
X114228297Y-49340400D01*
X114013868Y-49361519D01*
X113738733Y-49444981D01*
X113485166Y-49580515D01*
X113262913Y-49762913D01*
X113080515Y-49985166D01*
X113030000Y-50079673D01*
X112979485Y-49985166D01*
X112797087Y-49762913D01*
X112574834Y-49580515D01*
X112321267Y-49444981D01*
X112046132Y-49361519D01*
X111831703Y-49340400D01*
X111688297Y-49340400D01*
X111473868Y-49361519D01*
X111198733Y-49444981D01*
X110945166Y-49580515D01*
X110722913Y-49762913D01*
X110540515Y-49985166D01*
X110490000Y-50079673D01*
X110439485Y-49985166D01*
X110257087Y-49762913D01*
X110034834Y-49580515D01*
X109781267Y-49444981D01*
X109506132Y-49361519D01*
X109291703Y-49340400D01*
X109148297Y-49340400D01*
X108933868Y-49361519D01*
X108658733Y-49444981D01*
X108405166Y-49580515D01*
X108182913Y-49762913D01*
X108000515Y-49985166D01*
X107950000Y-50079673D01*
X107899485Y-49985166D01*
X107717087Y-49762913D01*
X107494834Y-49580515D01*
X107241267Y-49444981D01*
X106966132Y-49361519D01*
X106751703Y-49340400D01*
X106608297Y-49340400D01*
X106393868Y-49361519D01*
X106118733Y-49444981D01*
X105865166Y-49580515D01*
X105642913Y-49762913D01*
X105566116Y-49856491D01*
X105545431Y-49819592D01*
X105327158Y-49564244D01*
X105063263Y-49356386D01*
X104763888Y-49204005D01*
X104507944Y-49126369D01*
X104241600Y-49305750D01*
X104038400Y-49305750D01*
X103772056Y-49126369D01*
X103516112Y-49204005D01*
X103216737Y-49356386D01*
X102952842Y-49564244D01*
X102937119Y-49582638D01*
X102883138Y-49516862D01*
X102790314Y-49440684D01*
X102684412Y-49384079D01*
X102569502Y-49349221D01*
X102450000Y-49337451D01*
X100750000Y-49337451D01*
X100630498Y-49349221D01*
X100515588Y-49384079D01*
X100409686Y-49440684D01*
X100316862Y-49516862D01*
X100240684Y-49609686D01*
X100184079Y-49715588D01*
X100149221Y-49830498D01*
X100137451Y-49950000D01*
X96342783Y-49950000D01*
X96466600Y-49327535D01*
X96466600Y-48462465D01*
X96297833Y-47614018D01*
X95966785Y-46814797D01*
X95486178Y-46095518D01*
X94970960Y-45580300D01*
X181000040Y-45580300D01*
X180484822Y-46095518D01*
X180484822Y-46095518D01*
G37*
X180484822Y-46095518D02*
X180004215Y-46814797D01*
X179673167Y-47614018D01*
X179504400Y-48462465D01*
X179504400Y-49327535D01*
X179673167Y-50175982D01*
X180004215Y-50975203D01*
X180484822Y-51694482D01*
X181096518Y-52306178D01*
X181815797Y-52786785D01*
X182615018Y-53117833D01*
X183463465Y-53286600D01*
X184328535Y-53286600D01*
X185176982Y-53117833D01*
X185976203Y-52786785D01*
X186695482Y-52306178D01*
X187307178Y-51694482D01*
X187337700Y-51648803D01*
X187337701Y-89546199D01*
X187307178Y-89500518D01*
X186695482Y-88888822D01*
X185976203Y-88408215D01*
X185176982Y-88077167D01*
X184328535Y-87908400D01*
X183463465Y-87908400D01*
X182615018Y-88077167D01*
X181815797Y-88408215D01*
X181096518Y-88888822D01*
X180484822Y-89500518D01*
X180004215Y-90219797D01*
X179673167Y-91019018D01*
X179504400Y-91867465D01*
X179504400Y-92732535D01*
X179673167Y-93580982D01*
X180004215Y-94380203D01*
X180484822Y-95099482D01*
X181096518Y-95711178D01*
X181142197Y-95741700D01*
X94828803Y-95741700D01*
X94874482Y-95711178D01*
X95486178Y-95099482D01*
X95966785Y-94380203D01*
X96297833Y-93580982D01*
X96466600Y-92732535D01*
X96466600Y-91867465D01*
X96297833Y-91019018D01*
X96120129Y-90590000D01*
X109027451Y-90590000D01*
X109027451Y-92290000D01*
X109039221Y-92409502D01*
X109074079Y-92524412D01*
X109130684Y-92630314D01*
X109206862Y-92723138D01*
X109299686Y-92799316D01*
X109405588Y-92855921D01*
X109520498Y-92890779D01*
X109640000Y-92902549D01*
X111340000Y-92902549D01*
X111459502Y-92890779D01*
X111574412Y-92855921D01*
X111680314Y-92799316D01*
X111773138Y-92723138D01*
X111849316Y-92630314D01*
X111905921Y-92524412D01*
X111939880Y-92412466D01*
X111992913Y-92477087D01*
X112215166Y-92659485D01*
X112295795Y-92702582D01*
X112304058Y-92786479D01*
X112346178Y-92925329D01*
X112354092Y-92940135D01*
X112414576Y-93053293D01*
X112461168Y-93110065D01*
X112506625Y-93165455D01*
X112534732Y-93188522D01*
X113750353Y-94404143D01*
X113773424Y-94432255D01*
X113885586Y-94524304D01*
X114013550Y-94592702D01*
X114152400Y-94634822D01*
X114260613Y-94645480D01*
X114260622Y-94645480D01*
X114296798Y-94649043D01*
X114332974Y-94645480D01*
X128833257Y-94645480D01*
X128869440Y-94649044D01*
X128905623Y-94645480D01*
X128905626Y-94645480D01*
X129013839Y-94634822D01*
X129152689Y-94592702D01*
X129280653Y-94524304D01*
X129392815Y-94432255D01*
X129415886Y-94404143D01*
X132792830Y-91027200D01*
X132860157Y-91027200D01*
X133055209Y-90988402D01*
X133238945Y-90912296D01*
X133404302Y-90801808D01*
X133544928Y-90661182D01*
X133655416Y-90495825D01*
X133731522Y-90312089D01*
X133770320Y-90117037D01*
X133770320Y-89918163D01*
X133731522Y-89723111D01*
X133655416Y-89539375D01*
X133544928Y-89374018D01*
X133404302Y-89233392D01*
X133238945Y-89122904D01*
X133055209Y-89046798D01*
X132860157Y-89008000D01*
X132661283Y-89008000D01*
X132466231Y-89046798D01*
X132282495Y-89122904D01*
X132117138Y-89233392D01*
X131976512Y-89374018D01*
X131866024Y-89539375D01*
X131789918Y-89723111D01*
X131751120Y-89918163D01*
X131751120Y-89985490D01*
X128564331Y-93172280D01*
X114601908Y-93172280D01*
X113979003Y-92549375D01*
X114067087Y-92477087D01*
X114249485Y-92254834D01*
X114300000Y-92160327D01*
X114350515Y-92254834D01*
X114532913Y-92477087D01*
X114755166Y-92659485D01*
X115008733Y-92795019D01*
X115283868Y-92878481D01*
X115498297Y-92899600D01*
X115641703Y-92899600D01*
X115856132Y-92878481D01*
X116131267Y-92795019D01*
X116384834Y-92659485D01*
X116607087Y-92477087D01*
X116789485Y-92254834D01*
X116840000Y-92160327D01*
X116890515Y-92254834D01*
X117072913Y-92477087D01*
X117295166Y-92659485D01*
X117548733Y-92795019D01*
X117823868Y-92878481D01*
X118038297Y-92899600D01*
X118181703Y-92899600D01*
X118396132Y-92878481D01*
X118671267Y-92795019D01*
X118924834Y-92659485D01*
X119147087Y-92477087D01*
X119223884Y-92383509D01*
X119244569Y-92420408D01*
X119462842Y-92675756D01*
X119726737Y-92883614D01*
X120026112Y-93035995D01*
X120282056Y-93113631D01*
X120548400Y-92934250D01*
X120548400Y-91541600D01*
X120751600Y-91541600D01*
X120751600Y-92934250D01*
X121017944Y-93113631D01*
X121273888Y-93035995D01*
X121573263Y-92883614D01*
X121837158Y-92675756D01*
X122055431Y-92420408D01*
X122219694Y-92127384D01*
X122323635Y-91807944D01*
X122144689Y-91541600D01*
X120751600Y-91541600D01*
X120548400Y-91541600D01*
X120528400Y-91541600D01*
X120528400Y-91338400D01*
X120548400Y-91338400D01*
X120548400Y-89945750D01*
X120751600Y-89945750D01*
X120751600Y-91338400D01*
X122144689Y-91338400D01*
X122323635Y-91072056D01*
X122219694Y-90752616D01*
X122055431Y-90459592D01*
X121837158Y-90204244D01*
X121573263Y-89996386D01*
X121273888Y-89844005D01*
X121017944Y-89766369D01*
X120751600Y-89945750D01*
X120548400Y-89945750D01*
X120282056Y-89766369D01*
X120026112Y-89844005D01*
X119726737Y-89996386D01*
X119462842Y-90204244D01*
X119244569Y-90459592D01*
X119223884Y-90496491D01*
X119147087Y-90402913D01*
X118924834Y-90220515D01*
X118671267Y-90084981D01*
X118396132Y-90001519D01*
X118181703Y-89980400D01*
X118038297Y-89980400D01*
X117823868Y-90001519D01*
X117548733Y-90084981D01*
X117295166Y-90220515D01*
X117072913Y-90402913D01*
X116890515Y-90625166D01*
X116840000Y-90719673D01*
X116789485Y-90625166D01*
X116607087Y-90402913D01*
X116519003Y-90330625D01*
X117807389Y-89042240D01*
X119943570Y-89042240D01*
X119991178Y-89089848D01*
X120156535Y-89200336D01*
X120340271Y-89276442D01*
X120535323Y-89315240D01*
X120734197Y-89315240D01*
X120929249Y-89276442D01*
X121112985Y-89200336D01*
X121278342Y-89089848D01*
X121418968Y-88949222D01*
X121529456Y-88783865D01*
X121605562Y-88600129D01*
X121644360Y-88405077D01*
X121644360Y-88206203D01*
X121605562Y-88011151D01*
X121529456Y-87827415D01*
X121418968Y-87662058D01*
X121278342Y-87521432D01*
X121112985Y-87410944D01*
X120929249Y-87334838D01*
X120734197Y-87296040D01*
X120535323Y-87296040D01*
X120340271Y-87334838D01*
X120156535Y-87410944D01*
X119991178Y-87521432D01*
X119943570Y-87569040D01*
X117538454Y-87569040D01*
X117502278Y-87565477D01*
X117466102Y-87569040D01*
X117466093Y-87569040D01*
X117357880Y-87579698D01*
X117219030Y-87621818D01*
X117091066Y-87690216D01*
X116978904Y-87782265D01*
X116955838Y-87810371D01*
X115074732Y-89691478D01*
X115046626Y-89714544D01*
X115023560Y-89742650D01*
X115023558Y-89742652D01*
X114954576Y-89826707D01*
X114929725Y-89873201D01*
X114886179Y-89954670D01*
X114846650Y-90084981D01*
X114844059Y-90093521D01*
X114835795Y-90177418D01*
X114755166Y-90220515D01*
X114532913Y-90402913D01*
X114350515Y-90625166D01*
X114300000Y-90719673D01*
X114249485Y-90625166D01*
X114067087Y-90402913D01*
X113844834Y-90220515D01*
X113591267Y-90084981D01*
X113316132Y-90001519D01*
X113101703Y-89980400D01*
X112958297Y-89980400D01*
X112743868Y-90001519D01*
X112468733Y-90084981D01*
X112215166Y-90220515D01*
X111992913Y-90402913D01*
X111939880Y-90467534D01*
X111905921Y-90355588D01*
X111849316Y-90249686D01*
X111773138Y-90156862D01*
X111680314Y-90080684D01*
X111574412Y-90024079D01*
X111459502Y-89989221D01*
X111340000Y-89977451D01*
X109640000Y-89977451D01*
X109520498Y-89989221D01*
X109405588Y-90024079D01*
X109299686Y-90080684D01*
X109206862Y-90156862D01*
X109130684Y-90249686D01*
X109074079Y-90355588D01*
X109039221Y-90470498D01*
X109027451Y-90590000D01*
X96120129Y-90590000D01*
X95966785Y-90219797D01*
X95486178Y-89500518D01*
X94874482Y-88888822D01*
X94155203Y-88408215D01*
X93355982Y-88077167D01*
X92507535Y-87908400D01*
X91642465Y-87908400D01*
X90794018Y-88077167D01*
X89994797Y-88408215D01*
X89275518Y-88888822D01*
X88663822Y-89500518D01*
X88633300Y-89546197D01*
X88633300Y-79641323D01*
X105391000Y-79641323D01*
X105391000Y-79840197D01*
X105429798Y-80035249D01*
X105505904Y-80218985D01*
X105616392Y-80384342D01*
X105757018Y-80524968D01*
X105922375Y-80635456D01*
X106106111Y-80711562D01*
X106193615Y-80728968D01*
X106647831Y-81183184D01*
X106647830Y-81683358D01*
X106565934Y-81805925D01*
X106489828Y-81989661D01*
X106451030Y-82184713D01*
X106451030Y-82383587D01*
X106489828Y-82578639D01*
X106565934Y-82762375D01*
X106676422Y-82927732D01*
X106817048Y-83068358D01*
X106982405Y-83178846D01*
X107166141Y-83254952D01*
X107361193Y-83293750D01*
X107560067Y-83293750D01*
X107755119Y-83254952D01*
X107938855Y-83178846D01*
X108104212Y-83068358D01*
X108244838Y-82927732D01*
X108355326Y-82762375D01*
X108431432Y-82578639D01*
X108470230Y-82383587D01*
X108470230Y-82184713D01*
X108431432Y-81989661D01*
X108355326Y-81805925D01*
X108273430Y-81683359D01*
X108273430Y-80886430D01*
X108277362Y-80846510D01*
X108273430Y-80806587D01*
X108261669Y-80687173D01*
X108215192Y-80533960D01*
X108139718Y-80392758D01*
X108038147Y-80268993D01*
X108007136Y-80243543D01*
X107410200Y-79646608D01*
X107410200Y-79641323D01*
X107371402Y-79446271D01*
X107295296Y-79262535D01*
X107184808Y-79097178D01*
X107044182Y-78956552D01*
X106878825Y-78846064D01*
X106695089Y-78769958D01*
X106500037Y-78731160D01*
X106301163Y-78731160D01*
X106106111Y-78769958D01*
X105922375Y-78846064D01*
X105757018Y-78956552D01*
X105616392Y-79097178D01*
X105505904Y-79262535D01*
X105429798Y-79446271D01*
X105391000Y-79641323D01*
X88633300Y-79641323D01*
X88633300Y-75350000D01*
X109027451Y-75350000D01*
X109027451Y-77050000D01*
X109039221Y-77169502D01*
X109074079Y-77284412D01*
X109130684Y-77390314D01*
X109206862Y-77483138D01*
X109299686Y-77559316D01*
X109405588Y-77615921D01*
X109520498Y-77650779D01*
X109640000Y-77662549D01*
X111340000Y-77662549D01*
X111459502Y-77650779D01*
X111574412Y-77615921D01*
X111680314Y-77559316D01*
X111773138Y-77483138D01*
X111849316Y-77390314D01*
X111905921Y-77284412D01*
X111939880Y-77172466D01*
X111992913Y-77237087D01*
X112215166Y-77419485D01*
X112468733Y-77555019D01*
X112743868Y-77638481D01*
X112958297Y-77659600D01*
X113101703Y-77659600D01*
X113316132Y-77638481D01*
X113591267Y-77555019D01*
X113844834Y-77419485D01*
X114067087Y-77237087D01*
X114249485Y-77014834D01*
X114300000Y-76920327D01*
X114350515Y-77014834D01*
X114532913Y-77237087D01*
X114755166Y-77419485D01*
X115008733Y-77555019D01*
X115283868Y-77638481D01*
X115498297Y-77659600D01*
X115641703Y-77659600D01*
X115856132Y-77638481D01*
X116131267Y-77555019D01*
X116384834Y-77419485D01*
X116607087Y-77237087D01*
X116789485Y-77014834D01*
X116840000Y-76920327D01*
X116890515Y-77014834D01*
X117072913Y-77237087D01*
X117295166Y-77419485D01*
X117548733Y-77555019D01*
X117823868Y-77638481D01*
X118038297Y-77659600D01*
X118181703Y-77659600D01*
X118396132Y-77638481D01*
X118519220Y-77601142D01*
X118289935Y-77830428D01*
X118258924Y-77855878D01*
X118233474Y-77886889D01*
X118157352Y-77979644D01*
X118152095Y-77989480D01*
X118081878Y-78120845D01*
X118035401Y-78274058D01*
X118025692Y-78372637D01*
X118023084Y-78399121D01*
X117941744Y-78520855D01*
X117865638Y-78704591D01*
X117826840Y-78899643D01*
X117826840Y-79098517D01*
X117865638Y-79293569D01*
X117941744Y-79477305D01*
X118052232Y-79642662D01*
X118192858Y-79783288D01*
X118358215Y-79893776D01*
X118541951Y-79969882D01*
X118737003Y-80008680D01*
X118935877Y-80008680D01*
X119130929Y-79969882D01*
X119314665Y-79893776D01*
X119480022Y-79783288D01*
X119620648Y-79642662D01*
X119731136Y-79477305D01*
X119807242Y-79293569D01*
X119846040Y-79098517D01*
X119846040Y-78899643D01*
X119807242Y-78704591D01*
X119780142Y-78639166D01*
X119811388Y-78607920D01*
X122438880Y-78607920D01*
X122478800Y-78611852D01*
X122518720Y-78607920D01*
X122518723Y-78607920D01*
X122638137Y-78596159D01*
X122791350Y-78549682D01*
X122932552Y-78474208D01*
X123056317Y-78372637D01*
X123081771Y-78341621D01*
X124070033Y-77353359D01*
X124119489Y-77343522D01*
X124303225Y-77267416D01*
X124468582Y-77156928D01*
X124609208Y-77016302D01*
X124719696Y-76850945D01*
X124795802Y-76667209D01*
X124834600Y-76472157D01*
X124834600Y-76273283D01*
X124795802Y-76078231D01*
X124719696Y-75894495D01*
X124609208Y-75729138D01*
X124468582Y-75588512D01*
X124303225Y-75478024D01*
X124119489Y-75401918D01*
X123924437Y-75363120D01*
X123725563Y-75363120D01*
X123530511Y-75401918D01*
X123346775Y-75478024D01*
X123181418Y-75588512D01*
X123040792Y-75729138D01*
X122930304Y-75894495D01*
X122854198Y-76078231D01*
X122815400Y-76273283D01*
X122815400Y-76309047D01*
X122142128Y-76982320D01*
X121886864Y-76982320D01*
X122005019Y-76761267D01*
X122088481Y-76486132D01*
X122116662Y-76200000D01*
X122088481Y-75913868D01*
X122005019Y-75638733D01*
X121869485Y-75385166D01*
X121716900Y-75199240D01*
X128555800Y-75199240D01*
X128555800Y-75313917D01*
X128594598Y-75508969D01*
X128670704Y-75692705D01*
X128781192Y-75858062D01*
X128921818Y-75998688D01*
X129087175Y-76109176D01*
X129270911Y-76185282D01*
X129465963Y-76224080D01*
X129664837Y-76224080D01*
X129859889Y-76185282D01*
X129992917Y-76130180D01*
X133638665Y-76130180D01*
X133686273Y-76177788D01*
X133851630Y-76288276D01*
X134035366Y-76364382D01*
X134105982Y-76378428D01*
X127251792Y-83232619D01*
X127172015Y-83265664D01*
X127006658Y-83376152D01*
X126866032Y-83516778D01*
X126755544Y-83682135D01*
X126679438Y-83865871D01*
X126640640Y-84060923D01*
X126640640Y-84259797D01*
X126679438Y-84454849D01*
X126755544Y-84638585D01*
X126866032Y-84803942D01*
X127006658Y-84944568D01*
X127172015Y-85055056D01*
X127355751Y-85131162D01*
X127550803Y-85169960D01*
X127749677Y-85169960D01*
X127944729Y-85131162D01*
X128128465Y-85055056D01*
X128293822Y-84944568D01*
X128434448Y-84803942D01*
X128544936Y-84638585D01*
X128621042Y-84454849D01*
X128659840Y-84259797D01*
X128659840Y-84060923D01*
X128634467Y-83933362D01*
X132094200Y-80473630D01*
X132130278Y-80655009D01*
X132206384Y-80838745D01*
X132241084Y-80890678D01*
X132239058Y-80892032D01*
X132098432Y-81032658D01*
X131987944Y-81198015D01*
X131911838Y-81381751D01*
X131873040Y-81576803D01*
X131873040Y-81775677D01*
X131911838Y-81970729D01*
X131987944Y-82154465D01*
X132079348Y-82291262D01*
X131976512Y-82394098D01*
X131866024Y-82559455D01*
X131789918Y-82743191D01*
X131751120Y-82938243D01*
X131751120Y-83137117D01*
X131789918Y-83332169D01*
X131866024Y-83515905D01*
X131976512Y-83681262D01*
X132117138Y-83821888D01*
X132282495Y-83932376D01*
X132466231Y-84008482D01*
X132661283Y-84047280D01*
X132860157Y-84047280D01*
X133055209Y-84008482D01*
X133238945Y-83932376D01*
X133404302Y-83821888D01*
X133451910Y-83774280D01*
X134771777Y-83774280D01*
X134807960Y-83777844D01*
X134844143Y-83774280D01*
X134844146Y-83774280D01*
X134952359Y-83763622D01*
X135091209Y-83721502D01*
X135219173Y-83653104D01*
X135331335Y-83561055D01*
X135354406Y-83532943D01*
X136001309Y-82886040D01*
X166088411Y-82886040D01*
X166088411Y-84886040D01*
X166100181Y-85005542D01*
X166135039Y-85120452D01*
X166191644Y-85226354D01*
X166267822Y-85319178D01*
X166360646Y-85395356D01*
X166466548Y-85451961D01*
X166581458Y-85486819D01*
X166700960Y-85498589D01*
X168700960Y-85498589D01*
X168820462Y-85486819D01*
X168935372Y-85451961D01*
X169041274Y-85395356D01*
X169134098Y-85319178D01*
X169146529Y-85304031D01*
X169184081Y-85458507D01*
X169510393Y-85626676D01*
X169863244Y-85727953D01*
X170229072Y-85758447D01*
X170593821Y-85716985D01*
X170943472Y-85605161D01*
X171217839Y-85458507D01*
X171298389Y-85127153D01*
X170200960Y-84029724D01*
X170186818Y-84043867D01*
X170043134Y-83900183D01*
X170057276Y-83886040D01*
X170344644Y-83886040D01*
X171442073Y-84983469D01*
X171506427Y-84967825D01*
X171674900Y-85136298D01*
X171938529Y-85312449D01*
X172231457Y-85433784D01*
X172542428Y-85495640D01*
X172859492Y-85495640D01*
X173170463Y-85433784D01*
X173463391Y-85312449D01*
X173727020Y-85136298D01*
X173951218Y-84912100D01*
X174127369Y-84648471D01*
X174248704Y-84355543D01*
X174310560Y-84044572D01*
X174310560Y-83727508D01*
X174248704Y-83416537D01*
X174127369Y-83123609D01*
X173951218Y-82859980D01*
X173727020Y-82635782D01*
X173463391Y-82459631D01*
X173170463Y-82338296D01*
X172859492Y-82276440D01*
X172542428Y-82276440D01*
X172231457Y-82338296D01*
X171938529Y-82459631D01*
X171674900Y-82635782D01*
X171506427Y-82804255D01*
X171442073Y-82788611D01*
X170344644Y-83886040D01*
X170057276Y-83886040D01*
X170043134Y-83871898D01*
X170186818Y-83728214D01*
X170200960Y-83742356D01*
X171298389Y-82644927D01*
X171217839Y-82313573D01*
X170891527Y-82145404D01*
X170538676Y-82044127D01*
X170172848Y-82013633D01*
X169808099Y-82055095D01*
X169458448Y-82166919D01*
X169184081Y-82313573D01*
X169146529Y-82468049D01*
X169134098Y-82452902D01*
X169041274Y-82376724D01*
X168935372Y-82320119D01*
X168820462Y-82285261D01*
X168700960Y-82273491D01*
X166700960Y-82273491D01*
X166581458Y-82285261D01*
X166466548Y-82320119D01*
X166360646Y-82376724D01*
X166267822Y-82452902D01*
X166191644Y-82545726D01*
X166135039Y-82651628D01*
X166100181Y-82766538D01*
X166088411Y-82886040D01*
X136001309Y-82886040D01*
X140342589Y-78544761D01*
X140370695Y-78521695D01*
X140462744Y-78409533D01*
X140531142Y-78281569D01*
X140573262Y-78142719D01*
X140583920Y-78034505D01*
X140583920Y-78034497D01*
X140587483Y-77998321D01*
X140583920Y-77962145D01*
X140583920Y-77744630D01*
X140631528Y-77697022D01*
X140742016Y-77531665D01*
X140818122Y-77347929D01*
X140856920Y-77152877D01*
X140856920Y-76954003D01*
X140818122Y-76758951D01*
X140742016Y-76575215D01*
X140631528Y-76409858D01*
X140490902Y-76269232D01*
X140325545Y-76158744D01*
X140141809Y-76082638D01*
X139946757Y-76043840D01*
X139747883Y-76043840D01*
X139552831Y-76082638D01*
X139369095Y-76158744D01*
X139232298Y-76250148D01*
X139119302Y-76137152D01*
X138953945Y-76026664D01*
X138770209Y-75950558D01*
X138575157Y-75911760D01*
X138376283Y-75911760D01*
X138356247Y-75915745D01*
X138334002Y-75803911D01*
X138257896Y-75620175D01*
X138147408Y-75454818D01*
X138006782Y-75314192D01*
X137841425Y-75203704D01*
X137657689Y-75127598D01*
X137462637Y-75088800D01*
X137438080Y-75088800D01*
X137438080Y-74998203D01*
X137399282Y-74803151D01*
X137323176Y-74619415D01*
X137212688Y-74454058D01*
X137072062Y-74313432D01*
X136906705Y-74202944D01*
X136854192Y-74181192D01*
X136886296Y-74133145D01*
X136962402Y-73949409D01*
X137001200Y-73754357D01*
X137001200Y-73555483D01*
X136970456Y-73400920D01*
X142229530Y-73400920D01*
X142277138Y-73448528D01*
X142442495Y-73559016D01*
X142626231Y-73635122D01*
X142821283Y-73673920D01*
X143020157Y-73673920D01*
X143215209Y-73635122D01*
X143398945Y-73559016D01*
X143564302Y-73448528D01*
X143704928Y-73307902D01*
X143815416Y-73142545D01*
X143865313Y-73022083D01*
X154860040Y-73022083D01*
X154860040Y-73220957D01*
X154898838Y-73416009D01*
X154974944Y-73599745D01*
X155085432Y-73765102D01*
X155226058Y-73905728D01*
X155391415Y-74016216D01*
X155575151Y-74092322D01*
X155770203Y-74131120D01*
X155837531Y-74131120D01*
X158943040Y-77236630D01*
X158943041Y-79862369D01*
X158895432Y-79909978D01*
X158784944Y-80075335D01*
X158708838Y-80259071D01*
X158670040Y-80454123D01*
X158670040Y-80652997D01*
X158708838Y-80848049D01*
X158784944Y-81031785D01*
X158895432Y-81197142D01*
X159036058Y-81337768D01*
X159201415Y-81448256D01*
X159385151Y-81524362D01*
X159580203Y-81563160D01*
X159779077Y-81563160D01*
X159974129Y-81524362D01*
X160157865Y-81448256D01*
X160323222Y-81337768D01*
X160463848Y-81197142D01*
X160574336Y-81031785D01*
X160608842Y-80948480D01*
X160795077Y-80948480D01*
X160990129Y-80909682D01*
X161173865Y-80833576D01*
X161339222Y-80723088D01*
X161479848Y-80582462D01*
X161590336Y-80417105D01*
X161666442Y-80233369D01*
X161705240Y-80038317D01*
X161705240Y-79839443D01*
X161666442Y-79644391D01*
X161590336Y-79460655D01*
X161479848Y-79295298D01*
X161432240Y-79247690D01*
X161432240Y-76424146D01*
X161435804Y-76387960D01*
X161421582Y-76243561D01*
X161412428Y-76213384D01*
X161379462Y-76104711D01*
X161311064Y-75976747D01*
X161219015Y-75864585D01*
X161190909Y-75841519D01*
X160135430Y-74786040D01*
X162988411Y-74786040D01*
X162988411Y-77986040D01*
X163000181Y-78105542D01*
X163035039Y-78220452D01*
X163091644Y-78326354D01*
X163167822Y-78419178D01*
X163260646Y-78495356D01*
X163366548Y-78551961D01*
X163481458Y-78586819D01*
X163600960Y-78598589D01*
X165600960Y-78598589D01*
X165720462Y-78586819D01*
X165835372Y-78551961D01*
X165941274Y-78495356D01*
X166034098Y-78419178D01*
X166110276Y-78326354D01*
X166166881Y-78220452D01*
X166201739Y-78105542D01*
X166213509Y-77986040D01*
X166213509Y-74786040D01*
X174188411Y-74786040D01*
X174188411Y-77986040D01*
X174200181Y-78105542D01*
X174235039Y-78220452D01*
X174291644Y-78326354D01*
X174367822Y-78419178D01*
X174460646Y-78495356D01*
X174566548Y-78551961D01*
X174681458Y-78586819D01*
X174800960Y-78598589D01*
X176800960Y-78598589D01*
X176920462Y-78586819D01*
X177035372Y-78551961D01*
X177141274Y-78495356D01*
X177234098Y-78419178D01*
X177310276Y-78326354D01*
X177366881Y-78220452D01*
X177401739Y-78105542D01*
X177413509Y-77986040D01*
X177413509Y-74786040D01*
X177401739Y-74666538D01*
X177366881Y-74551628D01*
X177310276Y-74445726D01*
X177234098Y-74352902D01*
X177141274Y-74276724D01*
X177035372Y-74220119D01*
X176920462Y-74185261D01*
X176800960Y-74173491D01*
X174800960Y-74173491D01*
X174681458Y-74185261D01*
X174566548Y-74220119D01*
X174460646Y-74276724D01*
X174367822Y-74352902D01*
X174291644Y-74445726D01*
X174235039Y-74551628D01*
X174200181Y-74666538D01*
X174188411Y-74786040D01*
X166213509Y-74786040D01*
X166201739Y-74666538D01*
X166166881Y-74551628D01*
X166110276Y-74445726D01*
X166034098Y-74352902D01*
X165941274Y-74276724D01*
X165835372Y-74220119D01*
X165720462Y-74185261D01*
X165600960Y-74173491D01*
X163600960Y-74173491D01*
X163481458Y-74185261D01*
X163366548Y-74220119D01*
X163260646Y-74276724D01*
X163167822Y-74352902D01*
X163091644Y-74445726D01*
X163035039Y-74551628D01*
X163000181Y-74666538D01*
X162988411Y-74786040D01*
X160135430Y-74786040D01*
X157326280Y-71976891D01*
X157326280Y-71909563D01*
X157287482Y-71714511D01*
X157211376Y-71530775D01*
X157100888Y-71365418D01*
X156960262Y-71224792D01*
X156794905Y-71114304D01*
X156611169Y-71038198D01*
X156416117Y-70999400D01*
X156217243Y-70999400D01*
X156022191Y-71038198D01*
X155838455Y-71114304D01*
X155673098Y-71224792D01*
X155532472Y-71365418D01*
X155421984Y-71530775D01*
X155345878Y-71714511D01*
X155307080Y-71909563D01*
X155307080Y-72108437D01*
X155337760Y-72262675D01*
X155226058Y-72337312D01*
X155085432Y-72477938D01*
X154974944Y-72643295D01*
X154898838Y-72827031D01*
X154860040Y-73022083D01*
X143865313Y-73022083D01*
X143891522Y-72958809D01*
X143912974Y-72850960D01*
X144102197Y-72850960D01*
X144297249Y-72812162D01*
X144480985Y-72736056D01*
X144646342Y-72625568D01*
X144786968Y-72484942D01*
X144897456Y-72319585D01*
X144973562Y-72135849D01*
X145012360Y-71940797D01*
X145012360Y-71741923D01*
X144973562Y-71546871D01*
X144897456Y-71363135D01*
X144786968Y-71197778D01*
X144646342Y-71057152D01*
X144480985Y-70946664D01*
X144297249Y-70870558D01*
X144102197Y-70831760D01*
X143903323Y-70831760D01*
X143708271Y-70870558D01*
X143524535Y-70946664D01*
X143359178Y-71057152D01*
X143311570Y-71104760D01*
X132605874Y-71104760D01*
X132559408Y-71035218D01*
X132418782Y-70894592D01*
X132322387Y-70830183D01*
X132344009Y-70825882D01*
X132527745Y-70749776D01*
X132693102Y-70639288D01*
X132740710Y-70591680D01*
X139322557Y-70591680D01*
X139369095Y-70622776D01*
X139552831Y-70698882D01*
X139747883Y-70737680D01*
X139946757Y-70737680D01*
X140141809Y-70698882D01*
X140325545Y-70622776D01*
X140490902Y-70512288D01*
X140631528Y-70371662D01*
X140742016Y-70206305D01*
X140818122Y-70022569D01*
X140856920Y-69827517D01*
X140856920Y-69628643D01*
X140818122Y-69433591D01*
X140742016Y-69249855D01*
X140631528Y-69084498D01*
X140490902Y-68943872D01*
X140325545Y-68833384D01*
X140141809Y-68757278D01*
X139946757Y-68718480D01*
X139747883Y-68718480D01*
X139552831Y-68757278D01*
X139369095Y-68833384D01*
X139203738Y-68943872D01*
X139063112Y-69084498D01*
X139040406Y-69118480D01*
X132740710Y-69118480D01*
X132693102Y-69070872D01*
X132527745Y-68960384D01*
X132344009Y-68884278D01*
X132148957Y-68845480D01*
X131950083Y-68845480D01*
X131755031Y-68884278D01*
X131571295Y-68960384D01*
X131405938Y-69070872D01*
X131265312Y-69211498D01*
X131154824Y-69376855D01*
X131078718Y-69560591D01*
X131039920Y-69755643D01*
X131039920Y-69954517D01*
X131078718Y-70149569D01*
X131154824Y-70333305D01*
X131265312Y-70498662D01*
X131405938Y-70639288D01*
X131502333Y-70703697D01*
X131480711Y-70707998D01*
X131296975Y-70784104D01*
X131131618Y-70894592D01*
X130990992Y-71035218D01*
X130880504Y-71200575D01*
X130804398Y-71384311D01*
X130765600Y-71579363D01*
X130765600Y-71745639D01*
X130707695Y-71769624D01*
X130542338Y-71880112D01*
X130401712Y-72020738D01*
X130291224Y-72186095D01*
X130215118Y-72369831D01*
X130179519Y-72548800D01*
X130136523Y-72548800D01*
X129941471Y-72587598D01*
X129757735Y-72663704D01*
X129592378Y-72774192D01*
X129451752Y-72914818D01*
X129341264Y-73080175D01*
X129265158Y-73263911D01*
X129226360Y-73458963D01*
X129226360Y-73657837D01*
X129239926Y-73726040D01*
X118681465Y-73726040D01*
X118645279Y-73722476D01*
X118609093Y-73726040D01*
X118500880Y-73736698D01*
X118362030Y-73778818D01*
X118234066Y-73847216D01*
X118121904Y-73939265D01*
X118098838Y-73967372D01*
X117614732Y-74451478D01*
X117586626Y-74474544D01*
X117563560Y-74502650D01*
X117563558Y-74502652D01*
X117494576Y-74586707D01*
X117457015Y-74656980D01*
X117426179Y-74714670D01*
X117386650Y-74844981D01*
X117384059Y-74853521D01*
X117375795Y-74937418D01*
X117295166Y-74980515D01*
X117072913Y-75162913D01*
X116890515Y-75385166D01*
X116840000Y-75479673D01*
X116789485Y-75385166D01*
X116607087Y-75162913D01*
X116384834Y-74980515D01*
X116131267Y-74844981D01*
X115856132Y-74761519D01*
X115641703Y-74740400D01*
X115498297Y-74740400D01*
X115283868Y-74761519D01*
X115008733Y-74844981D01*
X114755166Y-74980515D01*
X114532913Y-75162913D01*
X114350515Y-75385166D01*
X114300000Y-75479673D01*
X114249485Y-75385166D01*
X114067087Y-75162913D01*
X113844834Y-74980515D01*
X113591267Y-74844981D01*
X113316132Y-74761519D01*
X113101703Y-74740400D01*
X112958297Y-74740400D01*
X112743868Y-74761519D01*
X112468733Y-74844981D01*
X112215166Y-74980515D01*
X111992913Y-75162913D01*
X111939880Y-75227534D01*
X111905921Y-75115588D01*
X111849316Y-75009686D01*
X111773138Y-74916862D01*
X111680314Y-74840684D01*
X111574412Y-74784079D01*
X111459502Y-74749221D01*
X111340000Y-74737451D01*
X109640000Y-74737451D01*
X109520498Y-74749221D01*
X109405588Y-74784079D01*
X109299686Y-74840684D01*
X109206862Y-74916862D01*
X109130684Y-75009686D01*
X109074079Y-75115588D01*
X109039221Y-75230498D01*
X109027451Y-75350000D01*
X88633300Y-75350000D01*
X88633300Y-68881883D01*
X100798680Y-68881883D01*
X100798680Y-69080757D01*
X100837478Y-69275809D01*
X100913584Y-69459545D01*
X101024072Y-69624902D01*
X101164698Y-69765528D01*
X101330055Y-69876016D01*
X101513791Y-69952122D01*
X101601295Y-69969528D01*
X103553594Y-71921827D01*
X103579044Y-71952838D01*
X103702809Y-72054409D01*
X103844011Y-72129883D01*
X103997224Y-72176360D01*
X104116638Y-72188121D01*
X104116640Y-72188121D01*
X104156561Y-72192053D01*
X104196481Y-72188121D01*
X105478804Y-72188121D01*
X105505904Y-72253545D01*
X105616392Y-72418902D01*
X105757018Y-72559528D01*
X105922375Y-72670016D01*
X106106111Y-72746122D01*
X106301163Y-72784920D01*
X106500037Y-72784920D01*
X106695089Y-72746122D01*
X106878825Y-72670016D01*
X107044182Y-72559528D01*
X107184808Y-72418902D01*
X107295296Y-72253545D01*
X107371402Y-72069809D01*
X107410200Y-71874757D01*
X107410200Y-71675883D01*
X107371402Y-71480831D01*
X107295296Y-71297095D01*
X107184808Y-71131738D01*
X107044182Y-70991112D01*
X106878825Y-70880624D01*
X106695089Y-70804518D01*
X106551496Y-70775956D01*
X106454353Y-70696233D01*
X106313151Y-70620759D01*
X106159938Y-70574282D01*
X106040524Y-70562521D01*
X106040521Y-70562521D01*
X106000601Y-70558589D01*
X105960681Y-70562521D01*
X104493234Y-70562521D01*
X103579676Y-69648963D01*
X113280240Y-69648963D01*
X113280240Y-69847837D01*
X113319038Y-70042889D01*
X113395144Y-70226625D01*
X113505632Y-70391982D01*
X113553241Y-70439591D01*
X113553241Y-70581729D01*
X113505632Y-70629338D01*
X113395144Y-70794695D01*
X113319038Y-70978431D01*
X113280240Y-71173483D01*
X113280240Y-71372357D01*
X113319038Y-71567409D01*
X113395144Y-71751145D01*
X113505632Y-71916502D01*
X113646258Y-72057128D01*
X113811615Y-72167616D01*
X113995351Y-72243722D01*
X114190403Y-72282520D01*
X114389277Y-72282520D01*
X114584329Y-72243722D01*
X114768065Y-72167616D01*
X114933422Y-72057128D01*
X115074048Y-71916502D01*
X115184536Y-71751145D01*
X115260642Y-71567409D01*
X115299440Y-71372357D01*
X115299440Y-71173483D01*
X115260642Y-70978431D01*
X115184536Y-70794695D01*
X115074048Y-70629338D01*
X115026440Y-70581730D01*
X115026440Y-70439590D01*
X115074048Y-70391982D01*
X115184536Y-70226625D01*
X115260642Y-70042889D01*
X115295701Y-69866636D01*
X115384203Y-69884240D01*
X115451531Y-69884240D01*
X115964367Y-70397076D01*
X115982057Y-70430173D01*
X115987880Y-70437268D01*
X115987880Y-70518397D01*
X116026678Y-70713449D01*
X116102784Y-70897185D01*
X116213272Y-71062542D01*
X116353898Y-71203168D01*
X116519255Y-71313656D01*
X116702991Y-71389762D01*
X116898043Y-71428560D01*
X117096917Y-71428560D01*
X117291969Y-71389762D01*
X117475705Y-71313656D01*
X117641062Y-71203168D01*
X117781688Y-71062542D01*
X117892176Y-70897185D01*
X117968282Y-70713449D01*
X118007080Y-70518397D01*
X118007080Y-70319523D01*
X117968282Y-70124471D01*
X117892176Y-69940735D01*
X117781688Y-69775378D01*
X117641062Y-69634752D01*
X117475705Y-69524264D01*
X117291969Y-69448158D01*
X117096917Y-69409360D01*
X117060070Y-69409360D01*
X116493240Y-68842531D01*
X116493240Y-68775203D01*
X116454442Y-68580151D01*
X116378336Y-68396415D01*
X116267848Y-68231058D01*
X116127222Y-68090432D01*
X115961865Y-67979944D01*
X115778129Y-67903838D01*
X115583077Y-67865040D01*
X115384203Y-67865040D01*
X115189151Y-67903838D01*
X115005415Y-67979944D01*
X114840058Y-68090432D01*
X114699432Y-68231058D01*
X114588944Y-68396415D01*
X114512838Y-68580151D01*
X114477779Y-68756404D01*
X114389277Y-68738800D01*
X114190403Y-68738800D01*
X113995351Y-68777598D01*
X113811615Y-68853704D01*
X113646258Y-68964192D01*
X113505632Y-69104818D01*
X113395144Y-69270175D01*
X113319038Y-69453911D01*
X113280240Y-69648963D01*
X103579676Y-69648963D01*
X102817880Y-68887168D01*
X102817880Y-68881883D01*
X102779082Y-68686831D01*
X102702976Y-68503095D01*
X102592488Y-68337738D01*
X102451862Y-68197112D01*
X102286505Y-68086624D01*
X102102769Y-68010518D01*
X101907717Y-67971720D01*
X101708843Y-67971720D01*
X101513791Y-68010518D01*
X101330055Y-68086624D01*
X101164698Y-68197112D01*
X101024072Y-68337738D01*
X100913584Y-68503095D01*
X100837478Y-68686831D01*
X100798680Y-68881883D01*
X88633300Y-68881883D01*
X88633300Y-65190000D01*
X100137451Y-65190000D01*
X100137451Y-66890000D01*
X100149221Y-67009502D01*
X100184079Y-67124412D01*
X100240684Y-67230314D01*
X100316862Y-67323138D01*
X100409686Y-67399316D01*
X100515588Y-67455921D01*
X100630498Y-67490779D01*
X100750000Y-67502549D01*
X102450000Y-67502549D01*
X102569502Y-67490779D01*
X102684412Y-67455921D01*
X102790314Y-67399316D01*
X102883138Y-67323138D01*
X102959316Y-67230314D01*
X103015921Y-67124412D01*
X103049880Y-67012466D01*
X103102913Y-67077087D01*
X103325166Y-67259485D01*
X103578733Y-67395019D01*
X103853868Y-67478481D01*
X104068297Y-67499600D01*
X104211703Y-67499600D01*
X104426132Y-67478481D01*
X104701267Y-67395019D01*
X104954834Y-67259485D01*
X105177087Y-67077087D01*
X105253884Y-66983509D01*
X105274569Y-67020408D01*
X105492842Y-67275756D01*
X105756737Y-67483614D01*
X106056112Y-67635995D01*
X106312056Y-67713631D01*
X106578400Y-67534250D01*
X106578400Y-66141600D01*
X106781600Y-66141600D01*
X106781600Y-67534250D01*
X107047944Y-67713631D01*
X107303888Y-67635995D01*
X107603263Y-67483614D01*
X107867158Y-67275756D01*
X107950000Y-67178843D01*
X108032842Y-67275756D01*
X108296737Y-67483614D01*
X108596112Y-67635995D01*
X108852056Y-67713631D01*
X109118400Y-67534250D01*
X109118400Y-66141600D01*
X106781600Y-66141600D01*
X106578400Y-66141600D01*
X106558400Y-66141600D01*
X106558400Y-65938400D01*
X106578400Y-65938400D01*
X106578400Y-64545750D01*
X106781600Y-64545750D01*
X106781600Y-65938400D01*
X109118400Y-65938400D01*
X109118400Y-64545750D01*
X109321600Y-64545750D01*
X109321600Y-65938400D01*
X109341600Y-65938400D01*
X109341600Y-66141600D01*
X109321600Y-66141600D01*
X109321600Y-67534250D01*
X109587944Y-67713631D01*
X109843888Y-67635995D01*
X110143263Y-67483614D01*
X110407158Y-67275756D01*
X110625431Y-67020408D01*
X110646116Y-66983509D01*
X110722913Y-67077087D01*
X110945166Y-67259485D01*
X111198733Y-67395019D01*
X111473868Y-67478481D01*
X111688297Y-67499600D01*
X111831703Y-67499600D01*
X112046132Y-67478481D01*
X112321267Y-67395019D01*
X112574834Y-67259485D01*
X112797087Y-67077087D01*
X112979485Y-66854834D01*
X113030000Y-66760327D01*
X113080515Y-66854834D01*
X113262913Y-67077087D01*
X113485166Y-67259485D01*
X113738733Y-67395019D01*
X114013868Y-67478481D01*
X114228297Y-67499600D01*
X114371703Y-67499600D01*
X114586132Y-67478481D01*
X114861267Y-67395019D01*
X115114834Y-67259485D01*
X115337087Y-67077087D01*
X115519485Y-66854834D01*
X115570000Y-66760327D01*
X115620515Y-66854834D01*
X115802913Y-67077087D01*
X116025166Y-67259485D01*
X116278733Y-67395019D01*
X116553868Y-67478481D01*
X116768297Y-67499600D01*
X116911703Y-67499600D01*
X117126132Y-67478481D01*
X117401267Y-67395019D01*
X117654834Y-67259485D01*
X117877087Y-67077087D01*
X118059485Y-66854834D01*
X118110000Y-66760327D01*
X118160515Y-66854834D01*
X118342913Y-67077087D01*
X118565166Y-67259485D01*
X118818733Y-67395019D01*
X119093868Y-67478481D01*
X119308297Y-67499600D01*
X119451703Y-67499600D01*
X119666132Y-67478481D01*
X119941267Y-67395019D01*
X120194834Y-67259485D01*
X120417087Y-67077087D01*
X120599485Y-66854834D01*
X120650000Y-66760327D01*
X120700515Y-66854834D01*
X120882913Y-67077087D01*
X121105166Y-67259485D01*
X121358733Y-67395019D01*
X121633868Y-67478481D01*
X121848297Y-67499600D01*
X121991703Y-67499600D01*
X122206132Y-67478481D01*
X122481267Y-67395019D01*
X122734834Y-67259485D01*
X122957087Y-67077087D01*
X123139485Y-66854834D01*
X123190000Y-66760327D01*
X123240515Y-66854834D01*
X123422913Y-67077087D01*
X123645166Y-67259485D01*
X123898733Y-67395019D01*
X124173868Y-67478481D01*
X124388297Y-67499600D01*
X124531703Y-67499600D01*
X124746132Y-67478481D01*
X125021267Y-67395019D01*
X125274834Y-67259485D01*
X125497087Y-67077087D01*
X125679485Y-66854834D01*
X125730000Y-66760327D01*
X125780515Y-66854834D01*
X125962913Y-67077087D01*
X126185166Y-67259485D01*
X126438733Y-67395019D01*
X126713868Y-67478481D01*
X126928297Y-67499600D01*
X127071703Y-67499600D01*
X127286132Y-67478481D01*
X127561267Y-67395019D01*
X127814834Y-67259485D01*
X128037087Y-67077087D01*
X128219485Y-66854834D01*
X128270000Y-66760327D01*
X128320515Y-66854834D01*
X128502913Y-67077087D01*
X128725166Y-67259485D01*
X128978733Y-67395019D01*
X129253868Y-67478481D01*
X129468297Y-67499600D01*
X129611703Y-67499600D01*
X129826132Y-67478481D01*
X130101267Y-67395019D01*
X130354834Y-67259485D01*
X130577087Y-67077087D01*
X130759485Y-66854834D01*
X130795871Y-66786760D01*
X137886130Y-66786760D01*
X137989618Y-66890248D01*
X138154975Y-67000736D01*
X138338711Y-67076842D01*
X138533763Y-67115640D01*
X138732637Y-67115640D01*
X138927689Y-67076842D01*
X139111425Y-67000736D01*
X139276782Y-66890248D01*
X139417408Y-66749622D01*
X139527896Y-66584265D01*
X139604002Y-66400529D01*
X139642800Y-66205477D01*
X139642800Y-66006603D01*
X139604002Y-65811551D01*
X139527896Y-65627815D01*
X139417408Y-65462458D01*
X139276782Y-65321832D01*
X139203580Y-65272920D01*
X141304657Y-65272920D01*
X141340840Y-65276484D01*
X141377023Y-65272920D01*
X141377026Y-65272920D01*
X141485239Y-65262262D01*
X141624089Y-65220142D01*
X141752053Y-65151744D01*
X141864215Y-65059695D01*
X141887285Y-65031584D01*
X143419836Y-63499033D01*
X143484751Y-63525922D01*
X143679803Y-63564720D01*
X143878677Y-63564720D01*
X144073729Y-63525922D01*
X144257465Y-63449816D01*
X144422822Y-63339328D01*
X144563448Y-63198702D01*
X144673936Y-63033345D01*
X144750042Y-62849609D01*
X144788840Y-62654557D01*
X144788840Y-62455683D01*
X144750042Y-62260631D01*
X144673936Y-62076895D01*
X144563448Y-61911538D01*
X144422822Y-61770912D01*
X144257465Y-61660424D01*
X144073729Y-61584318D01*
X143878677Y-61545520D01*
X143814342Y-61545520D01*
X143744296Y-61376415D01*
X143633808Y-61211058D01*
X143493182Y-61070432D01*
X143327825Y-60959944D01*
X143144089Y-60883838D01*
X142949037Y-60845040D01*
X142885594Y-60845040D01*
X142855296Y-60771895D01*
X142744808Y-60606538D01*
X142604182Y-60465912D01*
X142438825Y-60355424D01*
X142255089Y-60279318D01*
X142089579Y-60246396D01*
X142077962Y-60187991D01*
X142001856Y-60004255D01*
X141891368Y-59838898D01*
X141750742Y-59698272D01*
X141585385Y-59587784D01*
X141401649Y-59511678D01*
X141206597Y-59472880D01*
X141007723Y-59472880D01*
X140911418Y-59492036D01*
X140879082Y-59329471D01*
X140802976Y-59145735D01*
X140692488Y-58980378D01*
X140551862Y-58839752D01*
X140386505Y-58729264D01*
X140202769Y-58653158D01*
X140007717Y-58614360D01*
X139987172Y-58614360D01*
X139969762Y-58526831D01*
X139893656Y-58343095D01*
X139783168Y-58177738D01*
X139642542Y-58037112D01*
X139477185Y-57926624D01*
X139293449Y-57850518D01*
X139098397Y-57811720D01*
X138899523Y-57811720D01*
X138704471Y-57850518D01*
X138520735Y-57926624D01*
X138355378Y-58037112D01*
X138307770Y-58084720D01*
X132867710Y-58084720D01*
X132820102Y-58037112D01*
X132654745Y-57926624D01*
X132471009Y-57850518D01*
X132275957Y-57811720D01*
X132077083Y-57811720D01*
X131882031Y-57850518D01*
X131698295Y-57926624D01*
X131532938Y-58037112D01*
X131392312Y-58177738D01*
X131281824Y-58343095D01*
X131205718Y-58526831D01*
X131166920Y-58721883D01*
X131166920Y-58920757D01*
X131205718Y-59115809D01*
X131281824Y-59299545D01*
X131392312Y-59464902D01*
X131532938Y-59605528D01*
X131698295Y-59716016D01*
X131770393Y-59745880D01*
X131211630Y-59745880D01*
X131164022Y-59698272D01*
X130998665Y-59587784D01*
X130814929Y-59511678D01*
X130619877Y-59472880D01*
X130421003Y-59472880D01*
X130225951Y-59511678D01*
X130042215Y-59587784D01*
X129876858Y-59698272D01*
X129736232Y-59838898D01*
X129625744Y-60004255D01*
X129549638Y-60187991D01*
X129510840Y-60383043D01*
X129510840Y-60581917D01*
X129549638Y-60776969D01*
X129625744Y-60960705D01*
X129736232Y-61126062D01*
X129876858Y-61266688D01*
X130042215Y-61377176D01*
X130225951Y-61453282D01*
X130421003Y-61492080D01*
X130619877Y-61492080D01*
X130814080Y-61453451D01*
X130630571Y-61636960D01*
X130568323Y-61636960D01*
X130373271Y-61675758D01*
X130189535Y-61751864D01*
X130024178Y-61862352D01*
X129883552Y-62002978D01*
X129773064Y-62168335D01*
X129696958Y-62352071D01*
X129658160Y-62547123D01*
X129658160Y-62745997D01*
X129696958Y-62941049D01*
X129772947Y-63124503D01*
X129639712Y-63257738D01*
X129529224Y-63423095D01*
X129453118Y-63606831D01*
X129414320Y-63801883D01*
X129414320Y-64000757D01*
X129453118Y-64195809D01*
X129529224Y-64379545D01*
X129639712Y-64544902D01*
X129682148Y-64587338D01*
X129611703Y-64580400D01*
X129468297Y-64580400D01*
X129253868Y-64601519D01*
X128978733Y-64684981D01*
X128725166Y-64820515D01*
X128502913Y-65002913D01*
X128320515Y-65225166D01*
X128270000Y-65319673D01*
X128219485Y-65225166D01*
X128037087Y-65002913D01*
X127814834Y-64820515D01*
X127561267Y-64684981D01*
X127286132Y-64601519D01*
X127071703Y-64580400D01*
X126928297Y-64580400D01*
X126713868Y-64601519D01*
X126438733Y-64684981D01*
X126185166Y-64820515D01*
X125962913Y-65002913D01*
X125780515Y-65225166D01*
X125730000Y-65319673D01*
X125679485Y-65225166D01*
X125497087Y-65002913D01*
X125274834Y-64820515D01*
X125021267Y-64684981D01*
X124746132Y-64601519D01*
X124531703Y-64580400D01*
X124388297Y-64580400D01*
X124173868Y-64601519D01*
X123898733Y-64684981D01*
X123645166Y-64820515D01*
X123422913Y-65002913D01*
X123240515Y-65225166D01*
X123190000Y-65319673D01*
X123139485Y-65225166D01*
X122957087Y-65002913D01*
X122734834Y-64820515D01*
X122481267Y-64684981D01*
X122206132Y-64601519D01*
X121991703Y-64580400D01*
X121848297Y-64580400D01*
X121633868Y-64601519D01*
X121358733Y-64684981D01*
X121105166Y-64820515D01*
X120882913Y-65002913D01*
X120700515Y-65225166D01*
X120650000Y-65319673D01*
X120599485Y-65225166D01*
X120417087Y-65002913D01*
X120194834Y-64820515D01*
X119941267Y-64684981D01*
X119666132Y-64601519D01*
X119451703Y-64580400D01*
X119308297Y-64580400D01*
X119093868Y-64601519D01*
X118818733Y-64684981D01*
X118565166Y-64820515D01*
X118342913Y-65002913D01*
X118160515Y-65225166D01*
X118110000Y-65319673D01*
X118059485Y-65225166D01*
X117877087Y-65002913D01*
X117654834Y-64820515D01*
X117401267Y-64684981D01*
X117126132Y-64601519D01*
X116911703Y-64580400D01*
X116811469Y-64580400D01*
X118383234Y-63008636D01*
X118409198Y-63139169D01*
X118485304Y-63322905D01*
X118595792Y-63488262D01*
X118736418Y-63628888D01*
X118901775Y-63739376D01*
X119085511Y-63815482D01*
X119280563Y-63854280D01*
X119479437Y-63854280D01*
X119674489Y-63815482D01*
X119858225Y-63739376D01*
X120023582Y-63628888D01*
X120164208Y-63488262D01*
X120274696Y-63322905D01*
X120350802Y-63139169D01*
X120389600Y-62944117D01*
X120389600Y-62745243D01*
X120350802Y-62550191D01*
X120274696Y-62366455D01*
X120164208Y-62201098D01*
X120121680Y-62158570D01*
X120121680Y-61595310D01*
X120169288Y-61547702D01*
X120279776Y-61382345D01*
X120355882Y-61198609D01*
X120394680Y-61003557D01*
X120394680Y-60804683D01*
X120355882Y-60609631D01*
X120279776Y-60425895D01*
X120169288Y-60260538D01*
X120028662Y-60119912D01*
X119863305Y-60009424D01*
X119679569Y-59933318D01*
X119484517Y-59894520D01*
X119285643Y-59894520D01*
X119221200Y-59907338D01*
X119221200Y-59880123D01*
X119182402Y-59685071D01*
X119106296Y-59501335D01*
X118995808Y-59335978D01*
X118855182Y-59195352D01*
X118689825Y-59084864D01*
X118506089Y-59008758D01*
X118311037Y-58969960D01*
X118112163Y-58969960D01*
X117917111Y-59008758D01*
X117733375Y-59084864D01*
X117568018Y-59195352D01*
X117427392Y-59335978D01*
X117316904Y-59501335D01*
X117269699Y-59615297D01*
X117215769Y-59592958D01*
X117020717Y-59554160D01*
X116821843Y-59554160D01*
X116626791Y-59592958D01*
X116443055Y-59669064D01*
X116277698Y-59779552D01*
X116137072Y-59920178D01*
X116026584Y-60085535D01*
X115950478Y-60269271D01*
X115911680Y-60464323D01*
X115911680Y-60663197D01*
X115950478Y-60858249D01*
X116026584Y-61041985D01*
X116137072Y-61207342D01*
X116184681Y-61254951D01*
X116184680Y-61772490D01*
X114406371Y-63550800D01*
X113548786Y-63550800D01*
X113512600Y-63547236D01*
X113476414Y-63550800D01*
X113368201Y-63561458D01*
X113229351Y-63603578D01*
X113101387Y-63671976D01*
X112989225Y-63764025D01*
X112966159Y-63792131D01*
X112131021Y-64627270D01*
X112046132Y-64601519D01*
X111831703Y-64580400D01*
X111688297Y-64580400D01*
X111473868Y-64601519D01*
X111198733Y-64684981D01*
X110945166Y-64820515D01*
X110722913Y-65002913D01*
X110646116Y-65096491D01*
X110625431Y-65059592D01*
X110407158Y-64804244D01*
X110143263Y-64596386D01*
X109843888Y-64444005D01*
X109587944Y-64366369D01*
X109321600Y-64545750D01*
X109118400Y-64545750D01*
X108852056Y-64366369D01*
X108596112Y-64444005D01*
X108296737Y-64596386D01*
X108032842Y-64804244D01*
X107950000Y-64901157D01*
X107867158Y-64804244D01*
X107603263Y-64596386D01*
X107303888Y-64444005D01*
X107047944Y-64366369D01*
X106781600Y-64545750D01*
X106578400Y-64545750D01*
X106312056Y-64366369D01*
X106056112Y-64444005D01*
X105756737Y-64596386D01*
X105492842Y-64804244D01*
X105274569Y-65059592D01*
X105253884Y-65096491D01*
X105177087Y-65002913D01*
X104954834Y-64820515D01*
X104701267Y-64684981D01*
X104426132Y-64601519D01*
X104211703Y-64580400D01*
X104068297Y-64580400D01*
X103853868Y-64601519D01*
X103578733Y-64684981D01*
X103325166Y-64820515D01*
X103102913Y-65002913D01*
X103049880Y-65067534D01*
X103015921Y-64955588D01*
X102959316Y-64849686D01*
X102883138Y-64756862D01*
X102790314Y-64680684D01*
X102684412Y-64624079D01*
X102569502Y-64589221D01*
X102450000Y-64577451D01*
X100750000Y-64577451D01*
X100630498Y-64589221D01*
X100515588Y-64624079D01*
X100409686Y-64680684D01*
X100316862Y-64756862D01*
X100240684Y-64849686D01*
X100184079Y-64955588D01*
X100149221Y-65070498D01*
X100137451Y-65190000D01*
X88633300Y-65190000D01*
X88633300Y-62491243D01*
X109409280Y-62491243D01*
X109409280Y-62690117D01*
X109448078Y-62885169D01*
X109524184Y-63068905D01*
X109634672Y-63234262D01*
X109775298Y-63374888D01*
X109940655Y-63485376D01*
X110124391Y-63561482D01*
X110319443Y-63600280D01*
X110518317Y-63600280D01*
X110713369Y-63561482D01*
X110897105Y-63485376D01*
X111062462Y-63374888D01*
X111203088Y-63234262D01*
X111313576Y-63068905D01*
X111388960Y-62886912D01*
X116882032Y-57393840D01*
X117966409Y-57393840D01*
X118088975Y-57475736D01*
X118272711Y-57551842D01*
X118467763Y-57590640D01*
X118666637Y-57590640D01*
X118861689Y-57551842D01*
X119045425Y-57475736D01*
X119210782Y-57365248D01*
X119351408Y-57224622D01*
X119461896Y-57059265D01*
X119538002Y-56875529D01*
X119576800Y-56680477D01*
X119576800Y-56481603D01*
X119566696Y-56430803D01*
X132304840Y-56430803D01*
X132304840Y-56629677D01*
X132343638Y-56824729D01*
X132419744Y-57008465D01*
X132530232Y-57173822D01*
X132670858Y-57314448D01*
X132836215Y-57424936D01*
X133019951Y-57501042D01*
X133215003Y-57539840D01*
X133413877Y-57539840D01*
X133608929Y-57501042D01*
X133792665Y-57424936D01*
X133915231Y-57343040D01*
X139378609Y-57343040D01*
X139501175Y-57424936D01*
X139684911Y-57501042D01*
X139879963Y-57539840D01*
X140078837Y-57539840D01*
X140273889Y-57501042D01*
X140457625Y-57424936D01*
X140622982Y-57314448D01*
X140763608Y-57173822D01*
X140874096Y-57008465D01*
X140950202Y-56824729D01*
X140989000Y-56629677D01*
X140989000Y-56430803D01*
X140950202Y-56235751D01*
X140874096Y-56052015D01*
X140763608Y-55886658D01*
X140622982Y-55746032D01*
X140457625Y-55635544D01*
X140273889Y-55559438D01*
X140078837Y-55520640D01*
X139879963Y-55520640D01*
X139684911Y-55559438D01*
X139501175Y-55635544D01*
X139378609Y-55717440D01*
X133915231Y-55717440D01*
X133792665Y-55635544D01*
X133608929Y-55559438D01*
X133413877Y-55520640D01*
X133215003Y-55520640D01*
X133019951Y-55559438D01*
X132836215Y-55635544D01*
X132670858Y-55746032D01*
X132530232Y-55886658D01*
X132419744Y-56052015D01*
X132343638Y-56235751D01*
X132304840Y-56430803D01*
X119566696Y-56430803D01*
X119538002Y-56286551D01*
X119461896Y-56102815D01*
X119351408Y-55937458D01*
X119210782Y-55796832D01*
X119045425Y-55686344D01*
X118861689Y-55610238D01*
X118666637Y-55571440D01*
X118467763Y-55571440D01*
X118272711Y-55610238D01*
X118088975Y-55686344D01*
X117966409Y-55768240D01*
X116585280Y-55768240D01*
X116545359Y-55764308D01*
X116505439Y-55768240D01*
X116505437Y-55768240D01*
X116386023Y-55780001D01*
X116232810Y-55826478D01*
X116140792Y-55875663D01*
X116091607Y-55901952D01*
X116069599Y-55920014D01*
X115967843Y-56003523D01*
X115942388Y-56034540D01*
X110395848Y-61581080D01*
X110319443Y-61581080D01*
X110124391Y-61619878D01*
X109940655Y-61695984D01*
X109775298Y-61806472D01*
X109634672Y-61947098D01*
X109524184Y-62112455D01*
X109448078Y-62296191D01*
X109409280Y-62491243D01*
X88633300Y-62491243D01*
X88633300Y-51648803D01*
X88663822Y-51694482D01*
X89275518Y-52306178D01*
X89994797Y-52786785D01*
X90794018Y-53117833D01*
X91642465Y-53286600D01*
X92507535Y-53286600D01*
X93355982Y-53117833D01*
X94155203Y-52786785D01*
X94874482Y-52306178D01*
X95486178Y-51694482D01*
X95966785Y-50975203D01*
X96297833Y-50175982D01*
X96342783Y-49950000D01*
X100137451Y-49950000D01*
X100137451Y-51650000D01*
X100149221Y-51769502D01*
X100184079Y-51884412D01*
X100240684Y-51990314D01*
X100316862Y-52083138D01*
X100409686Y-52159316D01*
X100515588Y-52215921D01*
X100630498Y-52250779D01*
X100750000Y-52262549D01*
X102450000Y-52262549D01*
X102569502Y-52250779D01*
X102684412Y-52215921D01*
X102790314Y-52159316D01*
X102883138Y-52083138D01*
X102937119Y-52017362D01*
X102952842Y-52035756D01*
X103216737Y-52243614D01*
X103516112Y-52395995D01*
X103772056Y-52473631D01*
X104038400Y-52294250D01*
X104038400Y-50901600D01*
X104018400Y-50901600D01*
X104018400Y-50698400D01*
X104038400Y-50698400D01*
X104038400Y-49305750D01*
X104241600Y-49305750D01*
X104241600Y-50698400D01*
X104261600Y-50698400D01*
X104261600Y-50901600D01*
X104241600Y-50901600D01*
X104241600Y-52294250D01*
X104507944Y-52473631D01*
X104763888Y-52395995D01*
X105063263Y-52243614D01*
X105327158Y-52035756D01*
X105545431Y-51780408D01*
X105566116Y-51743509D01*
X105642913Y-51837087D01*
X105865166Y-52019485D01*
X106118733Y-52155019D01*
X106393868Y-52238481D01*
X106608297Y-52259600D01*
X106751703Y-52259600D01*
X106966132Y-52238481D01*
X107241267Y-52155019D01*
X107494834Y-52019485D01*
X107717087Y-51837087D01*
X107899485Y-51614834D01*
X107950000Y-51520327D01*
X108000515Y-51614834D01*
X108182913Y-51837087D01*
X108405166Y-52019485D01*
X108658733Y-52155019D01*
X108933868Y-52238481D01*
X109148297Y-52259600D01*
X109291703Y-52259600D01*
X109506132Y-52238481D01*
X109781267Y-52155019D01*
X110034834Y-52019485D01*
X110257087Y-51837087D01*
X110439485Y-51614834D01*
X110490000Y-51520327D01*
X110540515Y-51614834D01*
X110722913Y-51837087D01*
X110945166Y-52019485D01*
X111198733Y-52155019D01*
X111473868Y-52238481D01*
X111688297Y-52259600D01*
X111831703Y-52259600D01*
X112046132Y-52238481D01*
X112321267Y-52155019D01*
X112574834Y-52019485D01*
X112797087Y-51837087D01*
X112979485Y-51614834D01*
X113030000Y-51520327D01*
X113080515Y-51614834D01*
X113262913Y-51837087D01*
X113485166Y-52019485D01*
X113738733Y-52155019D01*
X114013868Y-52238481D01*
X114228297Y-52259600D01*
X114371703Y-52259600D01*
X114586132Y-52238481D01*
X114861267Y-52155019D01*
X115114834Y-52019485D01*
X115337087Y-51837087D01*
X115519485Y-51614834D01*
X115570000Y-51520327D01*
X115620515Y-51614834D01*
X115802913Y-51837087D01*
X116025166Y-52019485D01*
X116278733Y-52155019D01*
X116553868Y-52238481D01*
X116768297Y-52259600D01*
X116911703Y-52259600D01*
X117126132Y-52238481D01*
X117401267Y-52155019D01*
X117654834Y-52019485D01*
X117877087Y-51837087D01*
X118059485Y-51614834D01*
X118110000Y-51520327D01*
X118160515Y-51614834D01*
X118342913Y-51837087D01*
X118565166Y-52019485D01*
X118818733Y-52155019D01*
X119093868Y-52238481D01*
X119308297Y-52259600D01*
X119451703Y-52259600D01*
X119666132Y-52238481D01*
X119941267Y-52155019D01*
X120194834Y-52019485D01*
X120417087Y-51837087D01*
X120599485Y-51614834D01*
X120650000Y-51520327D01*
X120700515Y-51614834D01*
X120882913Y-51837087D01*
X121105166Y-52019485D01*
X121358733Y-52155019D01*
X121633868Y-52238481D01*
X121848297Y-52259600D01*
X121991703Y-52259600D01*
X122206132Y-52238481D01*
X122481267Y-52155019D01*
X122734834Y-52019485D01*
X122957087Y-51837087D01*
X123139485Y-51614834D01*
X123190000Y-51520327D01*
X123240515Y-51614834D01*
X123422913Y-51837087D01*
X123645166Y-52019485D01*
X123898733Y-52155019D01*
X124173868Y-52238481D01*
X124388297Y-52259600D01*
X124531703Y-52259600D01*
X124746132Y-52238481D01*
X125021267Y-52155019D01*
X125274834Y-52019485D01*
X125497087Y-51837087D01*
X125679485Y-51614834D01*
X125730000Y-51520327D01*
X125780515Y-51614834D01*
X125962913Y-51837087D01*
X126185166Y-52019485D01*
X126438733Y-52155019D01*
X126713868Y-52238481D01*
X126928297Y-52259600D01*
X127071703Y-52259600D01*
X127286132Y-52238481D01*
X127561267Y-52155019D01*
X127814834Y-52019485D01*
X128037087Y-51837087D01*
X128219485Y-51614834D01*
X128270000Y-51520327D01*
X128320515Y-51614834D01*
X128502913Y-51837087D01*
X128725166Y-52019485D01*
X128978733Y-52155019D01*
X129253868Y-52238481D01*
X129468297Y-52259600D01*
X129611703Y-52259600D01*
X129826132Y-52238481D01*
X129911021Y-52212730D01*
X131823119Y-54124829D01*
X131846185Y-54152935D01*
X131874291Y-54176001D01*
X131874292Y-54176002D01*
X131884462Y-54184348D01*
X131958347Y-54244984D01*
X132086311Y-54313382D01*
X132225161Y-54355502D01*
X132333374Y-54366160D01*
X132333383Y-54366160D01*
X132369559Y-54369723D01*
X132405735Y-54366160D01*
X137103810Y-54366160D01*
X137151418Y-54413768D01*
X137316775Y-54524256D01*
X137500511Y-54600362D01*
X137695563Y-54639160D01*
X137894437Y-54639160D01*
X138089489Y-54600362D01*
X138273225Y-54524256D01*
X138438582Y-54413768D01*
X138579208Y-54273142D01*
X138689696Y-54107785D01*
X138765802Y-53924049D01*
X138804600Y-53728997D01*
X138804600Y-53530123D01*
X138765802Y-53335071D01*
X138689696Y-53151335D01*
X138579208Y-52985978D01*
X138438582Y-52845352D01*
X138273225Y-52734864D01*
X138089489Y-52658758D01*
X137894437Y-52619960D01*
X137695563Y-52619960D01*
X137500511Y-52658758D01*
X137316775Y-52734864D01*
X137151418Y-52845352D01*
X137103810Y-52892960D01*
X132674670Y-52892960D01*
X132326313Y-52544603D01*
X139274600Y-52544603D01*
X139274600Y-52743477D01*
X139313398Y-52938529D01*
X139389504Y-53122265D01*
X139499992Y-53287622D01*
X139640618Y-53428248D01*
X139805975Y-53538736D01*
X139989711Y-53614842D01*
X140184763Y-53653640D01*
X140383637Y-53653640D01*
X140578689Y-53614842D01*
X140647394Y-53586383D01*
X140631218Y-53597192D01*
X140490592Y-53737818D01*
X140380104Y-53903175D01*
X140303998Y-54086911D01*
X140265200Y-54281963D01*
X140265200Y-54480837D01*
X140303998Y-54675889D01*
X140380104Y-54859625D01*
X140490592Y-55024982D01*
X140631218Y-55165608D01*
X140796575Y-55276096D01*
X140980311Y-55352202D01*
X141175363Y-55391000D01*
X141181731Y-55391000D01*
X145300354Y-59509623D01*
X145323425Y-59537735D01*
X145435587Y-59629784D01*
X145563551Y-59698182D01*
X145702401Y-59740302D01*
X145810614Y-59750960D01*
X145810623Y-59750960D01*
X145846799Y-59754523D01*
X145882975Y-59750960D01*
X154939691Y-59750960D01*
X159852361Y-64663631D01*
X159852360Y-71302570D01*
X159804752Y-71350178D01*
X159694264Y-71515535D01*
X159618158Y-71699271D01*
X159579360Y-71894323D01*
X159579360Y-72093197D01*
X159618158Y-72288249D01*
X159694264Y-72471985D01*
X159804752Y-72637342D01*
X159945378Y-72777968D01*
X160110735Y-72888456D01*
X160294471Y-72964562D01*
X160489523Y-73003360D01*
X160688397Y-73003360D01*
X160883449Y-72964562D01*
X161067185Y-72888456D01*
X161232542Y-72777968D01*
X161373168Y-72637342D01*
X161483656Y-72471985D01*
X161559762Y-72288249D01*
X161598560Y-72093197D01*
X161598560Y-71894323D01*
X161559762Y-71699271D01*
X161483656Y-71515535D01*
X161373168Y-71350178D01*
X161325560Y-71302570D01*
X161325560Y-70627153D01*
X166603531Y-70627153D01*
X166684081Y-70958507D01*
X167010393Y-71126676D01*
X167363244Y-71227953D01*
X167729072Y-71258447D01*
X168093821Y-71216985D01*
X168443472Y-71105161D01*
X168717839Y-70958507D01*
X168798389Y-70627153D01*
X167700960Y-69529724D01*
X166603531Y-70627153D01*
X161325560Y-70627153D01*
X161325560Y-69414152D01*
X165828553Y-69414152D01*
X165870015Y-69778901D01*
X165981839Y-70128552D01*
X166128493Y-70402919D01*
X166459847Y-70483469D01*
X167557276Y-69386040D01*
X167844644Y-69386040D01*
X168942073Y-70483469D01*
X169273427Y-70402919D01*
X169441596Y-70076607D01*
X169542873Y-69723756D01*
X169573367Y-69357928D01*
X169558542Y-69227508D01*
X171091360Y-69227508D01*
X171091360Y-69544572D01*
X171153216Y-69855543D01*
X171274551Y-70148471D01*
X171450702Y-70412100D01*
X171674900Y-70636298D01*
X171938529Y-70812449D01*
X172231457Y-70933784D01*
X172542428Y-70995640D01*
X172859492Y-70995640D01*
X173170463Y-70933784D01*
X173463391Y-70812449D01*
X173727020Y-70636298D01*
X173951218Y-70412100D01*
X174127369Y-70148471D01*
X174248704Y-69855543D01*
X174310560Y-69544572D01*
X174310560Y-69227508D01*
X174248704Y-68916537D01*
X174127369Y-68623609D01*
X173951218Y-68359980D01*
X173727020Y-68135782D01*
X173463391Y-67959631D01*
X173170463Y-67838296D01*
X172859492Y-67776440D01*
X172542428Y-67776440D01*
X172231457Y-67838296D01*
X171938529Y-67959631D01*
X171674900Y-68135782D01*
X171450702Y-68359980D01*
X171274551Y-68623609D01*
X171153216Y-68916537D01*
X171091360Y-69227508D01*
X169558542Y-69227508D01*
X169531905Y-68993179D01*
X169420081Y-68643528D01*
X169273427Y-68369161D01*
X168942073Y-68288611D01*
X167844644Y-69386040D01*
X167557276Y-69386040D01*
X166459847Y-68288611D01*
X166128493Y-68369161D01*
X165960324Y-68695473D01*
X165859047Y-69048324D01*
X165828553Y-69414152D01*
X161325560Y-69414152D01*
X161325560Y-68144927D01*
X166603531Y-68144927D01*
X167700960Y-69242356D01*
X168798389Y-68144927D01*
X168717839Y-67813573D01*
X168391527Y-67645404D01*
X168038676Y-67544127D01*
X167672848Y-67513633D01*
X167308099Y-67555095D01*
X166958448Y-67666919D01*
X166684081Y-67813573D01*
X166603531Y-68144927D01*
X161325560Y-68144927D01*
X161325560Y-64394706D01*
X161329124Y-64358520D01*
X161314902Y-64214121D01*
X161287900Y-64125107D01*
X161272782Y-64075271D01*
X161204384Y-63947307D01*
X161182709Y-63920896D01*
X161135402Y-63863252D01*
X161135401Y-63863251D01*
X161112335Y-63835145D01*
X161084229Y-63812079D01*
X155791246Y-58519097D01*
X155768175Y-58490985D01*
X155656013Y-58398936D01*
X155528049Y-58330538D01*
X155389199Y-58288418D01*
X155280986Y-58277760D01*
X155280983Y-58277760D01*
X155244800Y-58274196D01*
X155208617Y-58277760D01*
X146482110Y-58277760D01*
X146554808Y-58205062D01*
X146665296Y-58039705D01*
X146741402Y-57855969D01*
X146780200Y-57660917D01*
X146780200Y-57632636D01*
X146798923Y-57636360D01*
X146997797Y-57636360D01*
X147192849Y-57597562D01*
X147376585Y-57521456D01*
X147541942Y-57410968D01*
X147589550Y-57363360D01*
X148340457Y-57363360D01*
X148376640Y-57366924D01*
X148412823Y-57363360D01*
X148412826Y-57363360D01*
X148521039Y-57352702D01*
X148659889Y-57310582D01*
X148787853Y-57242184D01*
X148900015Y-57150135D01*
X148923086Y-57122023D01*
X152196620Y-53848490D01*
X152281508Y-53874241D01*
X152495937Y-53895360D01*
X152639343Y-53895360D01*
X152853772Y-53874241D01*
X153128907Y-53790779D01*
X153382474Y-53655245D01*
X153604727Y-53472847D01*
X153787125Y-53250594D01*
X153922659Y-52997027D01*
X154006121Y-52721892D01*
X154034302Y-52435760D01*
X154006121Y-52149628D01*
X153922659Y-51874493D01*
X153787125Y-51620926D01*
X153604727Y-51398673D01*
X153382474Y-51216275D01*
X153128907Y-51080741D01*
X152853772Y-50997279D01*
X152639343Y-50976160D01*
X152495937Y-50976160D01*
X152281508Y-50997279D01*
X152006373Y-51080741D01*
X151752806Y-51216275D01*
X151530553Y-51398673D01*
X151348155Y-51620926D01*
X151297640Y-51715433D01*
X151247125Y-51620926D01*
X151064727Y-51398673D01*
X150842474Y-51216275D01*
X150588907Y-51080741D01*
X150313772Y-50997279D01*
X150099343Y-50976160D01*
X149955937Y-50976160D01*
X149741508Y-50997279D01*
X149466373Y-51080741D01*
X149212806Y-51216275D01*
X148990553Y-51398673D01*
X148808155Y-51620926D01*
X148757640Y-51715433D01*
X148707125Y-51620926D01*
X148524727Y-51398673D01*
X148302474Y-51216275D01*
X148048907Y-51080741D01*
X147773772Y-50997279D01*
X147559343Y-50976160D01*
X147415937Y-50976160D01*
X147201508Y-50997279D01*
X146926373Y-51080741D01*
X146672806Y-51216275D01*
X146604918Y-51271989D01*
X146599363Y-51253675D01*
X146519172Y-51103648D01*
X146411252Y-50972148D01*
X146279752Y-50864228D01*
X146129725Y-50784037D01*
X145966935Y-50734655D01*
X145797640Y-50717981D01*
X145265140Y-50722160D01*
X145049240Y-50938060D01*
X145049240Y-52334160D01*
X145069240Y-52334160D01*
X145069240Y-52537360D01*
X145049240Y-52537360D01*
X145049240Y-52557360D01*
X144846040Y-52557360D01*
X144846040Y-52537360D01*
X143449940Y-52537360D01*
X143351126Y-52636174D01*
X142812491Y-52097539D01*
X142787037Y-52066523D01*
X142663272Y-51964952D01*
X142522070Y-51889478D01*
X142368857Y-51843001D01*
X142249443Y-51831240D01*
X142249440Y-51831240D01*
X142209520Y-51827308D01*
X142169600Y-51831240D01*
X140884991Y-51831240D01*
X140762425Y-51749344D01*
X140578689Y-51673238D01*
X140383637Y-51634440D01*
X140184763Y-51634440D01*
X139989711Y-51673238D01*
X139805975Y-51749344D01*
X139640618Y-51859832D01*
X139499992Y-52000458D01*
X139389504Y-52165815D01*
X139313398Y-52349551D01*
X139274600Y-52544603D01*
X132326313Y-52544603D01*
X131367470Y-51585760D01*
X143229861Y-51585760D01*
X143234040Y-52118260D01*
X143449940Y-52334160D01*
X144846040Y-52334160D01*
X144846040Y-50938060D01*
X144630140Y-50722160D01*
X144097640Y-50717981D01*
X143928345Y-50734655D01*
X143765555Y-50784037D01*
X143615528Y-50864228D01*
X143484028Y-50972148D01*
X143376108Y-51103648D01*
X143295917Y-51253675D01*
X143246535Y-51416465D01*
X143229861Y-51585760D01*
X131367470Y-51585760D01*
X130952730Y-51171021D01*
X130978481Y-51086132D01*
X131006662Y-50800000D01*
X130978481Y-50513868D01*
X130895019Y-50238733D01*
X130759485Y-49985166D01*
X130577087Y-49762913D01*
X130354834Y-49580515D01*
X130101267Y-49444981D01*
X129826132Y-49361519D01*
X129611703Y-49340400D01*
X129468297Y-49340400D01*
X129253868Y-49361519D01*
X128978733Y-49444981D01*
X128725166Y-49580515D01*
X128502913Y-49762913D01*
X128320515Y-49985166D01*
X128270000Y-50079673D01*
X128219485Y-49985166D01*
X128037087Y-49762913D01*
X127814834Y-49580515D01*
X127561267Y-49444981D01*
X127286132Y-49361519D01*
X127071703Y-49340400D01*
X126928297Y-49340400D01*
X126713868Y-49361519D01*
X126438733Y-49444981D01*
X126185166Y-49580515D01*
X125962913Y-49762913D01*
X125780515Y-49985166D01*
X125730000Y-50079673D01*
X125679485Y-49985166D01*
X125497087Y-49762913D01*
X125274834Y-49580515D01*
X125021267Y-49444981D01*
X124746132Y-49361519D01*
X124531703Y-49340400D01*
X124388297Y-49340400D01*
X124173868Y-49361519D01*
X123898733Y-49444981D01*
X123645166Y-49580515D01*
X123422913Y-49762913D01*
X123240515Y-49985166D01*
X123190000Y-50079673D01*
X123139485Y-49985166D01*
X122957087Y-49762913D01*
X122734834Y-49580515D01*
X122481267Y-49444981D01*
X122206132Y-49361519D01*
X121991703Y-49340400D01*
X121848297Y-49340400D01*
X121633868Y-49361519D01*
X121358733Y-49444981D01*
X121105166Y-49580515D01*
X120882913Y-49762913D01*
X120700515Y-49985166D01*
X120650000Y-50079673D01*
X120599485Y-49985166D01*
X120417087Y-49762913D01*
X120194834Y-49580515D01*
X119941267Y-49444981D01*
X119666132Y-49361519D01*
X119451703Y-49340400D01*
X119308297Y-49340400D01*
X119093868Y-49361519D01*
X118818733Y-49444981D01*
X118565166Y-49580515D01*
X118342913Y-49762913D01*
X118160515Y-49985166D01*
X118110000Y-50079673D01*
X118059485Y-49985166D01*
X117877087Y-49762913D01*
X117654834Y-49580515D01*
X117401267Y-49444981D01*
X117126132Y-49361519D01*
X116911703Y-49340400D01*
X116768297Y-49340400D01*
X116553868Y-49361519D01*
X116278733Y-49444981D01*
X116025166Y-49580515D01*
X115802913Y-49762913D01*
X115620515Y-49985166D01*
X115570000Y-50079673D01*
X115519485Y-49985166D01*
X115337087Y-49762913D01*
X115114834Y-49580515D01*
X114861267Y-49444981D01*
X114586132Y-49361519D01*
X114371703Y-49340400D01*
X114228297Y-49340400D01*
X114013868Y-49361519D01*
X113738733Y-49444981D01*
X113485166Y-49580515D01*
X113262913Y-49762913D01*
X113080515Y-49985166D01*
X113030000Y-50079673D01*
X112979485Y-49985166D01*
X112797087Y-49762913D01*
X112574834Y-49580515D01*
X112321267Y-49444981D01*
X112046132Y-49361519D01*
X111831703Y-49340400D01*
X111688297Y-49340400D01*
X111473868Y-49361519D01*
X111198733Y-49444981D01*
X110945166Y-49580515D01*
X110722913Y-49762913D01*
X110540515Y-49985166D01*
X110490000Y-50079673D01*
X110439485Y-49985166D01*
X110257087Y-49762913D01*
X110034834Y-49580515D01*
X109781267Y-49444981D01*
X109506132Y-49361519D01*
X109291703Y-49340400D01*
X109148297Y-49340400D01*
X108933868Y-49361519D01*
X108658733Y-49444981D01*
X108405166Y-49580515D01*
X108182913Y-49762913D01*
X108000515Y-49985166D01*
X107950000Y-50079673D01*
X107899485Y-49985166D01*
X107717087Y-49762913D01*
X107494834Y-49580515D01*
X107241267Y-49444981D01*
X106966132Y-49361519D01*
X106751703Y-49340400D01*
X106608297Y-49340400D01*
X106393868Y-49361519D01*
X106118733Y-49444981D01*
X105865166Y-49580515D01*
X105642913Y-49762913D01*
X105566116Y-49856491D01*
X105545431Y-49819592D01*
X105327158Y-49564244D01*
X105063263Y-49356386D01*
X104763888Y-49204005D01*
X104507944Y-49126369D01*
X104241600Y-49305750D01*
X104038400Y-49305750D01*
X103772056Y-49126369D01*
X103516112Y-49204005D01*
X103216737Y-49356386D01*
X102952842Y-49564244D01*
X102937119Y-49582638D01*
X102883138Y-49516862D01*
X102790314Y-49440684D01*
X102684412Y-49384079D01*
X102569502Y-49349221D01*
X102450000Y-49337451D01*
X100750000Y-49337451D01*
X100630498Y-49349221D01*
X100515588Y-49384079D01*
X100409686Y-49440684D01*
X100316862Y-49516862D01*
X100240684Y-49609686D01*
X100184079Y-49715588D01*
X100149221Y-49830498D01*
X100137451Y-49950000D01*
X96342783Y-49950000D01*
X96466600Y-49327535D01*
X96466600Y-48462465D01*
X96297833Y-47614018D01*
X95966785Y-46814797D01*
X95486178Y-46095518D01*
X94970960Y-45580300D01*
X181000040Y-45580300D01*
X180484822Y-46095518D01*
M02*
