M48
INCH,TZ
T1C0.0157
T2C0.0394
T3C0.0591
%
G90
G05
T1
X35562Y-24766
X35574Y-25856
X36026Y-24200
X36056Y-26392
X36066Y-25332
X36118Y-28700
X36702Y-28116
X36712Y-29172
X38658Y-31082
X38670Y-32304
X38828Y-32610
X39020Y-29314
X39040Y-32328
X39152Y-28520
X39210Y-29674
X39330Y-32558
X39364Y-28160
X39364Y-32212
X39430Y-29306
X39536Y-31920
X39586Y-28520
X39748Y-32528
X39994Y-31476
X40082Y-27158
X41284Y-30538
X41304Y-30908
X41312Y-31292
X41890Y-28258
X41890Y-31394
X42218Y-31062
X42236Y-34830
X42307Y-32395
X42552Y-22722
X42666Y-35320
X42704Y-30444
X42940Y-22722
X43208Y-22142
X43472Y-24642
X43598Y-22150
X44332Y-33178
X44788Y-33164
X44866Y-23996
X44996Y-27460
X44996Y-28060
X45256Y-24020
X45280Y-34788
X45374Y-31478
X45464Y-34426
X45466Y-27116
X45768Y-23446
X45950Y-23088
X45996Y-31472
X46032Y-23844
X46062Y-27724
X46540Y-23614
X46548Y-31902
X46680Y-22276
X46714Y-34106
X46786Y-31102
X47000Y-24742
X47002Y-23978
X47494Y-34766
X48304Y-31566
X48738Y-31094
X48750Y-30068
X50256Y-33134
X51010Y-29612
X51274Y-28960
X51348Y-25158
X51386Y-23812
X51444Y-24664
X51648Y-28608
X51880Y-28220
X51926Y-25070
X51988Y-27502
X52038Y-23158
X52268Y-32692
X52268Y-35440
X52316Y-32156
X52402Y-31638
X52471Y-23457
X52486Y-22256
X52742Y-29316
X52886Y-29683
X53540Y-28998
X53712Y-29566
X54080Y-29960
X54250Y-21114
X54518Y-30284
X54580Y-26026
X54724Y-23158
X55058Y-27452
X55058Y-30336
X55082Y-23474
X55110Y-22256
X55230Y-20726
X55554Y-23812
X55620Y-21410
X55890Y-24114
X56240Y-24352
X56268Y-28608
X56606Y-24628
X56694Y-28284
X57390Y-22662
X57834Y-22294
X61366Y-28788
X61542Y-28350
X62866Y-31714
X63224Y-28344
X63266Y-31472
T2
X43500Y-30000
X44500Y-30000
X45500Y-30000
X46500Y-30000
X47500Y-30000
X43500Y-36000
X44500Y-36000
X45500Y-36000
X46500Y-36000
X47500Y-36000
X40000Y-20000
X41000Y-20000
X42000Y-20000
X43000Y-20000
X44000Y-20000
X45000Y-20000
X46000Y-20000
X47000Y-20000
X48000Y-20000
X49000Y-20000
X50000Y-20000
X51000Y-20000
X40000Y-26000
X41000Y-26000
X42000Y-26000
X43000Y-26000
X44000Y-26000
X45000Y-26000
X46000Y-26000
X47000Y-26000
X48000Y-26000
X49000Y-26000
X50000Y-26000
X51000Y-26000
X57066Y-20644
X58066Y-20644
X59066Y-20644
X60066Y-20644
X66024Y-27317
X66024Y-33026
X67008Y-33026
X67993Y-27317
X67993Y-33026
T3
G00X64804Y-30329
M15
G01X64804Y-29817
M16
G05
G00X69213Y-30329
M15
G01X69213Y-29817
M16
G05
T0
M30
